<?xml version="1.0" encoding="UTF-8"?>
<svg id="Layer_1" xmlns="http://www.w3.org/2000/svg" version="1.1" viewBox="0 0 83.33 52.17">
  <!-- Generator: Adobe Illustrator 30.6.0, SVG Export Plug-In . SVG Version: 2.1.4 Build 109)  -->
  <defs>
    <style>
      .st0 {
        fill: #54e346;
      }
    </style>
  </defs>
  <rect class="st0" x="24.26" y="-6.87" width="5.8" height="42.71" transform="translate(41.64 -12.68) rotate(90)"/>
  <rect class="st0" x="5.8" y="34.78" width="42.71" height="5.8"/>
  <rect class="st0" x="60.12" y="5.78" width="5.8" height="5.8"/>
  <rect class="st0" x="65.92" y="11.58" width="5.8" height="5.8"/>
  <rect class="st0" x="71.72" y="17.39" width="5.8" height="5.8"/>
  <rect class="st0" x="60.12" y="40.57" width="5.8" height="5.8"/>
  <rect class="st0" x="65.92" y="34.78" width="5.8" height="5.8"/>
  <rect class="st0" x="71.72" y="28.98" width="5.8" height="5.8"/>
  <rect class="st0" x="77.53" y="23.18" width="5.8" height="5.8"/>
  <rect class="st0" y="17.39" width="5.8" height="17.39"/>
  <polygon class="st0" points="60.12 46.37 60.12 52.17 48.51 52.17 48.51 40.57 54.32 40.57 54.32 46.37 60.12 46.37"/>
  <polygon class="st0" points="60.12 5.8 60.12 0 48.51 0 48.51 11.59 54.32 11.59 54.32 5.8 60.12 5.8"/>
</svg>