<?xml version="1.0" encoding="UTF-8"?>
<svg id="Layer_1" xmlns="http://www.w3.org/2000/svg" version="1.1" viewBox="0 0 83.33 100">
  <!-- Generator: Adobe Illustrator 30.6.0, SVG Export Plug-In . SVG Version: 2.1.4 Build 109)  -->
  <defs>
    <style>
      .st0 {
        fill: #54e346;
      }
    </style>
  </defs>
  <rect class="st0" x="58.33" y="66.67" width="8.33" height="8.33"/>
  <rect class="st0" x="66.67" y="75" width="8.33" height="8.33"/>
  <rect class="st0" x="75" y="83.33" width="8.33" height="8.33"/>
  <rect class="st0" x="8.34" y="91.67" width="66.66" height="8.33"/>
  <rect class="st0" y="83.33" width="8.33" height="8.33"/>
  <rect class="st0" x="8.33" y="75" width="8.33" height="8.33"/>
  <rect class="st0" x="16.67" y="66.67" width="8.33" height="8.33"/>
  <rect class="st0" x="25" y="16.67" width="8.34" height="50"/>
  <rect class="st0" x="50" y="16.67" width="8.34" height="50"/>
  <polygon class="st0" points="75 0 75 8.33 66.67 8.33 66.67 16.67 58.34 16.67 58.34 8.33 25 8.33 25 16.67 16.67 16.67 16.67 8.33 8.34 8.33 8.34 0 75 0"/>
</svg>