<?xml version="1.0" encoding="UTF-8"?>
<svg id="Layer_1" xmlns="http://www.w3.org/2000/svg" version="1.1" viewBox="0 0 24 24">
  <!-- Generator: Adobe Illustrator 30.6.0, SVG Export Plug-In . SVG Version: 2.1.4 Build 109)  -->
  <defs>
    <style>
      .st0 {
        fill: #fff;
      }

      .st1 {
        fill: #54e346;
      }
    </style>
  </defs>
  <polygon class="st1" points="23.99 0 18.66 0 18.66 2.67 21.33 2.67 21.33 5.33 23.99 5.33 23.99 0"/>
  <polygon class="st1" points="5.34 0 5.34 2.66 2.67 2.66 2.67 5.33 0 5.33 0 0 5.34 0"/>
  <path class="st0" d="M21.33,21.33V5.33h-2.66v-2.67H2.67v18.67H0v2.67h5.34v-2.67h13.33v2.67h5.33v-2.67h-2.67ZM18.67,18.67H5.34V5.33h11.42v1.91h1.91v11.43Z"/>
  <polygon class="st1" points="14.67 9.33 14.67 14.67 12 14.67 12 12 9.34 12 9.34 9.33 14.67 9.33"/>
</svg>