<?xml version="1.0" encoding="UTF-8"?>
<svg id="Layer_2" data-name="Layer 2" xmlns="http://www.w3.org/2000/svg" viewBox="0 0 21.88 21.88">
  <defs>
    <style>
      .cls-1 {
        fill: #54e346;
      }
    </style>
  </defs>
  <g id="Layer_1-2" data-name="Layer 1">
    <g>
      <polygon class="cls-1" points="4.38 0 8.75 4.38 6.56 6.56 5.47 5.47 6.56 4.38 4.38 2.19 1.09 5.47 0 4.38 4.38 0"/>
      <rect class="cls-1" x="5.79" y="6.88" width="1.55" height="1.55" transform="translate(-3.49 6.88) rotate(-45)"/>
      <rect class="cls-1" x="8.53" y="7.94" width="1.55" height="9.28" transform="translate(-6.17 10.26) rotate(-45)"/>
      <rect class="cls-1" x=".32" y="5.79" width="1.55" height="1.55" transform="translate(-4.32 2.7) rotate(-45)"/>
      <rect class="cls-1" x="6.34" y="5.49" width="1.55" height="18.57" transform="translate(-8.36 9.35) rotate(-45)"/>
      <polygon class="cls-1" points="17.5 13.13 21.88 17.5 17.5 21.88 16.41 20.79 19.69 17.5 17.5 15.32 16.41 16.41 15.32 15.32 17.5 13.13"/>
      <rect class="cls-1" x="13.45" y="14.54" width="1.55" height="1.55" transform="translate(-6.66 14.54) rotate(-45)"/>
      <rect class="cls-1" x="14.54" y="20.01" width="1.55" height="1.55" transform="translate(-10.21 16.92) rotate(-45)"/>
    </g>
  </g>
</svg>