<?xml version="1.0" encoding="UTF-8"?>
<svg id="Layer_1" data-name="Layer 1" xmlns="http://www.w3.org/2000/svg" viewBox="0 0 1699.97 820.95">
  <defs>
    <style>
      .cls-1, .cls-2 {
        fill: #ed1c24;
      }

      .cls-1, .cls-3, .cls-4, .cls-5 {
        fill-rule: evenodd;
      }

      .cls-6, .cls-3 {
        fill: #00aeef;
      }

      .cls-7 {
        fill: #fff;
      }

      .cls-4 {
        fill: #808285;
      }

      .cls-5 {
        fill: #a6ce39;
      }
    </style>
  </defs>
  <polygon class="cls-4" points="1331.89 205.86 637.18 205.86 637.18 200.36 1331.89 200.36 1331.89 205.86 1331.89 205.86"/>
  <path class="cls-1" d="M466.24,93.17c-38.22,41.89-75.19,77.13-110.92,105.73-17.8,14.25-35.29,26.85-52.48,37.79-5.38,3.43-6.85,10.23-12.17,13.33-10.52,6.13-24.79,8.1-35.07,12.97l48.98,80.93c65.57-31.68,156.04-54.41,271.39-68.18-2.32-9.66-7.14-17.82-14.44-24.5-61.11,13.94-130.79,21.48-209.05,22.64-9.77-.8-11.49-5.16-5.18-13.09,24.22-40.12,68.65-88.73,133.31-145.83-2.78-11.29-7.57-18.55-14.37-21.79h0Z"/>
  <path class="cls-1" d="M488.19,196.05c11.46,18.17,4.58,41.37-15.36,51.81-19.94,10.44-45.4,4.17-56.86-14-11.46-18.17-4.58-41.37,15.37-51.81,19.95-10.44,45.4-4.17,56.86,14h0Z"/>
  <path class="cls-5" d="M110.05,93.17c74.99,82.21,145.2,138.81,210.63,169.83l-48.98,80.93C206.13,312.25,115.67,289.52.31,275.76c2.32-9.66,7.14-17.82,14.44-24.5,61.11,13.94,130.79,21.48,209.05,22.64,9.77-.8,11.49-5.16,5.18-13.09-24.22-40.12-68.65-88.73-133.31-145.83,2.78-11.29,7.57-18.55,14.37-21.79h0Z"/>
  <path class="cls-5" d="M99.09,204.05c11.72-18.03,37.27-23.99,57.06-13.31,19.79,10.68,26.33,33.96,14.6,51.99-11.72,18.03-37.27,23.99-57.06,13.31-19.79-10.68-26.33-33.96-14.6-51.99h0Z"/>
  <path class="cls-3" d="M402.88,62.93c-54.15,125.97-72.61,226.03-55.36,300.18,39.48,118.6,63.12,179.78,70.93,183.53-12.04,5.56-24.39,4.68-37.07-2.63-26.48-87.89-55.85-149.16-88.11-183.82-7.38-1.02-14.12,4.68-20.22,17.11-26.48,37.58-52.64,95.35-78.48,173.29-17.97,4.1-28.89,2.34-32.74-5.26,40.12-83.21,66.12-155.01,78-215.41,2.49-70.5-19.32-159.3-65.4-266.38,10.4-2.81,20.57-2.91,30.52-.31,16.11,55.49,42.51,114.73,79.2,177.73,5.49,7.41,10.51,6.67,15.09-2.19,26.86-38.69,52.11-97.62,75.77-176.79,12.19-3.23,21.49-2.92,27.88.94h0Z"/>
  <path class="cls-3" d="M289.61,98.27c23,0,41.65,16.99,41.65,37.95s-18.64,37.94-41.65,37.94-41.64-16.99-41.64-37.94,18.64-37.95,41.64-37.95h0Z"/>
  <path class="cls-7" d="M641.94,240.78h20.44l30.31,59.24c.77,1.63,1.65,3.77,2.6,6.39.93,2.61,1.9,5.62,2.87,9-.67-4.01-1.17-7.68-1.49-10.98-.34-3.3-.49-6.13-.49-8.47v-55.19h14.75v84.78h-20.14l-31.24-60.63c-.81-1.51-1.63-3.48-2.44-5.95-.81-2.48-1.65-5.38-2.46-8.72.63,4.97,1.13,9.22,1.49,12.79.38,3.56.56,6.07.56,7.49v55.01h-14.75v-84.78h0ZM758.84,295.95c-6.32,0-11.06.9-14.25,2.71-3.19,1.81-4.8,4.52-4.8,8.1,0,2.69.91,4.89,2.74,6.58,1.8,1.69,4.2,2.55,7.14,2.55,4.26,0,7.75-1.55,10.51-4.62,2.75-3.1,4.12-7.09,4.12-11.98v-3.34h-5.45ZM779.16,290.23v35.33h-13.7l-.24-10.04c-2.52,3.83-5.49,6.72-8.94,8.7-3.45,1.98-7.29,2.95-11.5,2.95-6.05,0-10.92-1.81-14.65-5.46-3.71-3.65-5.57-8.35-5.57-14.11,0-6.88,2.66-12.06,7.95-15.5,5.31-3.44,13.24-5.15,23.83-5.15h7.95v-.9c0-4.22-1.29-7.47-3.88-9.82-2.6-2.32-6.26-3.48-10.98-3.48-2.68,0-5.45.41-8.35,1.24-2.87.84-5.85,2.1-8.9,3.77l-.24-11.32c3.61-1.53,7.14-2.63,10.62-3.34,3.49-.71,7-1.08,10.51-1.08,9.08,0,15.68,2.26,19.84,6.76,4.16,4.52,6.24,11.67,6.24,21.44h0ZM816.72,243.47v20.16h14.53v11.69h-14.53v27.15c0,4.62.69,7.92,2.1,9.94,1.39,2.02,3.67,3.01,6.84,3.01.81,0,1.72-.08,2.74-.26,1.01-.18,2.08-.45,3.19-.81l.24,11.16c-1.7.47-3.47.84-5.29,1.06-1.8.24-3.61.37-5.39.37-7.13,0-12.23-1.81-15.34-5.44-3.09-3.6-4.64-9.63-4.64-18.06v-28.1h-11.91v-11.69h12.61v-15.03l14.87-5.13h0ZM843.6,263.63h15.44v61.93h-15.44v-61.93h0ZM843.6,235.89h15.44v15.4h-15.44v-15.4h0ZM904.81,273.53c-4.68,0-8.48,1.91-11.42,5.76-2.91,3.83-4.38,8.88-4.38,15.11s1.47,11.22,4.38,15.05c2.93,3.81,6.74,5.72,11.42,5.72s8.58-1.89,11.48-5.66c2.87-3.79,4.32-8.82,4.32-15.11s-1.45-11.38-4.36-15.17c-2.89-3.81-6.72-5.7-11.44-5.7h0ZM904.81,262.02c9.99,0,17.84,2.89,23.55,8.66,5.71,5.76,8.56,13.73,8.56,23.87s-2.87,18.06-8.6,23.89c-5.73,5.82-13.56,8.74-23.51,8.74s-17.76-2.91-23.45-8.72c-5.69-5.8-8.54-13.77-8.54-23.91s2.83-18.1,8.5-23.87c5.67-5.76,13.5-8.66,23.49-8.66h0ZM1007.94,288.68v36.88h-15.62v-33.48c0-5.72-.95-9.94-2.87-12.67-1.92-2.73-4.92-4.09-8.98-4.09-4.34,0-7.79,1.73-10.35,5.21-2.56,3.48-3.83,8.23-3.83,14.23v30.79h-15.44v-61.93h14.11v11.22c2.28-4.22,5.23-7.41,8.84-9.57,3.63-2.18,7.83-3.26,12.59-3.26,7.08,0,12.45,2.26,16.09,6.76,3.63,4.52,5.45,11.16,5.45,19.9h0ZM1054.58,295.95c-6.32,0-11.06.9-14.25,2.71-3.19,1.81-4.8,4.52-4.8,8.1,0,2.69.91,4.89,2.74,6.58,1.8,1.69,4.2,2.55,7.14,2.55,4.26,0,7.75-1.55,10.51-4.62,2.76-3.1,4.12-7.09,4.12-11.98v-3.34h-5.45ZM1074.89,290.23v35.33h-13.7l-.24-10.04c-2.52,3.83-5.49,6.72-8.94,8.7-3.45,1.98-7.29,2.95-11.5,2.95-6.05,0-10.92-1.81-14.65-5.46-3.71-3.65-5.57-8.35-5.57-14.11,0-6.88,2.66-12.06,7.95-15.5,5.31-3.44,13.24-5.15,23.82-5.15h7.95v-.9c0-4.22-1.29-7.47-3.88-9.82-2.6-2.32-6.26-3.48-10.98-3.48-2.68,0-5.45.41-8.35,1.24-2.87.84-5.85,2.1-8.9,3.77l-.24-11.32c3.61-1.53,7.14-2.63,10.62-3.34,3.49-.71,7-1.08,10.51-1.08,9.08,0,15.68,2.26,19.84,6.76,4.16,4.52,6.24,11.67,6.24,21.44h0ZM1091.54,234.16h15.44v91.4h-15.44v-91.4h0Z"/>
  <path class="cls-6" d="M692.53,352.26l-1.47,13.89c-3.22-1.49-6.43-2.61-9.59-3.36-3.16-.74-6.3-1.13-9.43-1.13-4.55,0-8.1.87-10.64,2.59-2.54,1.72-3.82,4.12-3.82,7.24,0,3.84,4.61,8.18,13.81,12.93.89.47,1.57.81,2.07,1.06,8.6,4.48,14.45,8.73,17.59,12.72,3.12,4.01,4.69,8.81,4.69,14.4,0,8.18-3.02,14.86-9.07,20.05-6.06,5.18-14.01,7.77-23.87,7.77-4.03,0-10.83-1.49-20.4-4.48-1.01-.34-1.78-.59-2.29-.81l1.57-15.12c4.84,2.44,8.89,4.18,12.17,5.22,3.27,1.04,6.24,1.55,8.95,1.55,4.57,0,8.27-1.08,11.12-3.27,2.83-2.17,4.26-4.93,4.26-8.24,0-4.31-4.61-9.05-13.81-14.19-.64-.36-1.14-.64-1.45-.81-.37-.21-.95-.51-1.76-.93-6.82-3.74-11.62-7.13-14.41-10.19-1.98-2.17-3.49-4.61-4.51-7.35-1.03-2.74-1.55-5.65-1.55-8.71,0-7.52,2.85-13.57,8.58-18.18,5.7-4.61,13.33-6.9,22.9-6.9,3.72,0,9.13,1.02,16.22,3.06,1.86.53,3.24.93,4.13,1.17h0ZM711.53,343.06h16.1v56.55l21.31-25.82h18.11l-24.76,27.75,27.61,36.82h-19.68l-22.59-33.91v33.91h-16.1v-95.3h0ZM778.86,373.79h16.1v64.58h-16.1v-64.58h0ZM778.86,344.87h16.1v16.05h-16.1v-16.05h0ZM813.31,343.06h16.1v95.3h-16.1v-95.3h0ZM847.77,343.06h16.1v95.3h-16.1v-95.3h0ZM936.35,363.09v61.64h9.8c9.53,0,16.95-2.72,22.22-8.15,5.29-5.44,7.94-13.04,7.94-22.83s-2.63-17.54-7.9-22.79c-5.27-5.24-12.85-7.88-22.73-7.88h-9.32ZM919.28,349.96h24.64c7.32,0,13.56.51,18.75,1.55,5.19,1.04,9.43,2.63,12.75,4.8,6.16,4.01,10.79,9.17,13.89,15.48,3.08,6.31,4.63,13.72,4.63,22.21s-1.57,15.9-4.69,22.19c-3.12,6.26-7.81,11.4-14.07,15.4-3.51,2.32-7.92,4.03-13.23,5.12-5.31,1.1-11.76,1.66-19.35,1.66h-23.31v-88.4h0ZM1064.1,405.39v5.22h-44.25c.43,5.44,2.5,9.7,6.14,12.85,3.66,3.12,8.47,4.69,14.45,4.69,3.27,0,6.45-.4,9.53-1.19,3.08-.79,6.06-1.95,8.93-3.53v12.74c-3.06,1.3-6.37,2.25-9.92,2.91-3.56.64-7.36.96-11.39.96-10.5,0-18.7-3.1-24.61-9.3-5.91-6.2-8.87-14.8-8.87-25.78,0-9.79,2.87-17.71,8.62-23.76,5.77-6.05,13.25-9.09,22.51-9.09s16.2,2.91,21.27,8.75c5.06,5.82,7.61,13.99,7.61,24.53h0ZM1049.51,400.29c-.43-5.48-1.94-9.73-4.49-12.78-2.54-3.04-5.85-4.57-9.92-4.57s-7.59,1.53-10.29,4.57c-2.71,3.06-4.36,7.3-4.96,12.78h29.66ZM1068.83,373.79h17.32l15.03,49.65,15.38-49.65h16.1l-22.84,64.58h-18.58l-22.4-64.58h0ZM1197.86,405.39v5.22h-44.25c.43,5.44,2.5,9.7,6.14,12.85,3.66,3.12,8.47,4.69,14.45,4.69,3.27,0,6.45-.4,9.53-1.19,3.08-.79,6.06-1.95,8.93-3.53v12.74c-3.06,1.3-6.37,2.25-9.92,2.91-3.56.64-7.36.96-11.39.96-10.5,0-18.7-3.1-24.62-9.3-5.91-6.2-8.87-14.8-8.87-25.78,0-9.79,2.87-17.71,8.62-23.76,5.77-6.05,13.25-9.09,22.51-9.09s16.2,2.91,21.27,8.75c5.06,5.82,7.61,13.99,7.61,24.53h0ZM1183.27,400.29c-.43-5.48-1.94-9.73-4.49-12.78-2.54-3.04-5.85-4.57-9.92-4.57s-7.59,1.53-10.29,4.57c-2.71,3.06-4.36,7.3-4.96,12.78h29.66ZM1210.28,343.06h16.1v95.3h-16.1v-95.3h0ZM1274.1,384.11c-4.88,0-8.85,2-11.91,6.01-3.04,3.99-4.57,9.26-4.57,15.76s1.53,11.7,4.57,15.69c3.06,3.97,7.03,5.97,11.91,5.97s8.95-1.98,11.97-5.9c3-3.95,4.51-9.2,4.51-15.76s-1.51-11.87-4.55-15.82c-3.02-3.97-7.01-5.95-11.93-5.95h0ZM1274.1,372.11c10.42,0,18.6,3.02,24.55,9.02,5.95,6.01,8.93,14.31,8.93,24.89s-3,18.84-8.97,24.91c-5.97,6.07-14.14,9.11-24.51,9.11s-18.52-3.04-24.45-9.09c-5.93-6.05-8.91-14.35-8.91-24.93s2.96-18.88,8.87-24.89c5.91-6.01,14.08-9.02,24.49-9.02h0ZM1338.21,428.53v36.46h-16.1v-91.2h14.47v12.34c2.42-4.56,5.58-8.05,9.45-10.43,3.89-2.4,8.29-3.59,13.27-3.59,8,0,14.43,3.06,19.3,9.15,4.9,6.09,7.34,14.21,7.34,24.38s-2.5,18.28-7.5,24.63c-5.02,6.35-11.43,9.51-19.26,9.51-4.57,0-8.62-.93-12.15-2.82-3.53-1.89-6.47-4.69-8.8-8.43h0ZM1354.44,384.87c-5,0-8.95,1.87-11.86,5.63-2.91,3.76-4.36,8.88-4.36,15.4s1.41,11.49,4.24,15.31c2.83,3.8,6.57,5.71,11.26,5.71s8.54-1.91,11.33-5.75c2.79-3.84,4.17-9.05,4.17-15.65,0-6.24-1.34-11.25-4.05-15.01-2.71-3.76-6.28-5.63-10.73-5.63h0ZM1456.23,385.98c2.42-4.57,5.48-7.98,9.18-10.28,3.7-2.32,8-3.46,12.92-3.46,6.72,0,11.88,2.4,15.5,7.18,3.64,4.8,5.46,11.64,5.46,20.51v38.44h-16.1v-34.91c0-5.88-.89-10.21-2.67-13.02-1.78-2.8-4.51-4.2-8.16-4.2-4.4,0-7.87,1.76-10.42,5.31-2.54,3.55-3.82,8.45-3.82,14.72v32.11h-16.1v-34.91c0-5.84-.89-10.17-2.69-13-1.8-2.82-4.57-4.23-8.27-4.23-4.4,0-7.87,1.76-10.42,5.31-2.54,3.55-3.82,8.45-3.82,14.72v32.11h-15.98v-64.58h14.59v11.7c2.38-4.4,5.37-7.71,9.01-9.92,3.64-2.23,7.87-3.33,12.71-3.33,4.32,0,8.14,1.21,11.49,3.61,3.33,2.4,5.85,5.78,7.58,10.13h0ZM1572.55,405.39v5.22h-44.25c.43,5.44,2.5,9.7,6.14,12.85,3.66,3.12,8.47,4.69,14.45,4.69,3.26,0,6.45-.4,9.53-1.19,3.08-.79,6.06-1.95,8.93-3.53v12.74c-3.06,1.3-6.37,2.25-9.92,2.91-3.55.64-7.36.96-11.39.96-10.5,0-18.7-3.1-24.62-9.3-5.91-6.2-8.87-14.8-8.87-25.78,0-9.79,2.87-17.71,8.62-23.76,5.77-6.05,13.25-9.09,22.51-9.09s16.2,2.91,21.27,8.75c5.06,5.82,7.61,13.99,7.61,24.53h0ZM1557.95,400.29c-.43-5.48-1.94-9.73-4.49-12.78-2.54-3.04-5.85-4.57-9.92-4.57s-7.59,1.53-10.29,4.57c-2.71,3.06-4.36,7.3-4.96,12.78h29.66ZM1644.74,399.91v38.46h-16.29v-34.91c0-5.97-.99-10.36-3-13.21-2-2.85-5.13-4.27-9.36-4.27-4.53,0-8.12,1.8-10.79,5.44-2.67,3.63-3.99,8.58-3.99,14.84v32.11h-16.1v-64.58h14.72v11.7c2.38-4.4,5.46-7.73,9.22-9.98,3.78-2.27,8.16-3.4,13.12-3.4,7.38,0,12.98,2.36,16.78,7.05,3.78,4.71,5.68,11.64,5.68,20.75h0ZM1683.9,352.77v21.02h15.15v12.19h-15.15v28.31c0,4.82.72,8.26,2.19,10.36,1.45,2.1,3.82,3.14,7.13,3.14.85,0,1.8-.08,2.85-.28,1.05-.19,2.17-.47,3.33-.85l.25,11.64c-1.78.49-3.62.87-5.52,1.1-1.88.25-3.76.38-5.62.38-7.44,0-12.75-1.89-16-5.67-3.22-3.76-4.84-10.04-4.84-18.84v-29.3h-12.42v-12.19h13.14v-15.67l15.5-5.35h0Z"/>
  <path class="cls-7" d="M705.19,463l-1.05,13.42c-.32-.12-.71-.28-1.23-.47-7.65-2.95-13.64-4.42-17.94-4.42-9.06,0-16.29,2.89-21.72,8.66-5.41,5.76-8.13,13.44-8.13,23.01s2.79,16.43,8.38,22.08c5.61,5.64,12.98,8.47,22.16,8.47,3.07,0,7.67-1.1,13.84-3.28,2.16-.75,3.79-1.28,4.88-1.61l1.39,13.42c-1.01.29-2.5.69-4.48,1.26-7.47,2.18-13.14,3.28-17.01,3.28-14.21,0-25.43-3.91-33.64-11.75-8.21-7.84-12.31-18.45-12.31-31.87s4.12-24.21,12.35-32.42c8.23-8.21,19.13-12.32,32.73-12.32,4.22,0,9.93,1.08,17.13,3.22,2.14.61,3.69,1.04,4.66,1.32h0ZM746.22,493.06c-4.68,0-8.48,1.91-11.42,5.76-2.91,3.83-4.38,8.88-4.38,15.11s1.47,11.22,4.38,15.05c2.93,3.81,6.74,5.72,11.42,5.72s8.58-1.89,11.48-5.66c2.87-3.79,4.32-8.82,4.32-15.11s-1.45-11.38-4.36-15.17c-2.89-3.81-6.72-5.7-11.44-5.7h0ZM746.22,481.55c9.99,0,17.84,2.89,23.55,8.65,5.71,5.76,8.56,13.73,8.56,23.87s-2.87,18.06-8.6,23.89c-5.73,5.83-13.56,8.74-23.51,8.74s-17.76-2.91-23.45-8.72c-5.69-5.8-8.54-13.77-8.54-23.91s2.84-18.1,8.5-23.87c5.67-5.76,13.5-8.65,23.49-8.65h0ZM829.31,482.27l-.58,14.32c-.81-.29-1.67-.49-2.56-.63-.89-.14-1.82-.2-2.79-.2-5.11,0-9,1.73-11.67,5.21-2.68,3.48-4,8.55-4,15.19v28.94h-15.44v-61.93h13.88v12.34c1.94-4.6,4.38-8.06,7.35-10.37,2.95-2.3,6.44-3.46,10.47-3.46.71,0,1.49.04,2.34.14.85.1,1.84.24,3.01.45h0ZM854.68,535.66v34.97h-15.44v-87.47h13.88v11.83c2.32-4.38,5.35-7.72,9.06-10,3.73-2.3,7.95-3.44,12.73-3.44,7.67,0,13.84,2.93,18.51,8.78,4.7,5.85,7.04,13.62,7.04,23.38s-2.4,17.53-7.2,23.62c-4.82,6.09-10.96,9.12-18.47,9.12-4.38,0-8.27-.9-11.66-2.71-3.39-1.81-6.2-4.5-8.44-8.08h0ZM870.24,493.79c-4.8,0-8.58,1.79-11.38,5.4-2.79,3.6-4.18,8.51-4.18,14.76s1.35,11.02,4.06,14.68c2.72,3.65,6.3,5.48,10.8,5.48s8.19-1.83,10.86-5.52c2.68-3.69,4-8.68,4-15.01,0-5.99-1.29-10.79-3.88-14.4-2.6-3.6-6.03-5.4-10.29-5.4h0ZM942.67,493.06c-4.68,0-8.48,1.91-11.42,5.76-2.91,3.83-4.38,8.88-4.38,15.11s1.47,11.22,4.38,15.05c2.93,3.81,6.74,5.72,11.42,5.72s8.58-1.89,11.48-5.66c2.87-3.79,4.32-8.82,4.32-15.11s-1.45-11.38-4.36-15.17c-2.89-3.81-6.72-5.7-11.44-5.7h0ZM942.67,481.55c9.99,0,17.84,2.89,23.55,8.65,5.71,5.76,8.56,13.73,8.56,23.87s-2.87,18.06-8.6,23.89c-5.73,5.83-13.56,8.74-23.51,8.74s-17.76-2.91-23.45-8.72c-5.69-5.8-8.54-13.77-8.54-23.91s2.83-18.1,8.5-23.87c5.67-5.76,13.5-8.65,23.49-8.65h0ZM1025.76,482.27l-.57,14.32c-.81-.29-1.67-.49-2.56-.63-.89-.14-1.82-.2-2.79-.2-5.11,0-9,1.73-11.68,5.21-2.68,3.48-4,8.55-4,15.19v28.94h-15.44v-61.93h13.88v12.34c1.94-4.6,4.38-8.06,7.35-10.37,2.95-2.3,6.44-3.46,10.47-3.46.71,0,1.49.04,2.34.14.85.1,1.84.24,3.01.45h0ZM1065.44,515.48c-6.32,0-11.06.9-14.25,2.71-3.19,1.81-4.8,4.52-4.8,8.11,0,2.69.91,4.89,2.74,6.58,1.8,1.69,4.2,2.55,7.14,2.55,4.26,0,7.75-1.55,10.5-4.62,2.76-3.1,4.12-7.09,4.12-11.97v-3.34h-5.45ZM1085.76,509.76v35.33h-13.7l-.24-10.04c-2.52,3.83-5.49,6.72-8.94,8.7-3.45,1.98-7.29,2.95-11.5,2.95-6.05,0-10.92-1.81-14.65-5.46-3.71-3.65-5.57-8.35-5.57-14.11,0-6.88,2.66-12.06,7.95-15.5,5.31-3.44,13.24-5.15,23.82-5.15h7.95v-.9c0-4.22-1.29-7.47-3.88-9.82-2.6-2.32-6.26-3.48-10.98-3.48-2.68,0-5.45.41-8.35,1.24-2.87.84-5.85,2.1-8.9,3.77l-.24-11.32c3.61-1.53,7.14-2.63,10.62-3.34,3.49-.71,7-1.08,10.51-1.08,9.08,0,15.68,2.26,19.84,6.76,4.16,4.52,6.24,11.67,6.24,21.44h0ZM1123.32,463v20.16h14.53v11.69h-14.53v27.15c0,4.62.69,7.92,2.1,9.94,1.39,2.02,3.67,3.01,6.84,3.01.81,0,1.73-.08,2.74-.26,1.01-.18,2.08-.45,3.19-.81l.24,11.16c-1.7.47-3.47.84-5.29,1.06-1.8.24-3.61.37-5.39.37-7.14,0-12.23-1.81-15.34-5.44-3.09-3.6-4.64-9.63-4.64-18.06v-28.1h-11.91v-11.69h12.61v-15.03l14.87-5.13h0ZM1150.2,483.16h15.44v61.93h-15.44v-61.93h0ZM1150.2,455.43h15.44v15.4h-15.44v-15.4h0ZM1211.4,493.06c-4.68,0-8.48,1.91-11.42,5.76-2.91,3.83-4.38,8.88-4.38,15.11s1.47,11.22,4.38,15.05c2.93,3.81,6.74,5.72,11.42,5.72s8.58-1.89,11.48-5.66c2.87-3.79,4.32-8.82,4.32-15.11s-1.45-11.38-4.36-15.17c-2.89-3.81-6.72-5.7-11.44-5.7h0ZM1211.4,481.55c9.99,0,17.84,2.89,23.55,8.65,5.71,5.76,8.56,13.73,8.56,23.87s-2.88,18.06-8.6,23.89c-5.73,5.83-13.56,8.74-23.51,8.74s-17.76-2.91-23.45-8.72c-5.69-5.8-8.54-13.77-8.54-23.91s2.84-18.1,8.5-23.87c5.67-5.76,13.5-8.65,23.49-8.65h0ZM1314.53,508.21v36.88h-15.62v-33.48c0-5.72-.95-9.94-2.87-12.67-1.92-2.73-4.92-4.09-8.98-4.09-4.34,0-7.79,1.73-10.35,5.21-2.56,3.48-3.83,8.23-3.83,14.23v30.79h-15.44v-61.93h14.11v11.22c2.28-4.22,5.23-7.41,8.84-9.57,3.63-2.18,7.83-3.26,12.59-3.26,7.08,0,12.45,2.26,16.09,6.76,3.63,4.52,5.45,11.16,5.45,19.9h0Z"/>
  <path class="cls-7" d="M706.91,177.8l-52.97-64.54v64.54h-16.44v-96.23h10.12l52.97,64.54v-79.38h16.13v111.07h-9.8ZM895.02,148.55c0-9.12-6.01-13.69-18.02-13.69h-11.54c-21.61,0-32.41-9.22-32.41-27.66,0-17.1,10.75-25.64,32.25-25.64h37v14.98h-39.05c-9.38,0-14.07,3.65-14.07,10.95,0,8.26,4.69,12.39,14.07,12.39h11.7c24.14,0,36.21,9.6,36.21,28.81s-12.02,29.1-36.05,29.1h-41.11v-14.98h43c12.02,0,18.02-4.75,18.02-14.26h0ZM1026.38,81.56h37.95c34.68,0,52.02,15.46,52.02,46.39,0,33.23-17.23,49.85-51.7,49.85h-38.26v-96.23h0ZM1099.58,127.95c0-20.94-10.22-31.4-30.67-31.4h-26.09v66.12h26.09c20.45,0,30.67-11.57,30.67-34.72h0ZM1310.93,154.31c.95-.86,1.84-1.78,2.69-2.74.84-.96,1.69-1.97,2.53-3.03l14.23,7.49c-2.21,2.98-4.8,5.91-7.75,8.79-5.06,4.61-10.91,8.21-17.55,10.8-6.64,2.59-13.6,3.89-20.87,3.89s-14.55-1.32-21.19-3.96c-6.64-2.64-12.46-6.22-17.47-10.73-5.01-4.51-8.96-9.8-11.86-15.85-2.9-6.05-4.35-12.48-4.35-19.3s1.45-13.11,4.35-19.16c2.9-6.05,6.85-11.36,11.86-15.92,5.01-4.56,10.83-8.16,17.47-10.8,6.64-2.64,13.7-3.96,21.19-3.96s14.28,1.34,21.03,4.03c.95.38,1.87.77,2.77,1.15.9.38,1.77.82,2.61,1.3l-9.01,12.53c-.53-.19-1-.41-1.42-.65-.42-.24-.9-.46-1.42-.65-2.21-.96-4.56-1.66-7.04-2.09-2.48-.43-4.98-.65-7.51-.65-5.27,0-10.22.94-14.86,2.81-4.64,1.87-8.7,4.39-12.17,7.56-3.48,3.17-6.25,6.87-8.3,11.09-2.06,4.23-3.08,8.69-3.08,13.4s1.03,9.32,3.08,13.54c2.05,4.23,4.82,7.92,8.3,11.09,3.48,3.17,7.54,5.67,12.17,7.49,4.64,1.82,9.59,2.74,14.86,2.74s10.17-.91,14.7-2.74c4.53-1.83,8.54-4.32,12.02-7.49h0Z"/>
  <path class="cls-5" d="M773.96,114.03c7.84,0,14.19,5.79,14.19,12.93s-6.35,12.93-14.19,12.93-14.19-5.79-14.19-12.93,6.35-12.93,14.19-12.93h0Z"/>
  <path class="cls-3" d="M963.88,114.03c7.84,0,14.19,5.79,14.19,12.93s-6.35,12.93-14.19,12.93-14.19-5.79-14.19-12.93,6.35-12.93,14.19-12.93h0Z"/>
  <path class="cls-1" d="M1171.43,114.03c7.84,0,14.19,5.79,14.19,12.93s-6.35,12.93-14.19,12.93-14.19-5.79-14.19-12.93,6.35-12.93,14.19-12.93h0Z"/>
  <path class="cls-2" d="M120.1,736.74h16.89v-66h20.45v-15.47h-57.58v15.47h20.23v66h0ZM159.89,736.74h16.89v-29.86c0-.79.02-1.51.07-2.2.06-.66.15-1.31.26-1.91.57-2.92,1.87-5.2,3.85-6.83,2-1.63,4.58-2.46,7.71-2.48.93,0,1.76.06,2.5.14.74.1,1.46.22,2.17.34v-17.29c-.59-.12-1.13-.22-1.65-.28-.52-.06-1.15-.08-1.91-.08-1.35,0-2.72.22-4.15.71-1.43.46-2.8,1.21-4.15,2.19-1.33.99-2.56,2.28-3.65,3.83-1.11,1.55-2.02,3.43-2.72,5.6h-.44l-.67-11h-14.45c.11,1.67.2,3.47.26,5.36.07,1.91.11,4.01.15,6.33.02,2.3.04,4.9.04,7.78l-.11,39.65h0ZM246.14,701.8c.02-3.51-.37-6.79-1.17-9.85-.8-3.06-2.11-5.76-3.93-8.12-1.83-2.34-4.26-4.17-7.34-5.5-3.06-1.33-6.84-2.01-11.35-2.04-3.3.02-6.32.3-9.04.87-2.71.56-5.08,1.25-7.11,2.06-2.04.81-3.7,1.61-4.96,2.4l3.11,11.73c1.2-.79,2.61-1.49,4.24-2.16,1.61-.65,3.35-1.19,5.19-1.57,1.85-.4,3.71-.62,5.57-.62,2.08.02,3.76.26,5.06.75,1.31.48,2.32,1.11,3.02,1.87.7.78,1.19,1.61,1.45,2.48.26.89.39,1.71.37,2.52v.73c-4.82,0-9.19.46-13.1,1.37-3.91.93-7.26,2.32-10.06,4.17-2.8,1.87-4.96,4.21-6.46,7.05-1.5,2.84-2.26,6.19-2.28,10.01,0,2.38.41,4.65,1.2,6.81.78,2.16,1.94,4.09,3.45,5.78,1.52,1.71,3.35,3.04,5.52,4.03,2.17.99,4.63,1.49,7.39,1.51,3.24,0,6.21-.62,8.87-1.85,2.65-1.23,4.89-3.04,6.69-5.4h.33l1,5.92h15.23c-.22-1.11-.39-2.4-.52-3.91-.13-1.51-.22-3.14-.3-4.92-.06-1.75-.07-3.57-.07-5.44v-20.67h0ZM229.8,715.22c0,.54-.02,1.09-.07,1.61-.06.54-.15,1.05-.26,1.53-.39,1.27-1,2.4-1.85,3.43-.85,1.01-1.89,1.81-3.07,2.42-1.19.6-2.46.91-3.85.93-1.28,0-2.41-.26-3.41-.77-1-.53-1.8-1.29-2.37-2.34-.57-1.03-.87-2.34-.89-3.91.04-2.32.74-4.17,2.11-5.54,1.39-1.35,3.26-2.34,5.63-2.92,2.37-.58,5.04-.87,8.04-.85v6.41h0ZM259.59,736.74h16.89v-34.09c0-.87.04-1.69.11-2.48.07-.81.22-1.51.44-2.12.41-1.15.98-2.26,1.76-3.28.76-1.05,1.71-1.91,2.85-2.58,1.15-.66,2.5-1.01,4.06-1.03,2.04.02,3.69.56,4.95,1.63,1.26,1.07,2.17,2.56,2.76,4.47.57,1.91.87,4.15.85,6.71v32.76h16.9v-34.94c-.02-4.35-.5-8.12-1.48-11.32-.96-3.2-2.32-5.86-4.08-7.96-1.74-2.1-3.8-3.67-6.17-4.7-2.35-1.03-4.93-1.53-7.73-1.53-2.28.02-4.34.34-6.15.95-1.83.6-3.45,1.41-4.82,2.38-1.39.97-2.57,1.99-3.54,3.1-.96,1.09-1.72,2.13-2.28,3.12h-.33l-.78-8.22h-14.67c.11,2.66.22,5.54.32,8.66.07,3.12.13,6.51.13,10.2v40.26h0ZM321.61,733.84c2.09,1.23,4.63,2.24,7.65,3.02,3.02.78,6.32,1.19,9.91,1.21,5.19-.04,9.52-.87,13.01-2.52,3.46-1.63,6.08-3.89,7.82-6.77,1.76-2.88,2.63-6.19,2.63-9.93-.02-2.86-.54-5.42-1.56-7.68-1.02-2.28-2.59-4.27-4.74-6.01-2.15-1.73-4.95-3.2-8.37-4.45-2.2-.83-3.94-1.59-5.24-2.28-1.28-.69-2.21-1.39-2.74-2.1-.56-.73-.82-1.57-.8-2.52.02-1.47.58-2.62,1.69-3.45,1.11-.82,2.69-1.25,4.76-1.27,1.54.02,3.06.2,4.54.54,1.48.36,2.85.79,4.11,1.29,1.26.48,2.3.97,3.13,1.43l2.89-12.57c-1.7-.95-3.85-1.75-6.48-2.44-2.63-.68-5.54-1.03-8.74-1.07-3.37.02-6.41.5-9.13,1.47-2.7.97-5.04,2.34-6.97,4.09-1.94,1.75-3.43,3.81-4.45,6.17-1.04,2.36-1.55,4.94-1.57,7.74-.06,2.32.44,4.55,1.46,6.75,1.04,2.2,2.7,4.21,5,6.09,2.3,1.85,5.34,3.47,9.1,4.81,2.06.75,3.67,1.45,4.82,2.12,1.15.64,1.95,1.35,2.41,2.09.46.77.69,1.65.67,2.68.02,1.53-.54,2.7-1.69,3.55-1.15.85-3,1.27-5.54,1.29-1.7-.02-3.46-.24-5.3-.67-1.85-.44-3.58-.99-5.22-1.65-1.63-.65-2.97-1.33-4.04-2.04l-3,13.06h0ZM391.86,736.74v-45.58h10.78v-13.54h-10.89v-3.02c0-1.95.26-3.73.82-5.3.54-1.59,1.39-2.84,2.56-3.79,1.17-.93,2.67-1.41,4.52-1.43,1.11,0,2.11.08,3.02.24.89.16,1.7.36,2.43.6l.67-14.02c-1.17-.38-2.48-.69-3.95-.95-1.46-.24-3.11-.38-4.95-.38-1.69,0-3.41.18-5.19.56-1.76.38-3.5,1.03-5.19,1.89-1.7.87-3.28,2.01-4.74,3.47-1.59,1.63-2.89,3.53-3.87,5.7-1,2.18-1.74,4.47-2.21,6.89-.48,2.42-.7,4.84-.7,7.23v2.3h-7.23v13.54h7.23v45.58h16.89ZM435.1,738.07c2.91,0,5.74-.4,8.52-1.21,2.78-.81,5.37-2.01,7.78-3.67,2.41-1.63,4.54-3.71,6.37-6.2,1.83-2.5,3.28-5.44,4.32-8.83,1.04-3.38,1.56-7.23,1.57-11.52-.02-4.49-.69-8.58-2-12.29-1.32-3.71-3.19-6.89-5.63-9.59-2.43-2.7-5.35-4.78-8.73-6.24-3.39-1.45-7.17-2.2-11.32-2.22-4.41.02-8.39.75-11.97,2.2-3.56,1.47-6.61,3.57-9.17,6.29-2.56,2.74-4.54,6.02-5.91,9.87-1.37,3.85-2.06,8.16-2.07,12.95.02,4.78.74,9.07,2.17,12.81,1.41,3.77,3.39,6.95,5.93,9.57,2.56,2.64,5.52,4.63,8.93,6,3.41,1.37,7.09,2.06,11.1,2.07h.11ZM435.21,724.89c-2.37-.04-4.37-.81-6.02-2.34-1.63-1.53-2.87-3.63-3.7-6.29-.85-2.64-1.28-5.64-1.28-9.03,0-2.24.2-4.39.61-6.51.41-2.1,1.06-3.99,1.95-5.68.89-1.69,2.04-3.04,3.45-4.05,1.41-1.01,3.11-1.51,5.11-1.53,1.91.02,3.56.52,4.93,1.53,1.35,1.01,2.48,2.34,3.33,4.03.87,1.69,1.5,3.57,1.91,5.66.41,2.07.61,4.23.61,6.43,0,3.57-.44,6.69-1.32,9.33-.87,2.66-2.09,4.74-3.71,6.21-1.61,1.47-3.52,2.22-5.76,2.24h-.11ZM474.11,736.74h16.89v-29.86c0-.79.02-1.51.07-2.2.06-.66.15-1.31.26-1.91.57-2.92,1.87-5.2,3.85-6.83,2-1.63,4.58-2.46,7.71-2.48.93,0,1.76.06,2.5.14.74.1,1.46.22,2.17.34v-17.29c-.59-.12-1.13-.22-1.65-.28-.52-.06-1.15-.08-1.91-.08-1.35,0-2.72.22-4.15.71-1.43.46-2.8,1.21-4.15,2.19-1.33.99-2.56,2.28-3.65,3.83-1.11,1.55-2.02,3.43-2.73,5.6h-.44l-.67-11h-14.45c.11,1.67.2,3.47.26,5.36.07,1.91.11,4.01.15,6.33.02,2.3.04,4.9.04,7.78l-.11,39.65h0ZM516.24,736.74h16.45v-34.33c0-.78.04-1.59.13-2.4.09-.81.26-1.59.54-2.32.33-.99.84-2,1.52-2.98.68-.99,1.57-1.83,2.63-2.5,1.05-.67,2.29-1.03,3.74-1.05,1.81.02,3.3.55,4.46,1.59,1.17,1.05,2.04,2.5,2.6,4.35.55,1.85.83,4.03.83,6.51v33.12h16.45v-34.57c0-.75.06-1.53.15-2.34.11-.83.24-1.57.41-2.26.41-1.19.98-2.26,1.7-3.22.72-.97,1.59-1.73,2.63-2.3,1.04-.58,2.22-.87,3.56-.89,2.72.02,4.74,1.21,6.04,3.55,1.32,2.34,1.98,5.68,1.96,9.99v32.03h16.45v-34.82c-.02-4.41-.48-8.22-1.39-11.44-.93-3.22-2.21-5.9-3.85-8-1.67-2.1-3.59-3.65-5.82-4.66-2.22-1.03-4.65-1.53-7.28-1.53-1.98,0-3.83.26-5.54.77-1.71.5-3.3,1.23-4.8,2.13-1.33.85-2.59,1.88-3.76,3.08-1.18,1.21-2.3,2.6-3.35,4.17h-.22c-.78-2.07-1.89-3.87-3.32-5.38-1.43-1.51-3.11-2.68-5.08-3.51-1.94-.85-4.11-1.25-6.5-1.27-2.3.02-4.35.32-6.13.93-1.8.6-3.35,1.39-4.67,2.34-1.33.95-2.46,1.97-3.39,3.06-.93,1.09-1.68,2.11-2.26,3.1h-.33l-.67-8.1h-14.34c.11,2.66.22,5.54.32,8.66.07,3.12.13,6.51.13,10.2v40.26h0ZM628.72,736.74v-59.11h-16.89v59.11h16.89ZM620.27,669.89c1.96-.02,3.67-.46,5.09-1.33,1.42-.87,2.52-2.03,3.3-3.51.76-1.47,1.15-3.12,1.17-4.96-.04-1.87-.44-3.54-1.22-5.02-.76-1.47-1.84-2.62-3.22-3.47-1.41-.87-3.08-1.29-5-1.31-1.94.02-3.61.44-5.04,1.31-1.43.85-2.54,2-3.32,3.47-.8,1.47-1.18,3.14-1.2,5.02.02,1.83.41,3.49,1.17,4.96.76,1.47,1.83,2.64,3.22,3.51,1.41.87,3.04,1.31,4.95,1.33h.11ZM642.28,736.74h16.89v-34.09c0-.87.04-1.69.11-2.48.07-.81.22-1.51.44-2.12.41-1.15.98-2.26,1.76-3.28.76-1.05,1.7-1.91,2.85-2.58,1.15-.66,2.5-1.01,4.06-1.03,2.04.02,3.69.56,4.95,1.63,1.26,1.07,2.17,2.56,2.76,4.47.57,1.91.87,4.15.85,6.71v32.76h16.89v-34.94c-.02-4.35-.5-8.12-1.48-11.32-.96-3.2-2.31-5.86-4.08-7.96-1.74-2.1-3.8-3.67-6.17-4.7-2.35-1.03-4.93-1.53-7.73-1.53-2.28.02-4.34.34-6.15.95-1.83.6-3.45,1.41-4.82,2.38-1.39.97-2.58,1.99-3.54,3.1-.96,1.09-1.72,2.13-2.28,3.12h-.33l-.78-8.22h-14.67c.11,2.66.22,5.54.31,8.66.07,3.12.13,6.51.13,10.2v40.26h0ZM758.87,695.27c0-2.92.02-5.48.07-7.64.04-2.18.09-4.07.15-5.68.07-1.61.15-3.06.22-4.33h-14.67l-.56,7.01h-.22c-.93-1.63-2.08-3.06-3.45-4.31-1.37-1.25-3-2.24-4.89-2.94-1.89-.7-4.08-1.07-6.56-1.09-3.39.02-6.56.75-9.52,2.2-2.98,1.43-5.6,3.53-7.85,6.23-2.28,2.72-4.04,6-5.33,9.83-1.28,3.83-1.94,8.14-1.96,12.93.02,4.25.59,8.12,1.7,11.63,1.13,3.53,2.71,6.55,4.76,9.11,2.04,2.56,4.46,4.53,7.28,5.92,2.8,1.39,5.89,2.1,9.26,2.12,3.13-.02,5.95-.69,8.47-2,2.5-1.31,4.58-3.18,6.2-5.62h.22v3.75c-.02,3.65-.65,6.63-1.87,8.93-1.24,2.3-2.91,3.99-5.02,5.08-2.13,1.07-4.54,1.61-7.22,1.59-2.17-.02-4.22-.24-6.19-.66-1.96-.44-3.78-1.01-5.41-1.67-1.63-.68-3.02-1.39-4.19-2.13l-3.33,14.02c1.65.97,3.52,1.79,5.63,2.46,2.11.66,4.37,1.15,6.74,1.49,2.37.34,4.76.52,7.19.52,2.69.02,5.33-.2,7.95-.65,2.63-.44,5.13-1.19,7.52-2.26,2.39-1.07,4.56-2.52,6.54-4.35,2.06-1.97,3.71-4.31,4.93-7.01,1.22-2.68,2.09-5.66,2.63-8.95.54-3.31.8-6.85.78-10.64v-32.88h0ZM741.98,710.39c0,.81-.04,1.65-.11,2.52-.07.89-.22,1.69-.44,2.44-.37,1.43-.98,2.68-1.83,3.79-.85,1.11-1.89,1.97-3.11,2.62-1.2.62-2.55.95-4.06.97-2.34-.02-4.34-.72-5.97-2.11-1.63-1.37-2.89-3.24-3.74-5.6-.85-2.36-1.3-5.04-1.3-8,.02-3.59.52-6.65,1.5-9.15.98-2.5,2.3-4.39,3.96-5.7,1.67-1.29,3.56-1.95,5.65-1.95,1.56,0,2.95.34,4.17,1.03,1.22.66,2.24,1.61,3.08,2.82.83,1.21,1.46,2.62,1.87,4.25.11.54.2,1.11.26,1.69.06.58.07,1.15.07,1.69v8.7h0ZM797.22,666.5v11.12h-7.22v13.54h7.22v24.3c0,4.17.39,7.7,1.17,10.58.78,2.88,1.94,5.2,3.5,6.95,1.41,1.53,3.21,2.76,5.39,3.67,2.18.93,4.65,1.39,7.39,1.41,2.37-.02,4.5-.16,6.41-.46,1.91-.3,3.39-.67,4.48-1.11l-.11-13.9c-.5.12-1,.22-1.46.28-.48.08-1,.12-1.56.16-.56.02-1.22.04-1.98.04-1.65,0-2.98-.36-3.95-1.11-.98-.74-1.68-1.89-2.11-3.42-.41-1.53-.63-3.49-.61-5.86v-21.52h12.11v-13.54h-12.11v-16.08l-16.56,4.96h0ZM835.68,736.74h16.89v-35.06c0-.69.04-1.37.11-2.1.07-.7.22-1.33.44-1.89.41-1.15.98-2.22,1.74-3.2.76-.99,1.7-1.77,2.82-2.38,1.11-.62,2.41-.93,3.89-.95,2.11.02,3.8.56,5.1,1.67,1.29,1.09,2.22,2.6,2.81,4.55.59,1.95.89,4.23.87,6.83v32.52h16.9v-34.45c-.02-4.47-.5-8.34-1.45-11.61-.96-3.28-2.3-5.98-4.02-8.1-1.7-2.14-3.72-3.71-6.02-4.73-2.3-1.05-4.82-1.55-7.52-1.55-1.57,0-3.09.2-4.59.6-1.5.4-2.89.97-4.19,1.69-2.67,1.45-4.89,3.5-6.67,6.16h-.22v-33.85h-16.89v85.83h0ZM948.82,713.05c.13-.75.24-1.77.37-3.06.11-1.29.19-2.72.19-4.31,0-2.94-.28-5.84-.83-8.68-.56-2.84-1.45-5.52-2.63-8.02-1.2-2.5-2.74-4.71-4.65-6.63-1.91-1.91-4.19-3.41-6.86-4.49-2.67-1.11-5.76-1.65-9.26-1.67-3.76.02-7.11.65-10.06,1.83-2.96,1.21-5.54,2.86-7.72,4.96-2.17,2.1-3.98,4.49-5.41,7.17-1.44,2.7-2.5,5.54-3.21,8.54-.7,3-1.06,6.02-1.06,9.05.02,6.23,1.17,11.61,3.43,16.12,2.26,4.49,5.54,7.96,9.86,10.4,4.32,2.44,9.56,3.69,15.73,3.71,3.69,0,7.19-.3,10.5-.93,3.32-.6,6.38-1.55,9.17-2.82l-2.22-12.45c-2.26.85-4.61,1.49-7.04,1.91-2.44.42-5.09.62-7.97.62-1.98,0-3.87-.22-5.65-.69-1.78-.46-3.37-1.17-4.76-2.09-1.41-.93-2.54-2.12-3.41-3.55-.85-1.43-1.37-3.1-1.52-5.04l35.01.12h0ZM913.7,700.35c.11-1.23.37-2.54.82-3.91.44-1.37,1.09-2.68,1.93-3.89.83-1.23,1.89-2.22,3.19-2.98,1.28-.77,2.84-1.17,4.63-1.19,1.91.02,3.48.44,4.71,1.25,1.24.83,2.2,1.85,2.89,3.1.7,1.25,1.19,2.56,1.46,3.91.28,1.35.41,2.6.39,3.71h-20.01ZM978.83,733.84c2.09,1.23,4.63,2.24,7.65,3.02,3.02.78,6.32,1.19,9.91,1.21,5.19-.04,9.52-.87,13.01-2.52,3.46-1.63,6.07-3.89,7.81-6.77,1.76-2.88,2.63-6.19,2.63-9.93-.02-2.86-.54-5.42-1.55-7.68-1.02-2.28-2.59-4.27-4.74-6.01-2.15-1.73-4.95-3.2-8.38-4.45-2.2-.83-3.94-1.59-5.24-2.28-1.28-.69-2.21-1.39-2.74-2.1-.56-.73-.82-1.57-.8-2.52.02-1.47.58-2.62,1.69-3.45,1.11-.82,2.68-1.25,4.76-1.27,1.54.02,3.06.2,4.54.54,1.48.36,2.85.79,4.11,1.29,1.26.48,2.3.97,3.13,1.43l2.89-12.57c-1.7-.95-3.85-1.75-6.48-2.44-2.63-.68-5.54-1.03-8.74-1.07-3.37.02-6.41.5-9.13,1.47-2.7.97-5.04,2.34-6.96,4.09-1.95,1.75-3.43,3.81-4.45,6.17-1.04,2.36-1.56,4.94-1.58,7.74-.06,2.32.45,4.55,1.46,6.75,1.04,2.2,2.7,4.21,5,6.09,2.3,1.85,5.34,3.47,9.1,4.81,2.06.75,3.67,1.45,4.82,2.12,1.15.64,1.94,1.35,2.41,2.09.46.77.69,1.65.67,2.68.02,1.53-.54,2.7-1.69,3.55-1.15.85-3,1.27-5.54,1.29-1.7-.02-3.46-.24-5.3-.67-1.85-.44-3.57-.99-5.22-1.65-1.63-.65-2.96-1.33-4.04-2.04l-3,13.06h0ZM1047.08,650.91h-16.89v85.83h16.89v-18.38l4.22-5.92,13.23,24.3h20.78l-22.23-35.18,19.45-23.94h-20.34l-11,17.89c-.67,1.09-1.33,2.24-1.98,3.42-.67,1.21-1.3,2.44-1.91,3.71h-.22v-51.74h0ZM1108.43,736.74v-59.11h-16.89v59.11h16.89ZM1099.99,669.89c1.96-.02,3.67-.46,5.09-1.33,1.43-.87,2.52-2.03,3.3-3.51.76-1.47,1.15-3.12,1.17-4.96-.04-1.87-.44-3.54-1.22-5.02-.76-1.47-1.83-2.62-3.22-3.47-1.41-.87-3.08-1.29-5-1.31-1.94.02-3.61.44-5.04,1.31-1.43.85-2.54,2-3.32,3.47-.8,1.47-1.18,3.14-1.2,5.02.02,1.83.41,3.49,1.17,4.96.76,1.47,1.83,2.64,3.22,3.51,1.41.87,3.04,1.31,4.95,1.33h.11ZM1122,736.74h16.89v-85.83h-16.89v85.83h0ZM1152.45,736.74h16.89v-85.83h-16.89v85.83h0ZM1205.36,736.74h16.89v-85.83h-16.89v85.83h0ZM1281.05,701.8c.02-3.51-.37-6.79-1.17-9.85-.8-3.06-2.11-5.76-3.93-8.12-1.83-2.34-4.26-4.17-7.34-5.5-3.06-1.33-6.83-2.01-11.35-2.04-3.3.02-6.32.3-9.04.87-2.71.56-5.08,1.25-7.11,2.06-2.04.81-3.7,1.61-4.96,2.4l3.11,11.73c1.2-.79,2.61-1.49,4.24-2.16,1.61-.65,3.35-1.19,5.19-1.57,1.85-.4,3.71-.62,5.57-.62,2.08.02,3.76.26,5.06.75,1.31.48,2.32,1.11,3.02,1.87.7.78,1.19,1.61,1.45,2.48.26.89.39,1.71.37,2.52v.73c-4.82,0-9.19.46-13.1,1.37-3.91.93-7.26,2.32-10.06,4.17-2.8,1.87-4.96,4.21-6.46,7.05-1.5,2.84-2.26,6.19-2.28,10.01,0,2.38.41,4.65,1.2,6.81.78,2.16,1.95,4.09,3.45,5.78,1.52,1.71,3.35,3.04,5.52,4.03,2.17.99,4.63,1.49,7.39,1.51,3.24,0,6.21-.62,8.87-1.85,2.65-1.23,4.89-3.04,6.69-5.4h.33l1,5.92h15.23c-.22-1.11-.39-2.4-.52-3.91-.13-1.51-.22-3.14-.3-4.92-.06-1.75-.07-3.57-.07-5.44v-20.67h0ZM1264.71,715.22c0,.54-.02,1.09-.07,1.61-.06.54-.15,1.05-.26,1.53-.39,1.27-1,2.4-1.85,3.43-.85,1.01-1.89,1.81-3.07,2.42-1.19.6-2.46.91-3.86.93-1.28,0-2.41-.26-3.41-.77-1-.53-1.8-1.29-2.37-2.34-.57-1.03-.87-2.34-.89-3.91.04-2.32.74-4.17,2.11-5.54,1.39-1.35,3.26-2.34,5.63-2.92,2.37-.58,5.04-.87,8.04-.85v6.41h0ZM1294.5,736.74h16.89v-34.09c0-.87.04-1.69.11-2.48.07-.81.22-1.51.45-2.12.41-1.15.98-2.26,1.76-3.28.76-1.05,1.71-1.91,2.85-2.58,1.15-.66,2.5-1.01,4.06-1.03,2.04.02,3.69.56,4.94,1.63,1.26,1.07,2.17,2.56,2.76,4.47.57,1.91.87,4.15.85,6.71v32.76h16.9v-34.94c-.02-4.35-.5-8.12-1.48-11.32-.96-3.2-2.32-5.86-4.08-7.96-1.74-2.1-3.8-3.67-6.17-4.7-2.35-1.03-4.93-1.53-7.73-1.53-2.28.02-4.33.34-6.15.95-1.83.6-3.45,1.41-4.82,2.38-1.39.97-2.57,1.99-3.54,3.1-.96,1.09-1.72,2.13-2.28,3.12h-.33l-.78-8.22h-14.67c.11,2.66.22,5.54.32,8.66.07,3.12.13,6.51.13,10.2v40.26h0ZM1395.42,650.91v32.04h-.22c-1.24-2.01-3.09-3.63-5.54-4.82-2.46-1.19-5.39-1.81-8.8-1.83-3.28,0-6.37.73-9.3,2.12-2.93,1.41-5.52,3.47-7.78,6.16-2.28,2.7-4.04,5.98-5.34,9.87-1.28,3.89-1.93,8.3-1.93,13.28.02,4.61.63,8.76,1.82,12.49,1.18,3.73,2.85,6.91,4.96,9.57,2.11,2.66,4.58,4.7,7.37,6.12,2.82,1.43,5.84,2.14,9.08,2.16,2.35,0,4.61-.38,6.78-1.13,2.17-.75,4.13-1.85,5.89-3.3,1.76-1.47,3.21-3.3,4.34-5.48h.33l.67,8.58h15c-.07-1.35-.15-2.96-.22-4.86-.06-1.87-.11-3.91-.15-6.1-.06-2.18-.07-4.41-.07-6.69v-68.18h-16.89ZM1395.42,710.51c0,.73-.02,1.45-.07,2.14-.06.71-.15,1.37-.26,1.97-.35,1.75-.98,3.28-1.93,4.59-.93,1.33-2.07,2.36-3.45,3.1-1.37.75-2.87,1.11-4.52,1.13-2.35-.02-4.39-.69-6.11-2-1.72-1.31-3.06-3.18-4-5.6-.94-2.42-1.43-5.28-1.44-8.6,0-2.34.24-4.53.72-6.55.5-2.04,1.22-3.81,2.19-5.34.98-1.53,2.2-2.74,3.65-3.61,1.46-.87,3.17-1.29,5.11-1.31,1.74.02,3.3.42,4.67,1.21,1.35.81,2.48,1.87,3.37,3.2.89,1.35,1.52,2.86,1.85,4.53.11.54.17,1.11.2,1.69.02.58.02,1.15.02,1.69v7.74h0Z"/>
  <path class="cls-2" d="M1422.76,733.84c2.09,1.23,4.63,2.24,7.65,3.02,3.02.78,6.32,1.19,9.91,1.21,5.19-.04,9.52-.87,13.01-2.52,3.46-1.63,6.07-3.89,7.82-6.77,1.76-2.88,2.63-6.19,2.63-9.93-.02-2.86-.54-5.42-1.56-7.68-1.02-2.28-2.59-4.27-4.74-6.01-2.15-1.73-4.95-3.2-8.37-4.45-2.2-.83-3.95-1.59-5.24-2.28-1.28-.69-2.21-1.39-2.74-2.1-.55-.73-.82-1.57-.8-2.52.02-1.47.57-2.62,1.69-3.45,1.11-.82,2.69-1.25,4.76-1.27,1.54.02,3.06.2,4.54.54,1.48.36,2.85.79,4.11,1.29,1.26.48,2.3.97,3.13,1.43l2.89-12.57c-1.7-.95-3.85-1.75-6.48-2.44-2.63-.68-5.54-1.03-8.74-1.07-3.37.02-6.41.5-9.13,1.47-2.71.97-5.04,2.34-6.97,4.09-1.94,1.75-3.43,3.81-4.45,6.17-1.04,2.36-1.55,4.94-1.57,7.74-.06,2.32.44,4.55,1.46,6.75,1.04,2.2,2.71,4.21,5,6.09,2.3,1.85,5.33,3.47,9.1,4.81,2.06.75,3.67,1.45,4.82,2.12,1.15.64,1.94,1.35,2.41,2.09.46.77.69,1.65.67,2.68.02,1.53-.54,2.7-1.68,3.55-1.15.85-3,1.27-5.54,1.29-1.7-.02-3.46-.24-5.3-.67-1.85-.44-3.58-.99-5.22-1.65-1.63-.65-2.96-1.33-4.04-2.04l-3,13.06h0ZM1512.91,721.75c-1.28.6-2.71,1.09-4.3,1.43-1.59.32-3.37.5-5.37.5s-4-.36-5.8-1.07c-1.8-.72-3.37-1.79-4.74-3.18-1.35-1.41-2.41-3.16-3.19-5.24-.76-2.07-1.15-4.47-1.17-7.19-.02-3.24.56-6.11,1.74-8.6,1.19-2.48,2.87-4.41,5.08-5.82,2.18-1.39,4.76-2.11,7.74-2.13,2.2.02,4.09.2,5.63.54,1.56.34,2.82.77,3.82,1.27l2.67-13.66c-1.2-.48-2.5-.91-3.93-1.25-1.44-.34-2.91-.6-4.45-.77-1.52-.18-3.02-.28-4.52-.28-5.06.02-9.52.85-13.39,2.48-3.87,1.63-7.13,3.87-9.74,6.75-2.63,2.88-4.63,6.21-5.97,9.99-1.33,3.79-2.02,7.86-2.02,12.21.04,6.23,1.22,11.62,3.56,16.14,2.35,4.53,5.67,8.02,9.97,10.48,4.3,2.46,9.37,3.69,15.26,3.73,2.17,0,4.21-.12,6.11-.38,1.93-.24,3.65-.56,5.19-.99,1.54-.4,2.8-.89,3.82-1.41l-2-13.54h0ZM1569.92,701.8c.02-3.51-.37-6.79-1.17-9.85-.8-3.06-2.11-5.76-3.93-8.12-1.83-2.34-4.26-4.17-7.34-5.5-3.06-1.33-6.84-2.01-11.35-2.04-3.3.02-6.32.3-9.04.87-2.71.56-5.08,1.25-7.11,2.06-2.04.81-3.7,1.61-4.96,2.4l3.11,11.73c1.2-.79,2.61-1.49,4.24-2.16,1.61-.65,3.35-1.19,5.19-1.57,1.85-.4,3.71-.62,5.57-.62,2.08.02,3.76.26,5.06.75,1.31.48,2.32,1.11,3.02,1.87.7.78,1.19,1.61,1.45,2.48.26.89.39,1.71.37,2.52v.73c-4.82,0-9.19.46-13.1,1.37-3.91.93-7.26,2.32-10.06,4.17-2.8,1.87-4.96,4.21-6.46,7.05-1.5,2.84-2.26,6.19-2.28,10.01,0,2.38.41,4.65,1.2,6.81.78,2.16,1.94,4.09,3.45,5.78,1.52,1.71,3.35,3.04,5.52,4.03,2.17.99,4.63,1.49,7.39,1.51,3.24,0,6.21-.62,8.87-1.85,2.65-1.23,4.89-3.04,6.69-5.4h.33l1,5.92h15.23c-.22-1.11-.39-2.4-.52-3.91-.13-1.51-.22-3.14-.3-4.92-.06-1.75-.07-3.57-.07-5.44v-20.67h0ZM1553.59,715.22c0,.54-.02,1.09-.07,1.61-.06.54-.15,1.05-.26,1.53-.39,1.27-1,2.4-1.85,3.43-.85,1.01-1.89,1.81-3.07,2.42-1.19.6-2.46.91-3.85.93-1.28,0-2.41-.26-3.41-.77-1-.53-1.8-1.29-2.37-2.34-.57-1.03-.87-2.34-.89-3.91.04-2.32.74-4.17,2.11-5.54,1.39-1.35,3.26-2.34,5.63-2.92,2.37-.58,5.04-.87,8.04-.85v6.41h0ZM1583.37,760.55h16.89v-29.25h.22c.81,1.31,1.93,2.46,3.3,3.47,1.37,1.03,2.96,1.81,4.78,2.42,1.83.58,3.85.87,6.04.89,2.45,0,4.85-.4,7.23-1.23,2.37-.83,4.59-2.06,6.69-3.73,2.11-1.65,3.97-3.75,5.58-6.27,1.59-2.52,2.87-5.5,3.78-8.89.93-3.41,1.39-7.25,1.41-11.56-.02-4.71-.65-8.95-1.85-12.65-1.2-3.73-2.87-6.87-4.96-9.47-2.11-2.6-4.5-4.57-7.21-5.92-2.68-1.37-5.54-2.06-8.54-2.06-3.96.02-7.46.83-10.52,2.46-3.06,1.63-5.58,3.99-7.6,7.09h-.22l-.78-8.22h-14.67c.11,2.78.22,5.8.32,9.09.07,3.31.13,6.87.13,10.74v63.1h0ZM1600.27,703.25c0-.54.02-1.11.07-1.67.06-.56.15-1.11.26-1.59.39-1.83,1.07-3.45,2.06-4.84.98-1.39,2.17-2.48,3.56-3.26,1.39-.81,2.89-1.19,4.5-1.21,2.52.02,4.63.77,6.33,2.2,1.68,1.43,2.96,3.41,3.83,5.88.85,2.48,1.28,5.3,1.28,8.48,0,3.36-.46,6.29-1.39,8.78-.93,2.5-2.26,4.43-4,5.8-1.72,1.37-3.82,2.08-6.28,2.1-1.65-.02-3.13-.4-4.48-1.15-1.35-.77-2.5-1.79-3.45-3.1-.93-1.29-1.57-2.78-1.96-4.45-.11-.6-.21-1.21-.26-1.85-.06-.63-.07-1.29-.07-2.01v-8.1h0ZM1698.19,713.05c.13-.75.24-1.77.37-3.06.11-1.29.18-2.72.18-4.31,0-2.94-.28-5.84-.83-8.68-.56-2.84-1.44-5.52-2.63-8.02-1.2-2.5-2.74-4.71-4.65-6.63-1.91-1.91-4.19-3.41-6.86-4.49-2.67-1.11-5.76-1.65-9.26-1.67-3.76.02-7.11.65-10.06,1.83-2.96,1.21-5.54,2.86-7.72,4.96-2.17,2.1-3.98,4.49-5.41,7.17-1.44,2.7-2.5,5.54-3.2,8.54-.71,3-1.06,6.02-1.06,9.05.02,6.23,1.16,11.61,3.43,16.12,2.26,4.49,5.54,7.96,9.85,10.4,4.32,2.44,9.56,3.69,15.73,3.71,3.69,0,7.19-.3,10.5-.93,3.32-.6,6.37-1.55,9.17-2.82l-2.22-12.45c-2.26.85-4.61,1.49-7.04,1.91-2.44.42-5.09.62-7.97.62-1.98,0-3.87-.22-5.65-.69-1.78-.46-3.37-1.17-4.76-2.09-1.41-.93-2.54-2.12-3.41-3.55-.85-1.43-1.37-3.1-1.52-5.04l35.01.12h0ZM1663.07,700.35c.11-1.23.37-2.54.81-3.91.44-1.37,1.09-2.68,1.93-3.89.83-1.23,1.89-2.22,3.19-2.98,1.28-.77,2.83-1.17,4.63-1.19,1.91.02,3.48.44,4.71,1.25,1.24.83,2.2,1.85,2.89,3.1.7,1.25,1.19,2.56,1.46,3.91.28,1.35.41,2.6.39,3.71h-20.01Z"/>
</svg>