<?xml version="1.0" encoding="UTF-8"?>
<svg id="Layer_1" data-name="Layer 1" xmlns="http://www.w3.org/2000/svg" viewBox="0 0 1700.15 820.95">
  <defs>
    <style>
      .cls-1 {
        fill: #fff;
      }
    </style>
  </defs>
  <path class="cls-1" d="M511.35,749.19c.22,10.53,7.37,17.55,17.7,17.55,8.8,0,16.37-5.55,19.88-13.86s4.9-17.24,5.98-26.19c-3.83,5.33-8.06,8.99-14.08,10.76-16.39,4.84-34.26-.7-41.06-16.79-8.13-19.22.28-44.81,19.76-50.33,7.03-1.99,14.32-2.19,21.47-.6,15.47,3.44,23.56,16.98,26.03,32.26,4.56,28.16-2.05,73.6-34.19,75.68-6.29.41-12.6-.14-18.46-2.5-10.44-4.22-16.47-14.35-16.45-25.9l13.44-.08ZM528.63,727.37c8.42.6,16.86-2.25,21.04-9.47,3.37-5.81,3.29-12.83,2.63-19.32-1.06-10.44-9-17.29-19.27-17.79-9.6-.46-17.95,4.54-21.01,13.93-2.04,6.25-2.06,13.21-.25,19.52,2.25,7.85,8.4,12.52,16.86,13.12Z"/>
  <path class="cls-1" d="M736.36,741.58c-3.43,20.12-14.08,36.53-35.67,36.29-35.19-.39-39.28-45.11-34.09-74.04,3.67-20.46,14.98-36.22,36.85-34.97,19.34,1.1,29.53,14.3,32.83,32.79,2.37,13.29,2.35,26.62.08,39.94ZM710.24,763.35c6.25-3.37,9.69-9.71,11.15-16.54,3.51-16.42,3.54-40.39-2.8-55.79-2.74-6.65-8.82-9.99-15.81-10.2-13.83-.42-19.98,10.63-22.07,23.78-2.48,15.52-2.75,37.4,4.18,51.1,4.75,9.39,15.68,12.86,25.35,7.65Z"/>
  <path class="cls-1" d="M652.41,704.86c4.1,29.25-.67,73.04-35.88,73.01-35.54-.02-39.72-45.71-34.19-74.85,3.74-19.74,14.5-34.72,35.61-34.22,21.29.51,31.65,15.91,34.47,36.06ZM623.16,764.56c15.69-5.54,16.22-28.44,16.04-44.69-.11-9.59-1.24-18.91-4.52-27.7-2.66-7.14-8.64-11.11-16.11-11.36-13.44-.45-19.74,9.61-22.02,22.43-2.82,15.82-3.19,38.64,4.01,52.61,4.28,8.3,13.34,11.98,22.6,8.71Z"/>
  <path class="cls-1" d="M997.04,777.86c-35.55.43-39.95-43.67-35.21-72.67,3.29-20.14,13.91-36.97,35.57-36.36,9.29.26,18.12,3.11,24.28,10.23,13.2,15.27,13.51,44.09,9.9,63.88-3.44,18.85-13.85,34.68-34.54,34.93ZM1002.75,764.66c7.44-2.52,11.98-9.2,13.81-16.58,3.93-15.89,3.69-39.75-1.71-55.26-2.65-7.63-8.85-11.89-16.82-12.04-14.04-.25-19.95,11.22-21.99,24.6-2.35,15.4-2.56,37.2,4.5,50.61,4.26,8.09,13.09,11.75,22.21,8.66Z"/>
  <path class="cls-1" d="M875.96,774.97c.46-9.41,2.31-18.89,7.42-26.98,4.31-6.8,10.85-11.31,17.65-15.46l23.92-14.59c6.2-3.78,9.47-10.28,9.59-17.25.22-12.58-9.2-20.7-21.4-20.16-8.97.4-16.7,4.6-19.35,13.75l-1.9,12.13h-13.45c.24-16.81,6.24-31.54,22.48-36.17,8.91-2.54,18.29-2.34,27.18.1,7.08,1.94,12.22,6.39,15.98,12.39,9.44,15.05,5.59,33.85-9.16,43.78l-22.01,13.11c-10.01,5.97-18.64,10.53-22.24,22.75h57.99s-.05,12.6-.05,12.6h-72.65Z"/>
  <path class="cls-1" d="M1167.09,777.48c-19.35,1.43-36.7-9-37.75-29.55h13.87c.77,9.4,7.07,16.11,16.2,17.49,6.56.99,13.9.8,19.36-3.62,9.53-7.71,12.06-22.08,6.13-32.77-4.14-7.47-12.4-10.78-20.52-10.69-8.03.08-14.77,3.35-19.5,10.03l-11.69-.63,8.06-57.15h55.06s.03,12.92.03,12.92h-45.14s-4.47,29.38-4.47,29.38c6.18-4.54,13.08-6.66,21.11-6.56,14.16.18,27.71,7.95,32.5,21.76,5.11,14.74.37,31.73-11.26,41.93-6.15,5.39-14.06,6.87-21.98,7.46Z"/>
  <path class="cls-1" d="M784.03,699.85l-24.92-.11-.02-10.15c16.79-2.04,25.03-2.85,28.6-20.3l10.54.06v105.5s-14.2.14-14.2.14v-75.14Z"/>
  <path class="cls-1" d="M1079.48,699.84l-24.95-.09.02-10.15c16.6-2.05,25.08-2.68,28.56-20.25l10.59.04v105.45s-14.23.17-14.23.17v-75.16Z"/>
  <rect class="cls-1" x="845.78" y="758.81" width="15.46" height="16.15"/>
  <rect class="cls-1" x="845.78" y="696.63" width="15.46" height="16.13"/>
  <path class="cls-1" d="M921.01,419.8c-2.52,35.04-25.28,58.27-57.92,68.7-45.38,14.5-88.37,6.44-128.63-18.57l-.07,19.84-57.6.02v-95.56s51.44-.09,51.44-.09c7.28,12.16,17.2,21.12,29.4,28.17,20.97,11.75,45.63,15.41,69.19,10.43,6.11-1.29,15.01-5.81,15.22-9.9s-12.63-9.45-19.09-11.45l-34.22-10.58-48.52-14.89c-16.92-5.19-31.96-14.23-44.36-26.75-13.67-13.79-21.09-31.72-21.02-51.13.17-44.17,28.07-72.08,70.47-79.76,37.42-6.77,79.28-.07,112.09,20.58l-.06-16.22h55.11s.02,89.47.02,89.47l-51.24.03c-3.91-5.44-8.08-10.08-13.31-14.4-21.29-17.33-49.56-25.5-76.83-23.2-7.54.63-17.36,4.41-17.81,10.08-.49,6.18,8.98,11.08,16.09,13.15l70.34,20.51c14.52,4.23,27.98,9.36,40.76,17.31,27.1,16.87,42.93,41.56,40.58,74.2Z"/>
  <polygon class="cls-1" points="659.41 490.09 494.4 490.1 494.39 426.9 532.26 426.87 532.26 291.66 494.39 291.64 494.4 228.43 659.4 228.43 659.41 291.64 621.53 291.66 621.53 426.87 659.4 426.91 659.41 490.09"/>
  <path class="cls-1" d="M1150.04,475.18c-35.83,21.06-83.01,24.66-123.11,15.9-15.17-3.31-28.98-8.66-42.16-16.58-31.41-18.88-49.25-49.59-54.6-85.67-4.48-30.2-2.1-64.3,9.91-92.56,15.56-36.61,47.07-58.74,85.59-67.02,22.71-4.88,45.68-5.7,68.7-2.41,49.6,7.08,90.19,35.9,105.4,84.55,10.24,32.77,10.06,74.34-1.99,106.59-9.05,24.22-25.45,44.1-47.73,57.2ZM1082.54,429.3c18.85-2.74,25.14-20.9,27.25-38.48,2.39-19.9,2.67-39.69.17-59.53-2.42-19.21-9.87-38.59-30.51-40.42-9.03-.8-17.9-.66-26.82.73-17.97,2.79-23.86,19.04-25.73,36.24-2.11,19.39-2.26,38.62-.53,58.1,1.77,19.9,7.76,40.74,28.94,43.48,8.95,1.16,17.85,1.24,27.23-.12Z"/>
  <path class="cls-1" d="M844.02,199.45l-8.91.19-.04-12.68c-23.79-.57-46.78-3.35-69.69-9.07l-9.55,21.69-9.42-.08,10.19-23.89c-17.23-4.67-33.53-10.81-50.03-18.89-12.46,13.7-23.72,27.99-34.87,42.86l-10.81-.14c11.72-16.25,23.8-31.41,37.4-46.88-10.76-5.97-20.96-12.17-31.14-19.79-24.29,18.74-45.36,41.03-62.71,66.64-3.62.25-7.01.26-10.51-.22,33.18-50.86,80.46-90.02,136.2-112.83,67.79-27.74,143.96-29.17,212.73-3.94,60.1,22.05,111.24,62.9,146.43,116.93l-10.5.22c-17.27-25.5-38.24-47.82-62.74-66.78-11.15,8.29-22.76,15.2-34.56,21.56,12.81,14.73,24.19,29.04,35.75,44.97l-10.77.25c-10.64-14.24-21.44-27.75-33.27-41.2-16.56,7.83-33.4,13.89-51.06,18.47l9.67,22.6-9.47.18-9.01-20.6c-23.24,5.25-45.93,7.82-69.39,7.98l.09,12.47ZM909.74,81.57c-44.51-10.85-91.11-11.04-136.41.04,35.65,28.47,100.47,28.69,136.41-.04ZM772.59,92.23l-9.79-7.85c-32.02,9.14-61.47,23.63-88.35,42.9,9.83,6.93,19.77,13.08,30.12,18.54,19.83-21.12,44.21-37.97,68.02-53.59ZM975.37,147.56c11.98-6.36,22.63-12.65,33.27-20.31-27.06-19.4-56.54-33.82-88.42-42.92l-12.04,9.49c23.94,15.96,47.2,32.24,67.19,53.73ZM760.55,167.64c4.64-9.07,9.24-17.04,14.46-25.38,8.23-12.45,16.51-24.44,25.67-36.58-6.86-2.18-13.22-4.95-19.74-8.25-16.6,10.46-31.91,21.4-47.07,33.3-7.5,6.17-14.23,12.26-21.01,19.25,15.79,7.57,31.45,13.14,47.69,17.67ZM966.87,151.62c-7.75-8.38-15.96-15.58-24.92-22.79-13.78-10.72-27.71-20.52-42.53-30.04-6.89,3.29-13.42,5.89-20.97,8.01l24.92,35.81,14.8,26.1c16.88-4.23,32.83-9.93,48.69-17.1ZM835.09,177.98v-66.25c-8.7-.51-16.8-1.62-25.24-3.53-9.44,12.43-18.22,24.88-26.78,37.91-4.98,7.88-9.46,15.45-13.64,23.73,22.18,5.1,43.82,7.88,65.67,8.12ZM909.31,170.83l-12.6-22.26c-8.85-13.46-17.8-26.45-27.64-39.38-8.77,1.54-16.89,2.37-25.11,2.72v66.19c21.99-.15,43.51-2.49,65.35-7.27Z"/>
  <path class="cls-1" d="M843.93,529.94c23.42.28,46.16,2.68,69.38,8.03l7.99-18.11,9.61-.09-8.71,20.36c17.79,4.6,34.44,10.61,51,18.46l31.37-38.71h11.04c-10.96,14.91-22,28.84-34.2,42.76,12.77,6.63,24.61,13.99,36.17,22.68,23.7-18.64,44.22-40.49,61.14-65.52l10.57.1c-37.1,57.1-92.59,99.85-157.41,120.75-74.78,24.11-156.47,17.27-226.14-19.01-45.47-23.68-83.96-58.65-111.85-101.65l10.45-.24c16.87,24.95,37.32,46.83,61.2,65.58,10.34-7.78,21-14.47,32.76-20.9-12.63-14.38-24.31-28.96-35.71-44.54l10.82-.2c10.55,13.93,21.36,27.37,33.08,40.58,16.02-7.91,32.7-14.2,50.08-18.95l-9.32-21.49,9.51-.09,8.57,19.28c22.95-5.58,45.97-8.5,69.74-9l.02-10.28,8.88.02-.04,10.19ZM809.88,608.72c8.93-2.03,16.74-2.99,25.21-3.51v-66.34c-22.39.52-44.01,3.09-65.68,8.26l15.23,26.06,25.24,35.52ZM895.56,570.17l13.78-24.06c-21.8-4.78-42.9-7.03-65.37-7.29v66.29c8.89.3,16.77,1.09,25.05,2.72l26.54-37.67ZM899.64,618.09l38.16-26.74c10.49-8.18,20.18-16.44,29.13-25.98-16.19-7.42-32.06-12.91-48.77-17.18l-17.43,30.18-22.18,31.6,21.09,8.12ZM800.62,611.26l-26.47-37.91-13.59-23.98c-16.41,4.39-31.91,10.17-47.72,17.55,8.65,9.15,17.72,16.75,27.51,24.38l40.65,28.31c6.26-3.4,12.71-6.13,19.63-8.35ZM922.29,634.4c32.18-9.66,61.06-23.93,87.94-43.56-11.28-8.24-22.67-15.16-34.96-21.4l-21.24,20.28c-14.75,12.06-29.99,23.06-45.92,33.34l14.18,11.35ZM772.59,624.7c-16.54-10.66-31.54-21.31-46.22-33.19l-21.81-20.41c-10.84,5.82-21.36,12.23-31.66,19.75,27.06,19.74,56.58,34.33,88.35,43.62l11.35-9.77ZM912.04,637.21c-36.23-30.8-104.18-31.27-140.8-.03,46.63,11.76,94.46,11.59,140.8.03Z"/>
</svg>