<?xml version="1.0" encoding="UTF-8"?>
<svg id="Layer_1" data-name="Layer 1" xmlns="http://www.w3.org/2000/svg" viewBox="0 0 1700.15 820.95">
  <defs>
    <style>
      .cls-1 {
        fill: #fefefe;
      }

      .cls-2 {
        fill: #31328e;
      }

      .cls-3 {
        fill: #21b24b;
      }
    </style>
  </defs>
  <polygon class="cls-3" points="1410.98 596.96 1256.47 597.12 1256.23 567.9 1379.47 567.44 1379.69 436.52 1535.66 436.5 1536.16 467.84 1411.19 468.03 1410.98 596.96"/>
  <g>
    <path class="cls-1" d="M994.45,399.19l-.46,70.45-29.33-.06v-185.67s29.97.43,29.97.43c-1.25,6.47-1.56,10.95,2.05,15.37,23.96-28.03,72.67-23.81,93.98,3.55,21.27,27.31,21.24,70.8-4.34,96.09-21.59,21.34-55.44,21.5-80.85,8.37-4.16-2.15-4.45-7.98-11.01-8.53ZM1076.49,348.35c0-21.97-17.81-39.77-39.77-39.77s-39.77,17.81-39.77,39.77,17.81,39.77,39.77,39.77,39.77-17.81,39.77-39.77Z"/>
    <path class="cls-1" d="M1443.66,395.2c-20.23,27.69-68.63,25.66-90.84,1.58-31.51-34.15-20.1-96.56,18.66-111.47,20.22-7.78,41.71-7.76,61.22,2.36l12.95,10.09.65-70.73,29.31.1v185.67s-30.01-.45-30.01-.45c1.15-7.01,1.91-12.36-1.94-17.14ZM1443.91,347.66c0-22.09-17.91-40-40-40s-40,17.91-40,40,17.91,40,40,40,40-17.91,40-40Z"/>
    <path class="cls-1" d="M541.89,412.49l-27.66.42c.47-5.47,1.31-9.3-2.48-14.06-11.42,13.99-28.61,17.93-46.16,18.47-36.54,1.13-63.23-26.51-63.44-62.84l-.07-12.21c-.2-34.31,24.85-59.43,59.23-61.18,20.14-1.02,38.01,2.46,50.41,18.7,3.8-4.68,3.3-8.91,2.12-15.42l28-.49.04,128.61ZM513.82,348.68c0-23.06-18.69-41.75-41.75-41.75s-41.75,18.69-41.75,41.75,18.69,41.75,41.75,41.75,41.75-18.69,41.75-41.75Z"/>
    <path class="cls-1" d="M1669.32,412.96c.27-5.28,1.19-9.57-2.65-14.12-19.58,22.75-60.8,23.86-85.49,6.55-16.89-11.85-24.23-31.22-23.98-51.02l.15-11.68c.46-35.71,25.78-60.04,60.92-61.87,18.11-.94,36.71,4.08,48.4,19.03,3.81-4.77,3.32-8.94,2.14-15.48l28-.48v128.94s-27.49.13-27.49.13ZM1668.86,348.6c0-23.1-18.73-41.82-41.82-41.82s-41.82,18.73-41.82,41.82,18.73,41.82,41.82,41.82,41.82-18.73,41.82-41.82Z"/>
    <path class="cls-1" d="M94.65,413.92c-8.82,2.02-17.49.77-26.85.87l5.22-28.52c-6.27-3.4-20.13-5.32-25.8-.22l-8.98,28.45-25.19.26,5.84-28.8c-2.18-3.04-9.52-3.18-14.51-1.79-1.76-7.44-.79-14.06-.76-22.14l22.29-.72c3.54-14.53,6.18-28.18,11.16-42.03-5.17-3.26-10.19-2.79-17.18-1.67l-.61-22.14,22.38-.83,9.08-32.17,25.55-.14-6.63,31.49c8.65,2.87,18.02,2.13,26.71.88l8.05-31.85,26.7-.45-6.11,29.33c-.79,3.78,7.9,5.28,12.58,3.03,1.99,7.76.84,14.13.86,22.32l-20.56.82-11.09,41.9c5.34,3.25,10.33,2.78,17.34,1.71l.58,22.18c-7.84.08-14.8-1-22.84.91l-7.25,29.33ZM81.29,363.13l10.4-40.42c.52-2.03-.08-4.45-.92-5.77-.7-1.09-2.56-2.03-4.99-1.93l-22.67.96c-6.3,11.36-6.71,24.12-10.52,36.72-.79,2.61-4.6,9.38.5,10.48,8.69,1.86,18.68,1.12,28.2-.05Z"/>
    <path class="cls-1" d="M1232.78,313.86c-12.95,7.92-21.26,19.98-21.3,34.47l-.2,66.5-29.34-.04v-128.97s29.74,0,29.74,0c-.82,6.27-1.93,12.49,3.61,16.42,20.91-21.64,54.67-25.93,77.56-5.82,10.86,9.53,17.58,25.88,17.72,40.3l.78,78.13-29.45-.02-.64-73.75c-.1-11.63-8.01-21.5-16.18-26.26-9.75-5.69-22.05-7.21-32.3-.94Z"/>
    <path class="cls-1" d="M941.17,283.87l.03,128.95-27.76.07c.75-6.68,1.8-11.93-3.55-17-12.11,14.93-27.58,19.94-44.99,19.51-19.52-.48-36.19-9.06-44.01-27.29-2.72-6.34-6.54-13.02-6.58-20.76l-.48-83.51h29.24s1.16,77.19,1.16,77.19c.18,11.67,11.15,22.09,18.83,25.39,12.73,5.48,25.24,2.91,34.58-4.95,10.33-8.7,15.3-18.51,15.45-32.14l.74-65.48h27.34Z"/>
    <path class="cls-1" d="M263.14,408.03c-26.67,17.87-78.52,13.76-99.73-12.57,6.52-7.24,11.01-14.19,15.24-21.65,8.92,10.25,20.71,13.95,32.73,17.5,13,3.84,26.95,2.38,36.22-8.37,2.24-2.59,2.94-6.59,2.64-9.89-.28-3.05-3.15-6.08-6.64-8.35-14.09-9.16-49.86-.59-68.34-23.98-10.25-12.97-9.69-36.42,4.39-47.15,36.7-27.95,89.39-5.99,91.92,1.23,1.79,5.11-8.3,9.71-14.99,21.08-21.17-18.97-56.14-13.51-59.01.74-.88,4.35.99,9.62,5.25,12.65,15.04,10.69,48.2,2.62,66,19.94,16.85,16.4,13.45,45.99-5.69,58.81Z"/>
    <path class="cls-1" d="M388.54,389.4l7.26,22.32c-20.53,5.84-48.22,5.88-61.69-8.53-4.1-4.39-8.84-13.56-8.93-19.88l-1.11-73.35-24.91-.74v-25.5s24.78-.74,24.78-.74l.62-36.37h27.38s.62,36.53.62,36.53l36.52.62.2,24.92-37,1.12-.12,59.95c-.02,11.49,10.22,19.83,21.16,19.75l15.22-.11Z"/>
    <path class="cls-1" d="M785.93,389.42l7.25,22.25c-31.21,9.14-67.13,2.74-70.47-28.76l-1.34-72.9-24.81-.78-.02-25.5,24.78-.74.62-36.37h27.38s.62,36.53.62,36.53l36.52.62.2,24.92-37,1.12-.12,59.95c-.02,11.5,10.22,19.82,21.15,19.75l15.22-.09Z"/>
    <path class="cls-1" d="M600.57,412.62l-29.38.2v-128.96s29.6-.07,29.6-.07c-.53,5.34-1.38,9.58,2.7,14.21,15.14-22.76,46.71-22.89,70.22-6.8l-14.68,26.28c-11.33-8.07-23.65-10.96-37.1-5.83-10.39,3.96-21.07,15.27-21.11,28.98l-.24,72Z"/>
    <rect class="cls-2" x="1504.95" y="281.8" width="31.32" height="131.16"/>
    <rect class="cls-1" x="1131.06" y="283.75" width="27.41" height="129.2"/>
    <path class="cls-2" d="M1538.03,235.96c2.61,13.03-4.62,23.03-16.54,23.55-10.81.47-19.65-7.47-18.73-19.62.8-10.48,10.24-18.13,22.27-15.57,6.04,1.28,11.52,4.23,13,11.64Z"/>
    <path class="cls-1" d="M1139.95,258.15c-9.45-1.62-13.04-9.13-13.07-16.49-.04-8.3,4.68-15.52,13.93-16.65,7.47-.91,14.68.45,18.61,5.95s4.33,14,.79,20.22c-3.49,6.13-11.37,8.5-20.26,6.98Z"/>
  </g>
</svg>