<?xml version="1.0" encoding="UTF-8"?>
<svg id="Layer_1" data-name="Layer 1" xmlns="http://www.w3.org/2000/svg" viewBox="0 0 1700.15 820.95">
  <defs>
    <style>
      .cls-1 {
        fill: #fff;
      }
    </style>
  </defs>
  <rect class="cls-1" x="1268.58" y="398.21" width="4.34" height="4.9"/>
  <rect class="cls-1" x="834.01" y="348.84" width="13.49" height="708" transform="translate(137.8447 1543.5354) rotate(-89.9947)"/>
  <g>
    <path class="cls-1" d="M852.07,684.37v-126.98c.58-5.84,1.6-10.8,4.03-15.82,7.84-13.5,24.38-15.24,39.49-15.31v158.13s-43.52-.02-43.52-.02Z"/>
    <path class="cls-1" d="M1012.31,558.43v125.95s-43.54,0-43.54,0v-158.1c17.8.11,35.75,2.59,41.6,20.51l1.94,11.65Z"/>
    <path class="cls-1" d="M833.17,567.44h-162.53c.11-6.18.63-12.15,2.22-17.95,5.01-18.26,21.51-22.85,39.52-23.23h120.8s0,41.18,0,41.18Z"/>
    <path class="cls-1" d="M811.59,681.37c-6.63,2.08-12.74,2.82-19.67,2.98h-121.34s0-41,0-41h162.56c-.11,17.4-4.27,32.3-21.56,38.01Z"/>
    <path class="cls-1" d="M811.54,594.29c15.04,7.74,20.18,18.72,20.78,35.06l-23.71-.13-105.25-.49c-18.63-8.58-33.94-20.91-32.27-42.96l68.31.26,49.68.18c7.95,1.97,15.27,4.37,22.46,8.07Z"/>
    <g>
      <path class="cls-1" d="M648.27,561.28v123.09s-43.42.02-43.42.02v-158.09c17.55-.01,35.89,2.74,41.44,20.18,1.34,4.79,1.96,9.18,1.97,14.81Z"/>
      <path class="cls-1" d="M488.19,684.39l-.02-124.61c.11-5.45.92-10.13,2.6-15.03,6.11-15.98,24.15-18.46,40.82-18.46v158.08s-43.4.02-43.4.02Z"/>
      <rect class="cls-1" x="546.65" y="526.23" width="43.57" height="138.49"/>
    </g>
    <rect class="cls-1" x="910.51" y="526.23" width="43.53" height="138.49"/>
    <g>
      <path class="cls-1" d="M1196.08,567.43h-162.4c-.13-15.84,3.89-31.63,19.41-37.29,5.92-2.16,12.15-3.76,18.87-3.77l124.16-.12.1,20.9-.14,20.28Z"/>
      <path class="cls-1" d="M1074.03,684.36c-7.71-.33-14.19-1.19-20.79-3.71-15.62-5.96-19.6-20.95-19.55-37.28h162.52s-.08,40.98-.08,40.98h-122.09Z"/>
      <rect class="cls-1" x="1033.65" y="586.88" width="123.14" height="44.21"/>
    </g>
  </g>
  <rect class="cls-1" x="840.92" y="770.31" width="6.08" height="3.62"/>
  <g>
    <path class="cls-1" d="M1036.27,796.08l-2.58-2.61c-.91-.93-1.35-3.25-.82-4.51.46-1.08,2.5-2.52,3.77-2.54l7.8-.11-.06-4.06-22.34.09c2.83,3.99,2.85,7.37-.63,10.21,3.31,2.1,5.03,5.49,4.31,8.81-.78,3.61-4.17,5.95-8.08,5.95-9.64.02-13.79-8.89-17.37-17.64,1.46-1.16,3.28-1.78,4.71-1.38,2.32,6.54,6.18,15.33,11.84,16.6.87.2,2.55-.9,3.1-1.92,1.38-2.58,1.18-7.02-1.69-8.79-1.81-1.12-5.23-.71-7.52-.69l-1.07-2.33c3.17-.11,5.95.34,8.43-.82s1.04-7.7-1.6-7.75l-19.62-.35.13-2.31h95.03s.3,2.35.3,2.35l-4.1-.04.02,25.8h-4.89s.09-13.65.09-13.65l-7.95-.13-.06,4.86c-2.02,1.1-4.6.56-5.93-1.38l-3.31-4.81,4.31-1.07.07-9.6h-10.68s0,25.74,0,25.74l-5.03.03-.07-5.91c-5.5,3.33-11.09,4.84-16.58,2.47-3.11-1.35-4.3-5.44-1.95-8.52ZM1048.04,795.6l-6.24.9c-1.7.24-2.04,3.57-1.22,4.81,2.78,4.2,8.99.26,14.02-3.6v-15.36s-4.91-.01-4.91-.01l-.22,6.38-11.22.27c-1.41,1.38-.38,4.49,1.41,4.44l6.77-.18c.76-.02,2.09,2.31,1.62,2.35ZM1075.64,782.31v9.52s7.52,0,7.52,0v-9.52s-7.52,0-7.52,0Z"/>
    <path class="cls-1" d="M900.06,782.2l-3.84.16v25.66s-5.03.03-5.03.03v-13.7s-7.88-.06-7.88-.06l-.14,4.96c-3.45,1.78-8.03-2.57-8.57-6.3-.1-.73,2.16-1.09,3.56-.71l.25-9.94-5.44-.03c-.31,0-1.52-.18-1.5-.49l.12-1.83,28.14-.04.79,2,.15.26c2.8-2.66,8.43-2.66,10.52-.87,1.26,1.07,1.73,2.72,1.65,4.69l-4.83.08-1.14-3.83c-1.45,1.1-1.93,3.1-1.73,4.29s1.64,3.92,2.93,3.87l5.43-.21c1.18-.04,2.61,1.45,2.96,2.56l-6.23.66c-2.02.22-3.41,2.75-2.86,4.55s2.75,3.32,5.12,2.34c1.98-.81,4.5-3.44,6.12-4.27l1.6-.82c.37-.19.16-1.06.09-1.7l-.16-1.39c-.12-1.01,4.95,1.68,6.42-2.33.7-1.91-.04-6.92-2.6-7.03l-10.78-.46.05-2.4,62.03.04c-.21,1.72-.34,2.3-.81,2.29l-3.19-.08-.04,25.85h-4.95s-.01-13.65-.01-13.65l-7.93-.1-.02,4.99c-3.77,1.63-7.06-1.73-9.19-6.45l4.15-.89.1-9.66h-10.93s-.02,25.81-.02,25.81l-4.85-.02.05-6.65c-6.59,1.59-11.84,1.22-15.91-4.04-3.59,5.51-11.02,7.48-16.95,4.42-1.4-.72-2.74-3.01-2.78-4.32-.06-1.75,1.19-3.49,2.74-5.1-3.74-2.23-5.81-5.96-4.22-9.76l-.44-.41ZM890.98,782.32h-7.51s0,9.52,0,9.52h7.51s0-9.52,0-9.52ZM937.07,795.78l.29-13.47-6.93.13c1.52,3.11,2.52,5.33,1.59,7.87-.77,2.11-3.16,3.69-5.81,4.4.15,2.31,2.72,5,5.22,5.2,1.8.14,5.58-2.2,5.63-4.13ZM958.52,782.32v9.51h7.53v-9.51h-7.53Z"/>
    <path class="cls-1" d="M739.12,782.39l-9.47-.14v25.78s-4.97.02-4.97.02l-.03-15.77c-2.84,1.31-4.17,3.88-5.48,6.62-1.24.64-3.82-.37-4.38-1.33l1.79-3.52c-1.16-1.86-4.23-3.49-6.37-2.4-2.85,1.46-3.43,6.09-1.63,8.55,2.12,2.91,4.7,4.31,8.32,5.95l-1.32,2.01c-1.24,1.89-9.79-2.1-12.36-9.5-1.63-4.68,1.4-8.94,6.1-9.79,3.65-.66,7.14.2,9.96,2.22l5.38-1.96v-6.89s-24.88.04-24.88.04c-.37-.14-1.35-.63-1.21-.93l.63-1.42,69.56.02.16,2.32-5.33-.02v25.93c3.31-.3,5.63,1.3,6.41,3.74.92,2.88.11,5.96-2.8,7.48-6.32,3.3-13.65.93-20.01-3.27,2.74-7.06,7.79,3.12,14.54,2.11,2.07-.31,3.69-2.24,3.91-3.66.25-1.67-1.39-4.79-3.25-3.65l-2.9,1.77c-.75.46-2.46-.85-3.48-1.86l2.73-1.96-.2-9.56c-5.38,3.47-10.68,4.66-16.14,2.21-1.54-.69-2.87-3.14-2.95-4.64-.1-1.9,1.17-3.55,2.86-5.19-1.44-1.1-3-2.07-3.61-3.11-.76-1.3-.35-3.42.45-6.18ZM756.29,796.58l2.18-.83-.07-13.44-12.88.13c-1.6.02-2.67,3.52-2.1,4.85.76,1.78,3.01,2.5,5.14,2.46l2.92-.04c.57,0,1,1.42,1.23,2.13-2.42.13-4.91.1-6.67,1.52-1.38,1.12-1.67,3.54-1.1,4.85,1.53,3.48,6.87,1.94,11.36-1.62Z"/>
    <path class="cls-1" d="M814.26,795.73c-1.94,1.89-4.61,1.44-5.46-.13,1.1-1.1,2.23-2.87,2.22-4.23l-.08-9.1-8.12-.02-.03,13.6,12.62,11.93c.6.57,1.28,2.45,1.07,3.24-.24.9-1.66,2.14-2.63,2.52-2.62,1.04-4.78-.08-5.65-1.95,1.41-.24,2.62-.45,3.2-.7.64-.27-.31-1.97-.93-2.56l-12.85-12.21-.05-13.81-4.41-.16.13-2.25,54,.02.12,2.25-5.17.13v25.69s-5,.09-5,.09l.04-6.58c-2.45.45-4.78.74-7.15.49-4.24-.43-7.26-4.4-6.9-8.02.45-4.55,4.15-8.02,8.68-7.29l5.46.88-.14-5.31h-21.2s.06,9.72.06,9.72c0,1.05-.93,2.88-1.82,3.75ZM836.86,796.33l.34-6.06-6.29-1.03c-1.89,1.59-2.5,3.56-2.33,5.74.12,1.58,1.1,3.52,3.07,4.37,1.45.63,5.13-1.43,5.21-3.01Z"/>
    <polygon class="cls-1" points="670.34 812.64 665.86 812.79 667.96 805.09 673.32 805.01 670.34 812.64"/>
    <g>
      <path class="cls-1" d="M632.42,781.96l.13-2.05,31.62.02c.4.27.53,2.18-.01,2.21l-3.64.22v25.64s-5.02.05-5.02.05v-13.74s-7.92,0-7.92,0l-.04,4.93c-2.16.95-4.89.23-6.32-1.92l-2.8-4.21c-4.37.72-8.74.32-13.06-.36-2.2-.03-3.69,3.51-3.46,5.39.31,2.57,2.31,3.97,4.34,3.72l.62-2.88c.21-.98,5.15-2.2,6.56.53.75,1.46-.11,3.03-1.67,4.2l2.83,3.17c-.79.63-2.16,1.55-2.96,1.71-2.5.47-2.32-4.62-6.82-4.2-3.84.36-6.81-1.92-7.67-5.29-.81-3.2,1.28-6.36,4.8-8.03-1.91-1.98-3.52-4.41-3.11-6.82.84-4.92,8.35-5.46,13.31-2l.27-.28ZM632.82,782.36l-.42.26c1.39,3.04-.1,5.96-3.04,7.88,5.19,2.04,10.91-2.5,11.18-1.23l.49,2.29c-.21-.05.4.1,1.36.34l.03-9.57-9.61.03ZM647.77,782.31v9.52h7.52v-9.52h-7.52ZM625.56,788.24c1.42-.07,2.07-2.28,2.01-3.22-.05-.81-1.09-2.25-2.23-2.12-2.32.28-1.57,5.43.22,5.33Z"/>
      <path class="cls-1" d="M605.24,819.39c-1.97-.82-3.36-3.21-3.49-4.63-.21-2.31,1.16-4.2,3.3-5.55l.07-15.35-8.72.17-4.85,1.7c1.94,3.66,4.64,7.1,7.69,10.41-.39.98-2.28,2.21-3.33,2.04-.95-.16-2.27-1.36-2.94-2.38l-10.55-16.02,3.43-1.71c1.84-.92,2.35,6.33,5.98,4.58l.25-10.36-12.64-.07.02-2.3h35.05s.15,2.23.15,2.23l-4.44.2.05,25.82c6.08.41,10.28,5.72,13.01,10.98-.93.89-3.55,1.93-4.13,1.11l-2.63-4.19c-1.51-2.42-3.63-4.75-6.8-5.2-1.43-.2-2.59,2.05-2.75,3.28-.15,1.11.99,3.72,2.07,3.45l2.96-.75c.73-.18,1.91,1.37,2.06,2.36-2.63.96-5.97,1.34-8.81.16ZM605.04,782.32h-7.9s.01,9.2.01,9.2h7.9s-.01-9.2-.01-9.2Z"/>
    </g>
  </g>
  <g>
    <polygon class="cls-1" points="936.81 757.63 936.5 732.71 930.8 757.68 925.83 757.74 920.63 733.42 920.17 757.63 915.57 757.68 915.55 725.12 923.34 724.99 928.42 747.28 933.78 725.07 941.53 725.08 941.53 757.69 936.81 757.63"/>
    <polygon class="cls-1" points="676.66 757.68 676.33 732.7 670.69 757.71 665.72 757.75 660.55 733.03 660.01 757.7 655.47 757.68 655.46 725.09 663.26 725.08 668.27 747.38 673.64 725.08 681.39 725.06 681.4 757.6 676.66 757.68"/>
    <polygon class="cls-1" points="821.44 757.66 820.99 732.86 815.43 757.56 810.41 757.74 805.21 733.02 804.72 757.62 800.15 757.72 800.14 725.1 807.87 725.01 813.1 747.52 818.36 725.09 826.07 725.07 826.08 757.58 821.44 757.66"/>
    <polygon class="cls-1" points="513.82 757.7 513.33 732.97 507.75 757.61 502.69 757.68 497.45 732.48 497.05 757.58 492.45 757.7 492.44 725.09 500.16 725 505.33 747.59 510.64 725.1 518.37 725.08 518.36 757.73 513.82 757.7"/>
    <path class="cls-1" d="M785.77,754.01l-2.88,4.09-4.13-3.53c-3.08,3.12-7.3,4.55-11.71,3.13-5.42-1.75-7.96-8.56-4.77-13.55,1.28-2,3.49-3.59,5.4-5.18-2.49-2.93-3.98-6.5-2.76-10.06,1.02-2.96,3.9-4.35,6.61-4.47,3.01-.13,6.11,1.28,7.17,4.53,1.34,4.11-.9,7.9-4.69,10.48l4.31,6.09,1.62-3.35,4.42,1.3-2.53,6.78,3.94,3.74ZM771.94,735.93c1.24-1.31,2.4-2.69,2.76-4.18.47-1.94-1.1-3.51-2.59-3.54s-3.07,1.62-2.56,3.36c.47,1.6,1.26,2.83,2.39,4.35ZM775.36,750.32l-5.23-7.37c-3.16,1.81-4.9,5.28-3.24,8.59.82,1.63,3.29,2.56,4.9,2,1.19-.41,2.97-2,3.56-3.21Z"/>
    <path class="cls-1" d="M1115.52,757.54l-5.61.21-5.54-11.63c-.82-1.72-3.02-2.41-5.17-2.24l-.08,13.76-5.25.06v-32.67s11.83.11,11.83.11c4.19.04,6.83,3.03,7.6,6.85.94,4.67-1.17,9.47-6.02,10.85l4.33,5.59,3.91,9.12ZM1106.47,738.05c2.14-1.39,2.13-5.42.27-6.71-2.07-1.43-5.08-1.28-7.48-1.02v8.83c2.45.06,5.2.21,7.21-1.1Z"/>
    <path class="cls-1" d="M1067.25,757.57l-5.63.18-5.05-10.8c-1.09-2.32-3.19-3.54-5.85-2.98l.07,13.67-5.19.04v-32.64s11.31.04,11.31.04c4.39.02,7.34,2.76,8.15,6.93.9,4.62-1.17,9.48-5.99,10.79l4.32,5.63,3.85,9.14ZM1057.92,738.25c2.57-1.31,2.56-5.92.27-7.15-2.06-1.11-4.64-.98-7.16-.93l-.02,8.96c1.96.07,4.76.22,6.91-.88Z"/>
    <polygon class="cls-1" points="997.97 757.56 992.76 757.7 983.47 736.58 983.39 757.58 978.8 757.7 978.79 725.12 984.16 725.15 992.69 745.34 993.12 725.07 997.96 725.17 997.97 757.56"/>
    <path class="cls-1" d="M872.3,750.77c-1.45,3.36-3.7,6.72-7.36,6.78l-11.75.2v-32.69s10.33.04,10.33.04c10.66.04,10.65,14.66,8.79,25.68ZM867.22,734.49c-.39-3.7-4.3-4.97-8.71-4.36v22.55c2.14.13,4.66.05,6.31-.64,3.42-1.45,3.06-11.36,2.4-17.55Z"/>
    <path class="cls-1" d="M580.86,757.56l-5.63.2-5.06-10.81c-1.09-2.33-3.15-3.44-5.83-3.03l-.02,13.81-5.1-.06v-32.65s11.89.11,11.89.11c4.1.04,6.8,3.12,7.55,6.86.94,4.7-1.2,9.41-5.97,10.78l4.11,5.27,4.06,9.52ZM571.5,738.25c2.55-1.38,2.58-5.9.3-7.12-2.04-1.09-4.64-.99-7.17-.96l-.02,8.97c1.98.11,4.8.25,6.9-.88Z"/>
    <path class="cls-1" d="M602.55,731.98c2.77,10.84,1.92,26.48-9.64,26.29-4.74-.08-8.1-3.21-9.25-8.26-2.35-10.33-1.44-25.25,9.26-25.55,4.49-.13,8.42,2.79,9.63,7.52ZM597.5,733.4c-.38-1.93-2.48-3.58-4.02-3.68s-4.02,1.36-4.39,3.27c-1.56,7.9-1.78,20.34,4.4,20.14,5.61-.19,5.47-12.33,4.01-19.72Z"/>
    <path class="cls-1" d="M903.94,725.15l5.37-.05-.17,24.04c-.02,2.44-1.41,5.35-2.72,6.74-1.95,2.06-4.38,2.29-7.29,2.37-4.76.13-8.67-3.31-8.72-8.43l-.26-24.71h5.09s.11,23.47.11,23.47c.01,2.78,1.9,4.61,4.12,4.65,2.34.04,4.41-1.55,4.42-4.31l.05-23.76Z"/>
    <path class="cls-1" d="M700.62,751.38l-9.12-.24-1.34,6.62-5.34-.05,8.33-32.55,5.72-.14,8.25,32.58-5.33.13-1.17-6.33ZM699.18,745.92l-3.18-14.56-3.22,14.59,6.39-.03Z"/>
    <path class="cls-1" d="M1144.67,756.68c-3.53,2.34-8.91,2.17-11.89-.78-2.25-2.23-2.76-5.36-3.05-8.42l5.32-.54c.12,3.08.69,5.47,3.4,6.33,1.95.62,4.15-.72,4.8-2.37s.43-4.44-1.22-5.43l-6.74-4.06c-2.53-1.53-4.32-4.13-4.62-6.52-.43-3.39.37-6.49,3.07-8.62,2.86-2.26,7.51-2.54,10.57-.38,2.63,1.85,3.29,4.99,3.43,8.14h-5.11c-.46-2.5-1.08-3.87-2.33-4.47-1.47-.71-3.54.08-4.24,1.21-.61.99-.59,3.96.44,4.63l6.16,4.01c3.13,2.04,5.61,4.39,5.91,7.64.34,3.67-.44,7.35-3.9,9.64Z"/>
    <path class="cls-1" d="M1186.69,757.47c-3.34,1.36-7.61,1.02-10.14-1.29-2.37-2.16-2.98-5.16-3.26-8.69l5.08-.51c.44,2.16.83,4.23,1.87,5.29,2.06,2.09,4.8,1.16,6.04-.55s1.35-4.95-.82-6.27l-7.06-4.31c-5.02-3.06-5.95-10.48-1.51-14.51,3-2.72,8.07-2.98,11.24-.48,2.38,1.88,3.07,5.05,3.12,7.85h-5.06c-.56-2.13-1.07-3.61-1.98-4.24-1.31-.9-3.57-.32-4.39.66-.75.9-.97,3.7,0,4.66,4.44,4.42,12.27,5.37,12.37,13.06.05,3.7-1.42,7.7-5.49,9.35Z"/>
    <path class="cls-1" d="M645.69,757.1c-3.36,1.8-8.1,1.53-10.89-.9-2.55-2.22-3.26-5.72-3.12-8.83l4.96-.42c.31,2.49.82,4.8,2.57,5.91,1.98,1.25,4.29.28,5.3-1.18,1.15-1.65,1.23-4.45-.53-5.95-4.34-3.69-10.2-4.54-11.39-9.87-.77-3.49-.26-6.7,2.22-9.05,2.99-2.84,8.23-3.34,11.54-.68,2.34,1.87,3,5.06,3.13,7.83-2.07.12-4.15.12-5.12-.06-.49-2.2-1.17-3.85-2.33-4.36-1.53-.66-3.55.08-4.27,1.21-.62.98-.59,3.96.45,4.63l6.14,4c3.32,2.16,5.78,4.58,5.96,8.23.17,3.61-.9,7.47-4.64,9.48Z"/>
    <path class="cls-1" d="M1085.74,742.95c-2.51,2.28-5.82,2.29-9.58,2.1l-.08,12.58-5.11.11v-32.68s9.77.06,9.77.06c4.37.03,7.31,2.99,7.74,7.22.37,3.65.35,7.82-2.74,10.62ZM1081.94,738.61c1.76-2.12,1.65-5.6-.18-7.4-1.16-1.13-4.09-1.17-5.47-.89l.02,9.5c1.63.36,4.42.24,5.63-1.21Z"/>
    <polygon class="cls-1" points="1039.08 742.94 1030.17 742.99 1030.16 753 1040.48 752.96 1040.4 757.77 1024.81 757.69 1024.82 725.08 1039.89 725.03 1039.93 729.93 1030.17 729.95 1030.17 738.13 1039.11 738.13 1039.08 742.94"/>
    <polygon class="cls-1" points="972.32 742.91 963.3 742.99 963.31 752.98 973.73 752.96 973.68 757.72 958.1 757.68 958.1 725.05 973.15 725.04 973.2 729.91 963.32 729.91 963.31 738.13 972.41 738.13 972.32 742.91"/>
    <polygon class="cls-1" points="846.46 742.97 837.52 742.95 837.5 752.94 848.02 752.98 848.02 757.68 832.4 757.72 832.4 725.06 847.45 725.04 847.48 729.97 837.53 729.91 837.48 738.13 846.58 738.12 846.46 742.97"/>
    <path class="cls-1" d="M547.1,752.66c1.75-1.77,2.11-3.84,2.56-6.19l4.87,1.72c-.24,2.62-1.15,5.7-3.12,7.79-2.17,2.3-5.94,2.54-8.62,1.88-8.2-2.01-8.61-18.48-5.75-27.5,1.38-4.37,5.91-6.43,9.93-5.77,4.33.71,7.15,4.79,7.12,9.28l-4.75,1.04c-.6-1.91-1.15-3.66-2.18-4.84-.63-.72-2.87-.68-3.59-.16s-2.03,2.09-2.15,3c-.83,6.41-1.34,16.17,1.68,19.56.63.7,3.25.95,4.01.19Z"/>
    <polygon class="cls-1" points="1167.84 743.01 1158.9 742.94 1158.83 752.97 1169.28 752.96 1169.3 757.68 1153.73 757.71 1153.71 725.08 1168.69 725.02 1168.87 729.92 1158.85 729.93 1158.85 738.13 1167.79 738.12 1167.84 743.01"/>
    <polygon class="cls-1" points="1014.11 757.49 1008.81 757.71 1008.8 729.92 1002.08 729.89 1002.1 725.05 1020.74 725.04 1020.75 729.9 1014.08 729.91 1014.11 757.49"/>
    <polygon class="cls-1" points="727.04 752.9 727.13 757.69 710.47 757.68 710.49 725.15 715.84 725.12 715.83 752.91 727.04 752.9"/>
    <polygon class="cls-1" points="747.6 752.93 747.55 757.68 731.22 757.72 731.23 725.12 736.38 725.14 736.36 752.88 747.6 752.93"/>
    <rect class="cls-1" x="524.7" y="725.04" width="5.39" height="32.77"/>
    <rect class="cls-1" x="878.43" y="725.04" width="5.35" height="32.76"/>
    <rect class="cls-1" x="1105.54" y="738.82" width="32.76" height="5.22" transform="translate(380.1603 1863.1222) rotate(-89.983)"/>
    <path class="cls-1" d="M610.14,764.89l-.79-1.95c1.77-1.37,2.8-3.03,2.98-4.84l-2.59-.72.03-5.52,4.98.03-.25,7.01c-.09,2.49-1.63,4.44-4.36,5.98Z"/>
  </g>
  <g>
    <polygon class="cls-1" points="961.61 432.13 961.49 404.74 951.91 432.05 947.68 432.06 938.11 404.18 937.99 432.12 933.73 432.12 933.73 398.25 940.47 398.2 950.06 426.61 959.85 398.28 966.02 398.28 966.01 432.12 961.61 432.13"/>
    <polygon class="cls-1" points="1137.96 416.64 1119.21 416.67 1119.17 427.95 1139.78 427.98 1139.73 432.16 1114.56 432.11 1114.57 398.21 1139.05 398.21 1139.1 402.38 1119.2 402.38 1119.19 412.64 1137.89 412.63 1137.96 416.64"/>
    <path class="cls-1" d="M1076.15,432.14v-17.22c0-.95-.99-3.08-1.81-3.55-1.77-1.03-4.32-.59-5.89.48-1.19.81-2.46,3.17-2.48,5.02l-.13,15.28h-4.26s-.02-24.5-.02-24.5l3.74-.13.2,2.76c2.33-2.06,4.66-3.29,7.21-3.32,2.87-.04,5.46,1.04,7.14,4.03,2.12-3,5.15-4.39,8.94-3.93,3.19.39,6.01,2.88,6.03,6.45l.14,18.63-4.38-.1-.32-18.73c-.04-2.2-3.86-2.89-5.44-2.4s-4.19,2.43-4.22,4.69l-.16,16.46-4.29.1Z"/>
    <path class="cls-1" d="M909.59,429.88c-2.17,2.12-4.78,3.28-8.1,2.75-7.82-1.24-10.82-10.51-7.97-19.12,1.08-3.25,3.8-5.48,6.66-6.18,3.45-.84,6.42-.27,9.2,2.5l.1-11.55,4.31-.04v33.75s-3.74.24-3.74.24l-.47-2.34ZM908.82,425.55c1.62-3.73,1.36-7.7-.02-11.18-.96-2.43-3.34-3.85-5.75-3.79-1.95.05-4.39,1.5-5.2,3.65-1.4,3.71-1.45,7.86.22,11.41,1,2.13,3.47,3.54,5.54,3.51,1.9-.02,4.27-1.44,5.21-3.61Z"/>
    <path class="cls-1" d="M1014.37,429.88c-2.17,2.12-4.78,3.28-8.1,2.75-7.82-1.24-10.82-10.51-7.97-19.12,1.08-3.25,3.8-5.48,6.66-6.18,3.45-.84,6.42-.27,9.2,2.5l.1-11.55,4.31-.04v33.75s-3.74.24-3.74.24l-.47-2.34ZM1013.6,425.55c1.62-3.73,1.36-7.7-.02-11.18-.96-2.43-3.34-3.85-5.75-3.79-1.95.05-4.39,1.5-5.2,3.65-1.4,3.71-1.45,7.86.22,11.41,1,2.13,3.47,3.54,5.54,3.51,1.9-.02,4.27-1.44,5.21-3.61Z"/>
    <path class="cls-1" d="M1230.93,441.43l-4.3.1v-33.97s3.67.01,3.67.01l.64,2.21c2.32-2.12,5-3.17,8.06-2.73,2.66.38,5.51,1.9,7.04,4.68,2.8,5.09,2.81,11.92-.53,16.66s-10.17,5.93-14.51,1.62l-.07,11.42ZM1242.56,425.31c2.62-6.58.45-14.49-4.98-14.91-2-.15-4.25,1.16-5.41,3.08-2.15,3.57-2.2,8.19-.58,12.06.91,2.16,3.35,3.61,5.45,3.6s4.57-1.48,5.51-3.84Z"/>
    <path class="cls-1" d="M857.23,429.38c-3.43,3.11-8.46,4.37-12.99,2.52-2.93-1.2-4.41-4.04-4.08-7.03.3-2.65,2.27-5.62,5.58-6.21l11.13-1.97c.39-1.05.24-3.47-.45-4.32s-2.75-1.61-4.12-1.76c-3.7-.39-6.41.8-7.19,4.56l-4.31-.49c.68-3.47,2.47-5.75,5.49-6.78,6.73-2.29,15.1-.54,15.16,5.44l.13,13.06c.02,1.93.53,3.97,1.08,5.78l-4.34-.06-1.08-2.73ZM848.96,429.31c2.65.07,5.27-.94,6.56-2.41,1.49-1.7,1.71-4.25,1.49-6.69l-8.69,1.66c-2.28.44-3.87,1.79-3.56,4.19.2,1.52,1.81,3.18,4.2,3.25Z"/>
    <path class="cls-1" d="M1201.26,424.2l4.63.39c-1.03,5.1-5.15,8.01-10.27,8.13-4.21.1-8.53-1.33-10.58-5.33-2.47-4.81-2.5-11.2.64-15.86,4.02-5.95,13.2-6.11,17.66-.71,2.4,2.9,2.79,6.59,2.67,10.12l-18.19.03c.12,3.04,1.31,6,4.02,7.35,3.69,1.84,8.22.65,9.42-4.13ZM1201.42,417.4c-.06-4.03-3.02-6.88-6.64-6.83s-6.56,2.8-6.71,6.84h13.35Z"/>
    <path class="cls-1" d="M980.95,428.84c3.76,1.05,7.12-.76,8.1-4.64l4.65.41c-1.09,4.92-5.05,7.91-10.06,8.11-3.58.15-7.07-.91-9.33-3.27-5.05-5.28-4.59-18.8,4.16-21.78,4.88-1.66,10.7-.47,13.55,4.42,1.51,2.59,1.85,5.8,1.84,8.85l-18.29.08c.26,3.71,1.81,6.83,5.36,7.82ZM989.21,417.37c-.2-4.69-3.31-6.97-6.96-6.78-3.37.18-6.3,3.03-6.39,6.81l13.35-.04Z"/>
    <path class="cls-1" d="M1319.33,424.22l4.36.37c-1.03,5.31-5.52,8.19-10.74,8.16-4.61-.03-8.88-2.06-10.65-6.53-1.48-3.74-1.49-8.13-.21-11.97,1.98-5.92,8.15-8.3,13.57-6.9,5.99,1.54,8.93,7.46,8.02,13.62h-18c.11,2.91,1.15,5.65,3.71,7.2,1.54.94,3.93,1.21,5.64.67,1.84-.58,3.09-1.98,4.31-4.63ZM1319.25,417.38c-.13-4.44-3.27-7.07-7.16-6.79-3.25.23-6.02,2.95-6.18,6.81l13.34-.03Z"/>
    <path class="cls-1" d="M872.2,416.47l-.1,15.58-4.34.09.07-24.57,3.39.07c.6.01.59,1.92.7,2.73,2.45-2.9,5.75-3.82,9.51-3.2,3.32.55,6.22,3.14,6.24,6.82l.11,18.15-4.38-.11-.32-18.12c-.05-2.8-4.07-3.48-6.07-3.03-2.24.5-4.8,2.36-4.82,5.6Z"/>
    <path class="cls-1" d="M1297.82,425.27c-.44,5.8-6.3,8.2-12.98,7.21-4.11-.61-7.07-3.64-7.44-7.86l4.1-.57c.76,4.05,4.3,5.93,8.5,4.85.84-.22,2.21-1.09,2.82-1.63.71-.62.73-3.58-.22-3.88l-9.46-2.96c-2.75-.86-4.72-2.79-5.07-5.31s.74-5.32,3.27-6.72c3.25-1.8,7.32-1.79,10.82-.58,2.76.95,4.3,2.95,4.69,6.16l-4.09.54c-1.03-3.65-3.85-4.34-7.35-3.83-1.17.17-2.82,1.25-3.17,2.47-.32,1.13,1.28,2.76,2.55,3.17l10.43,3.37c2.01.65,2.72,3.8,2.59,5.58Z"/>
    <path class="cls-1" d="M1334.99,432.56c-4.6-.58-7.46-3.62-7.79-7.89l4.01-.55c.38.94.98,2.65,1.57,3.23,2.39,2.33,6.84,2.56,9.43.26.5-.44,1.06-1.99.98-2.65-.1-.77-1.35-1.99-2.19-2.23l-7.92-2.23c-2.67-.75-4.88-2.9-5.2-5.27-.38-2.76.78-5.58,3.38-6.93,2.89-1.5,6.35-1.58,9.5-.88,3.45.77,5.6,3.19,5.93,6.61l-4.13.55c-.91-3.63-4.03-4.55-7.69-3.82-1.13.23-2.85,1.66-2.85,2.74,0,1.27,1.53,2.46,2.79,2.86l9.98,3.19c1.97.63,2.88,3.52,2.85,5.26-.1,5.73-5.72,8.61-12.64,7.74Z"/>
    <path class="cls-1" d="M1149.81,416.51l-.18,15.62-4.29-.12v-24.42s3.81-.08,3.81-.08l.29,2.91c3.44-4.01,9.6-4.84,13.95-1.14,1.27,1.08,2.05,3.92,2.05,5.64v17.21s-4.29,0-4.29,0l-.05-16.47c0-3.09-2.27-5.1-5.36-4.9-2.89.19-5.9,2.22-5.93,5.76Z"/>
    <path class="cls-1" d="M1055.3,407.53l.03,24.41-3.73.29-.22-3.11c-2.78,3.1-6.45,4.32-10.55,3.21-2.94-.79-5.37-3.3-5.39-6.6l-.08-18.13h4.16s.58,18.34.58,18.34c.1,3.02,4.49,3.5,6.76,2.67s4.07-2.95,4.08-5.92l.09-15.13,4.27-.03Z"/>
    <path class="cls-1" d="M1180.79,428.4l.64,3.92-4.84.03c-2.6.02-4.14-2.43-4.14-4.81v-16.52s-2.67-.13-2.67-.13c-.66-.03-.58-2.05-.45-2.78.11-.64,1.29-.58,2.98-.47l.2-6.21,4.07-2.48.05,8.59,4.16.02-.03,3.41-4.19.09.13,16.25c.48.77,2.27,1.1,4.08,1.09Z"/>
    <path class="cls-1" d="M1215.14,432.11l-4.31-.1v-24.42s3.81-.08,3.81-.08l.26,2.9c1.05-1.29,2.55-3.03,4.08-3.35,1.66-.36,3.77.35,5.38,1.25l-1.54,3.86c-1.99-.6-3.55-.9-4.84-.34-1.07.46-2.52,2.56-2.55,3.9l-.3,16.37Z"/>
    <path class="cls-1" d="M1257.09,431.95l-4.26.2v-24.59s3.53-.03,3.53-.03l.89,2.39c1.85-3.18,5.39-3.84,8.72-1.66.1.96-.79,3.34-1.47,3.77-1.77-.41-3.67-.71-4.75-.09s-2.45,2.77-2.46,4.03l-.2,16Z"/>
    <rect class="cls-1" x="1268.58" y="407.55" width="4.34" height="24.59"/>
    <rect class="cls-1" x="1024.95" y="407.56" width="4.35" height="24.58"/>
    <path class="cls-1" d="M1354.58,438.58c-.5.08-1.44-1.36-1.15-1.68l1.4-1.49c.39-.42.83-1.82.94-2.39s-1.25-.91-2.29-1.05l-.08-4.77,4.93-.03-.04,6.43c-.01,1.82-2.05,4.71-3.71,4.97Z"/>
    <rect class="cls-1" x="1024.95" y="398.21" width="4.34" height="4.9"/>
    <g>
      <path class="cls-1" d="M731.84,430.76c-4.14,2.42-8.97,2.38-13.38,1.34-5.29-1.25-8.65-5.37-8.93-10.82l4.41-.43c.52,3.16,1.8,5.33,4.43,6.53,3.6,1.64,7.85,1.73,11.33-.28,1.56-.9,2.57-2.93,2.45-4.62-.11-1.54-1.75-3.61-3.56-4.12l-11.14-3.13c-3.61-1.02-6.17-3.92-6.5-7.09-.4-3.84,1.43-7.36,5.1-9.04s8.57-1.82,12.61-.51c4.21,1.37,6.82,4.86,6.96,9.32l-4.47.29c-.4-3.01-1.69-5.08-4.41-5.88-2.94-.86-6.44-.8-9.22.68-1.46.78-2.38,3.01-2.14,4.44s1.89,2.99,3.43,3.4l10.78,2.89c3.69.99,6.39,3.94,6.9,7.16.6,3.86-.98,7.72-4.65,9.87Z"/>
      <path class="cls-1" d="M760.79,432.04l-4.18.02-.02-16.57c0-1.13-.9-3.58-1.84-4.15-1.6-.95-4.09-.63-5.54.28-1.22.76-2.76,3.06-2.77,4.85l-.14,15.58-4.27.09v-24.58s3.74,0,3.74,0l.45,2.87c2.3-3.03,5.38-3.88,9.03-3.3,2.07.33,3.75,1.71,4.94,3.8,2.83-3.76,8.07-5.42,12.39-2.56,1.67,1.11,2.74,3.91,2.75,5.99l.07,17.76h-4.32s-.03-16.98-.03-16.98c0-1.1-1.02-3.39-1.97-3.84-1.85-.89-3.99-.61-5.61.37-1.26.76-2.61,3.17-2.62,5l-.05,15.36Z"/>
      <path class="cls-1" d="M797.07,429.41c-3.7,3.19-9.14,4.5-13.8,2.15-2.67-1.35-3.73-4.34-3.36-6.93.39-2.72,2.54-5.42,5.67-5.97l11.18-1.99c.21-1.09,0-3.35-.57-4.23-.6-.93-2.68-1.66-4.04-1.81-3.62-.39-6.54.69-7.32,4.52l-4.25-.45c1.03-7.41,9.55-9.01,16.32-6.94,2.54.78,4.27,3.26,4.29,5.91l.13,13.34.95,5.06-4.18.1-1.03-2.75ZM788.26,429.25c2.61.24,5.33-.6,6.75-2.07,1.6-1.67,2.02-4.4,1.91-6.97l-8.86,1.64c-1.89.35-3.57,1.72-3.61,3.6-.04,1.7,1.5,3.6,3.82,3.8Z"/>
      <rect class="cls-1" x="803.05" y="413.07" width="33.93" height="4.21" transform="translate(404.5544 1235.0456) rotate(-89.9797)"/>
      <rect class="cls-1" x="807.38" y="398.21" width="4.31" height="33.93"/>
    </g>
    <g>
      <polygon class="cls-1" points="597.52 432.11 597.25 405.3 587.91 431.92 583.68 432.11 574.27 404.86 574 432.13 569.52 432.11 569.54 398.2 576.46 398.28 585.97 426.67 595.77 398.33 601.98 398.19 602 432.11 597.52 432.11"/>
      <polygon class="cls-1" points="369.68 432.15 369.33 405.73 360.06 431.99 355.81 432.08 346.38 404.61 346.24 432.02 341.84 432.13 341.83 398.25 348.62 398.25 358.16 426.64 367.99 398.21 374.12 398.26 374.12 432.12 369.68 432.15"/>
      <path class="cls-1" d="M484.19,437.31c1.53-1.26,2.56-3.83,2.78-5.42l-8.97-23.61-1.6,3.87c-1.58-.47-3.71-.87-4.95-.3-1.06.49-2.48,2.57-2.51,3.93l-.34,16.36h-4.12s-.02-24.49-.02-24.49l3.72-.14.26,2.99c1.93-3.23,4.88-4.47,8.32-2.69l5.65-.3,6.79,19.02,6.77-18.91,4.41-.03-11.32,29.98c-1.46,3.87-5.62,5.63-9.11,3.86l-.4-3.8c1.05.16,3.79.39,4.65-.31Z"/>
      <path class="cls-1" d="M537,426.7c-1.63,3.82-5.57,5.7-9.13,5.97-4.13.31-8.34-1.03-10.62-4.87-2.81-4.72-2.77-11.27.05-16.01,2.05-3.46,5.96-4.78,9.52-4.8s7.42,1.39,9.5,4.85c2.61,4.33,2.68,10.18.68,14.86ZM533.21,424.35c.96-3.04.91-6.56-.1-9.31s-3.64-4.44-6.29-4.45-5.28,1.56-6.32,4.42c-1.13,3.09-1.13,6.96.13,10.01,1.17,2.83,3.96,4.33,6.65,4.09,2.47-.22,5-1.8,5.93-4.76Z"/>
      <path class="cls-1" d="M677.23,428.49c-4.54,5.88-14.05,5.67-18.17-.09-3.38-4.72-3.18-11.58-.49-16.41,2.05-3.68,6.14-5.04,9.87-5.01s7.91,1.8,9.8,5.83c2.14,4.57,2.42,11.26-1,15.67ZM673.69,426.15c2.19-3.79,2.17-8.5.28-12.09-1.32-2.5-4.02-3.71-6.63-3.43-5.49.58-7.52,7.44-5.6,13.81.76,2.52,3.06,4.21,5.29,4.6s5.25-.46,6.66-2.89Z"/>
      <path class="cls-1" d="M445.16,429.18c-2.52,3.27-6.5,3.72-10.16,3.47-4.52-.32-8.14-2.69-8.84-7.83l4.19-.72c.77,4.16,3.96,5.53,7.86,4.93,1.04-.16,2.65-1.09,3.35-1.73s.76-3.59-.19-3.89l-9.04-2.86c-2.97-.94-5.09-2.66-5.48-5.54s1.08-5.76,4.01-6.98c5.91-2.46,14.11-.85,14.9,5.9l-4.25.61c-.89-3.76-3.9-4.38-7.38-3.82-1.08.17-2.84,1.3-3.05,2.23-.31,1.38,1.03,2.96,2.37,3.34l8.55,2.41c1.75.49,3.75,2.38,4.24,3.78.72,2.07.34,4.85-1.09,6.71Z"/>
      <path class="cls-1" d="M395.52,416.51l-.16,15.63-4.29-.12v-24.42s3.81-.08,3.81-.08l.28,2.82c3.55-3.93,9.62-4.73,13.96-1.04,1.24,1.05,2.02,3.93,2.03,5.62l.04,17.21h-4.29s-.07-16.47-.07-16.47c-.01-3.07-2.28-5.1-5.35-4.91-2.9.18-5.91,2.23-5.95,5.76Z"/>
      <path class="cls-1" d="M634.87,422.97l4.19.58c-.46,5.3-4.67,9.19-10.17,9.21-5.36.02-9.79-3.33-10.82-8.71-.79-4.11-.62-8.68,1.59-12.35,2.38-3.94,7.27-5.32,11.63-4.49,3.89.75,6.62,3.11,7.43,7.55l-4.17.74c-.71-2.73-2.17-4.34-4.24-4.79-2.46-.53-5.25.45-6.66,2.7-2.12,3.39-1.97,7.97-.7,11.73.99,2.94,3.98,4.26,6.69,3.95,2.83-.32,4.83-2.63,5.23-6.13Z"/>
      <path class="cls-1" d="M553.05,411h-4.77s-.02,21.04-.02,21.04l-4.33.09-.02-21.19c-1.36.08-3,.18-3.46-.38-.54-.65-.09-3.15.75-3.06s2.32.34,2.38-.09l.34-2.56c.24-1.83.45-3.93,1.45-5.23.8-1.03,3.43-2.01,4.75-1.93l4.68.29-.6,3.8c-1.3-.14-4.22-.29-5.08.62-.91.97-.94,3.51-.82,5.06l4.73.15.03,3.38Z"/>
      <path class="cls-1" d="M460.47,428.29l.71,4.04h-4.91c-2.5-.02-4.13-2.46-4.13-4.79l-.03-16.52-2.6-.13c-.63-.03-.46-2.08-.39-2.78.07-.63,1.14-.57,2.86-.47l.22-6.19,4.19-2.54.05,8.53,4.11.16.02,3.31-4.18.15.13,16.2c0,.8,2.34,1.31,3.96,1.03Z"/>
      <path class="cls-1" d="M646.72,432.1l-4.24.03-.02-24.49,3.73-.14.21,2.81c1.09-1.16,2.75-2.98,4.06-3.23,1.81-.34,3.77.37,5.49,1.15l-1.48,3.93c-1.78-.56-3.61-.94-5.01-.25-1.17.57-2.54,2.92-2.55,4.43l-.18,15.75Z"/>
      <rect class="cls-1" x="417.26" y="407.55" width="4.34" height="24.59"/>
      <rect class="cls-1" x="608.54" y="407.56" width="4.31" height="24.57"/>
      <rect class="cls-1" x="380.67" y="407.56" width="4.31" height="24.57"/>
      <path class="cls-1" d="M686.5,438.97l-.99-1.64,2.7-4.83-2.74-.54-.02-4.76,4.93-.02-.09,6.37c-.03,2.23-1.69,4.18-3.8,5.41Z"/>
      <rect class="cls-1" x="417.26" y="398.21" width="4.34" height="4.9"/>
      <rect class="cls-1" x="380.67" y="398.21" width="4.31" height="4.9"/>
      <rect class="cls-1" x="608.54" y="398.21" width="4.31" height="4.9"/>
    </g>
  </g>
  <g>
    <path class="cls-1" d="M675.83,473.22h-9.39s0-3.9,0-3.9h13.67s.02,11.85.02,11.85c-4.87,4.26-11.38,6.04-17.75,4.63-6.02-1.33-10.41-5.66-11.56-11.75s-.08-12.41,4.21-16.83c3.56-3.67,8.8-4.49,13.73-4.03,5.55.52,9.89,3.82,10.84,9.46l-3.69,1.08c-.87-1.7-1.68-3.88-3.25-4.98-4.29-2.98-11.07-2.72-14.61,1.51-4.17,4.97-4.43,13.63-.09,18.49,4.75,5.31,13.02,4.13,17.88.19v-5.71Z"/>
    <path class="cls-1" d="M815.25,485.67l-4.18.05.03-16.04c0-.94-.78-3.11-1.61-3.61-1.54-.95-4.11-.62-5.5.33-1.09.74-2.44,2.9-2.46,4.52l-.17,14.7-4,.1.04-23.21,3.21.08c.56.01.5,1.89.47,2.33,1.99-1.71,4.33-3,6.69-3.07,2.87-.09,5.04,1.05,6.88,3.63,2-2.51,4.62-3.73,7.72-3.6,3.77.16,6.48,2.91,6.5,6.75l.07,17.08h-4.05s-.03-16.03-.03-16.03c0-.93-.9-3.11-1.71-3.6-1.55-.94-4.12-.62-5.53.3-1.12.73-2.39,2.89-2.39,4.54l-.02,14.76Z"/>
    <path class="cls-1" d="M1010.77,483.59c-1.83,1.88-4.5,3.02-7.47,2.61-2.55-.35-5.43-2.02-6.93-4.67-3.8-6.68-1.8-17.55,5.26-19.28,3.6-.88,6.26-.26,8.97,2.33l.09-10.96,4.02.05-.04,32.05-2.71.08c-.53.02-.79-.7-1.18-2.21ZM1009.7,468.25c-1.02-1.96-3.43-3.05-5.42-2.95-5.03.26-7.06,8.1-4.52,14.01.98,2.28,3.44,3.72,5.64,3.54,5.71-.47,7.12-9.19,4.31-14.6Z"/>
    <path class="cls-1" d="M1032.41,485.08c-2.88-1.53-3.51-4.74-2.72-7.65.59-2.18,3.01-4.25,5.83-4.72l9.77-1.62c.37-1.14.12-3.43-.62-4.23-.84-.9-2.97-1.51-4.24-1.58-3.33-.17-5.58.92-6.37,4.34l-4.01-.49c.94-6.77,8.29-8.37,15.1-6.67,2.7.67,4.33,2.96,4.36,5.64l.13,11.85c.02,2,.54,4.06,1.06,5.75h-3.37c-.73,0-1.19-1.19-1.83-2.43-3.63,2.84-8.63,4.17-13.09,1.8ZM1037.08,482.92c2.65.36,5.27-.5,6.79-2.14,1.39-1.49,1.76-4.41,1.58-6.37l-8.55,1.61c-1.78.34-3.27,1.88-3.23,3.6.03,1.42,1.4,3.04,3.41,3.31Z"/>
    <path class="cls-1" d="M737.86,480.75c1.71,1.91,4.32,2.47,6.51,1.9,1.91-.5,3.32-2.09,4.39-4.46l4.14.47c-1.11,4.85-4.95,7.49-9.71,7.62-3.41.09-6.62-.96-8.75-3.27-4.81-5.22-3.94-17.68,3.82-20.39,4.84-1.69,10.24-.55,12.97,3.92,1.52,2.47,1.85,5.47,1.88,8.59l-17.36.04c.2,1.88.75,4.07,2.11,5.59ZM748.7,471.67c-.29-4.72-3.5-6.58-6.96-6.33-3.02.22-5.55,2.73-5.7,6.38l12.66-.06Z"/>
    <path class="cls-1" d="M850.35,478.11l4.3.54c-1.29,5.04-5.28,7.67-10.29,7.63-3.99-.03-8-1.66-9.75-5.52-1.99-4.42-2.03-9.99.63-14.26,3.58-5.74,12.2-6.23,16.69-1.32,2.47,2.71,2.94,6.4,2.72,9.94l-17.13.03c.02,3.6,2.02,6.71,5.11,7.48,3.48.87,6.61-.8,7.71-4.53ZM850.39,471.71c-.1-3.95-2.83-6.44-6.25-6.42s-6.12,2.53-6.37,6.42h12.63Z"/>
    <path class="cls-1" d="M695.67,486.26c-3.24.16-6.55-1.08-8.45-3.09-2.33-2.46-2.86-5.83-3.02-9.17-.33-7.09,4.36-12.38,11.4-12.16s10.58,5.54,10.57,12.12-3.2,11.93-10.5,12.29ZM701.33,478.09c.68-2.55.68-5.73.03-8.03-.85-3-3.44-4.71-6.06-4.74s-5.34,1.59-6.26,4.54c-.78,2.5-.77,5.67-.05,8.17.89,3.1,3.41,4.88,6.29,4.82,2.51-.06,5.19-1.56,6.05-4.76Z"/>
    <path class="cls-1" d="M919.64,486.23c-7.5.7-11.98-4.74-12.15-11.67-.18-7.21,3.95-12.75,11.06-12.74,6.99,0,11.26,5.58,11,12.74-.22,6.04-3.31,11.05-9.91,11.67ZM924.5,479.17c.77-3.17,1.04-6.28.19-9.13-.91-3.05-3.34-4.7-6.15-4.71s-5.33,1.59-6.18,4.62c-.78,2.79-.78,6.22.29,8.94,1.01,2.55,3.53,4.01,5.89,4.02s4.25-1.41,5.96-3.73Z"/>
    <path class="cls-1" d="M787.22,468.89c-.04-3.09-3.88-3.78-6.06-3.29-1.97.45-4.33,2.3-4.36,5l-.15,15.1h-4.12s.03-23.14.03-23.14l3.02-.06c.51-.01.86,1.04,1.27,1.98,3.48-3.03,8.78-3.81,12.74-.46,1.08.91,1.96,3.56,1.96,5.06l.06,16.62-4.15-.02-.22-16.8Z"/>
    <path class="cls-1" d="M874.08,468.93c-.05-3.16-3.84-3.82-6.01-3.34-2.28.5-4.47,2.54-4.5,5.51l-.14,14.58-3.97.06v-23.19s3.08.02,3.08.02c.56,0,.51,1.83.52,2.53,2.38-2.44,5.23-3.58,8.77-3.16s6.46,2.88,6.47,6.65l.07,17.1h-4.03s-.27-16.77-.27-16.77Z"/>
    <path class="cls-1" d="M985.7,468.67c-.06-2.99-4.21-3.61-6.21-3s-4.18,2.58-4.19,5.26l-.06,14.79-4.18-.15.07-23.09,3.27.1c.55.02.52,1.84.58,2.44,3.27-3.59,8.85-4.45,12.97-1.14,1.39,1.11,2.15,3.98,2.16,5.82l.04,15.99-4.15-.02-.32-17.01Z"/>
    <polygon class="cls-1" points="725.25 462.65 729.52 462.61 720.86 485.57 716.87 485.56 708.19 462.6 712.54 462.64 718.88 480.23 725.25 462.65"/>
    <path class="cls-1" d="M943.38,465.58l-4.45.06.02,19.96-4.16.11-.04-20.18-3.04.03c-.67,0-.66-2.13-.25-2.66s1.7-.41,3.2-.32l.21-4.16c.13-2.55,1.99-5.22,4.82-5.21l5.38.02-.73,3.88c-1.43-.35-3.88-.54-4.79.64-.73.94-.69,3.55-.58,4.69l4.4.11v3.04Z"/>
    <path class="cls-1" d="M890.62,482.06c.89.07,2.3.13,2.48.62.22.62.72,2.57.13,2.85s-2.07.46-2.9.51c-3.27.2-5.36-1.82-5.37-4.98l-.07-15.35-2.52-.24c-.61-.06-.55-1.99-.22-2.51s1.68-.49,2.72-.53l.09-5.71,4.09-2.49.05,8.26h3.85s.05,3.1.05,3.1l-3.9.03-.05,14.21c0,.74.91,2.16,1.58,2.22Z"/>
    <rect class="cls-1" x="959.92" y="453.57" width="4.31" height="32.14"/>
    <path class="cls-1" d="M761.64,485.54l-4,.18.02-23.16,3.03-.06c.49,0,.82,1.02,1.26,2.04,1.83-2.93,5.3-3.57,8.37-1.35l-1.22,3.56c-1.83-.48-3.51-.76-4.83-.21-1.11.46-2.35,2.7-2.38,4.05l-.25,14.94Z"/>
    <rect class="cls-1" x="1020.79" y="462.5" width="4.03" height="23.21"/>
    <rect class="cls-1" x="1020.79" y="453.57" width="4.03" height="4.76"/>
  </g>
  <g>
    <path class="cls-1" d="M820.21,355.04l-.08,14.76c-.66-.14-1.76-.83-1.77-1.29l-.07-4.54c-2.8.81-5.39,1.26-8.26.18-1.04-.39-2.34-2.65-2.8-3.76l3.45-1.19c.62-.21,1.46-1.58,1.54-2.22s-1.07-1.95-1.88-1.95l-18.63.02-.36,14.91c-1.97-1.98-.86-4.63-.63-6.64-2.24.09-4.17.02-6.58-.96l6.2-1.14v-5.98s-6.76,0-6.76,0l-.22,3.76c-.05.78.46,2.42.7,2.79-2.59-.36-3.62,2.83-5.36,1.59-1.01-.72-1.67-2.4-1.03-2.99l3.71,1.19.17-6.48-4.99-.12-1.12-1.87h59.93s1.04-.93,1.04-.93c.03-.02.68.63,1.01.93h19.66s.63,1.77.63,1.77l-3.3.39-.04,14.66c-1.33-1.61-1.16-3.53-1.1-5.65-2.95,1.18-6.43,1.96-8.95.56,3.79.23,8.91-2.05,8.69-3.74-1.81-1.53-5.88-2.38-8.44-1.17-.41,1.16-.42,2.96-.4,4.51-.66-.33-2.38-2.51-2.06-3.46.63-1.93,3.01-3,4.79-3.33,2.09-.39,3.53.7,6.26,2.47l.11-5.06-16.31.02-.3,14.81c-.73-.63-1.19-1.6-1.16-2.27l.24-4.95-6.99.08-.51,3-3.58-3.63,2.84-1-.03-6.05-7.25-.02ZM817.96,361.72l.34-6.44-4.88.16c.02,2,0,3.72-.74,4.08l-3.15,1.51c-.1.96,1.68,2.42,3.35,2.57,1.33.12,5.01-.35,5.09-1.88ZM835.61,355.23h-6.84v6.21h6.84v-6.21Z"/>
    <path class="cls-1" d="M882.25,361.97l-3.97-3.88,9.68-.02-.07-3.03-15.55.03-1.04-1.94h50.99c.34-.35.79-.92,1.01-.82l1.51.67,1.96.3c.37.06.45,1.25.44,1.67l-3.21.17-.09,14.86c-.78-.19-1.79-1.53-1.79-2.34l.04-8.4c-2.72-.15-5.05.11-7.58.98l-.86,3.65c-.25-.48-.66-2.84-.28-3.61,2.87-3.77,8.85-1.25,8.75-2.67l-.19-2.52h-14.77s-.14,15.14-.14,15.14c-1.94-1.77-1.64-3.92-1.62-6.45-3.05,1.72-7.55,1.34-9.81-.92-.41-.41-1.19-2.1-.74-2.29l2.03-.88c.64-.28,1.76-1.11,2.09-1.71s-.22-2.31-.76-2.85l-9.08-.06-.21,14.79c-.14-.04-1.15-1.14-1.15-1.45l.12-9.14-6.81-.02,1.41,2.5c.12.08.35.19.4.27.44.71.8,2.24.67,3.16-.12.82-2.02,1.76-2.85,1.67-3.22-.34-5.97-2.39-6.61-5.4,3.27,3.85,6.92,4.44,7.54,3.04l.92-2.06-.39-.44ZM905.28,361.8l.02-6.56-4.82.13c.15,1.53.26,3.97-.66,4.33l-3.53,1.36c1.58,3.01,6.36,3.55,8.99.74Z"/>
    <path class="cls-1" d="M799.99,360.11c-2.59,1.54-.71,4.41.42,6.47-1.95-.61-3.39-3.63-2.59-6.06.76-2.28,5.98-3.29,9.54-2.09-2.53.95-5.42.52-7.37,1.68Z"/>
  </g>
  <path class="cls-1" d="M915.21,320.28c.59,3.19.98,6.48-1.46,8.79-2.08,1.97-5.33,4.38-8.65,4.4l-108.78.71c-4.46.03-8.44-.43-12.11-2.33-4.91-2.53-6.8-8.03-4.04-12.95l-11.08-1.1c-6.99-.69-12.18-10.34-12.6-16l-.8-11.06-2.32-1.12c-.51-.24-1.74-7.02,2.78-8.93l.66-12.79,1.1-5.85c.59-3.15,2.69-3.12,4.51-4.23,1.44-1.39,2.44-4.41,5.4-4.94-1.23-2.78-2.03-4.86-1.33-8.06,1-1.85,2.86-3.92,5.04-5.7.43-2.26,1.37-5.13,2.96-6.26,2.21-1.57,4.73-1.14,7.46-.25,5.59-2.72,5.47-11.7,6.04-18.83l.9-11.22c-.37-7.91-2.67-15.31-3.04-23.1l-.59-12.52c-3.82-1.19-4.05-4.02-3.8-8.71-3.43-.92-5.65-3.57-5.55-7.36-3.12-1.92-4.8-4.91-5.42-8.47l-2.16-7.32c-.98-3.32-1.69-6.3-1.16-9.19-1.91-4.46-2.63-9.14,1.85-12.57-1.59-3.38.44-6.2,1.46-8.98,1.21-3.26,2.16-6.26,4.06-9.17l.06-5.98c-2.72.7-1.64,6.32-6.73,6.72-2.41.19-4.81-.92-5.62-3.47-.46-1.43-1.47-2.4-2.69-3.41-2.8-2.29-3.92-6.19-4.96-9.92-3.55-.5-6.13-2.8-6.39-6.61-3.91-1.67-5.27-5.24-3.68-9.2,2.65-5.72,7.85-8.06,7.9-12.94.12-11.27,12.77-8.77,14.79-14.76,1.03-3.06,1.94-5.23,3.87-7.58,4.52-5.49,6.54-1.14,9.69-4.56,2.44-2.65,5.76-2.86,9.14-2.07,2.84.66,5.34,3.05,7,5.68,5.06.47,10.03,1.89,14.75,4.32.88-3.18,1.68-5.98,3.56-8.04,1.96-2.15,2.34-4.51,1.34-7.34-1.27-3.57-1.51-8.04,1.29-10.91,2.48-2.54,6.23-1.54,9.29-1.88l7.18-.82c1.78-1.41,4.17-2.15,6.63-1.06,2.71-1.94,6.04-1.83,8.1.46l6.56-.87c2.5-.3,4.95-.02,7.32.78,2.56-.64,5.09-.63,7.75.09,2.71-.16,6.02-.39,8.38.51,3.91,1.49,4.16,5.62,4.13,9.08,3.03,3.36,4.34,9.4,3.01,14.12,3.98,2.58,5.37,6.52,6.13,11.58,3.38-2.98,7.25-3.46,10.87-3.82,3.5-4.24,7.73-7.44,12.8-7.97,9.19-.96,18.44,4.44,19.39,14.42,1.32,1.46,4.48,2.53,6.65,2.58,5.38.12,8.9,3.64,8.91,9.09.01,9.21,6.76,10.64,8.38,18.33-1.09,5.41-8.13,10.86-13.31,14.22l-1.81,4.07c-.8,1.8-2.54,2.39-3.82,4l-4.39,5.51c-1.92,2.41-5.81.34-7.04-2.12-.97-1.95-2.02-3.87-3.35-5.5-.92.49-1.9,1.62-1.81,2.24.51,3.45,4.71,3.93,3.76,8.62,2.68,2.3,4.01,5.49,2.65,8.89,1.8,3.2,1.96,6.6.82,9.97,1.25,1.49,2.41,4.14,1.58,6.04l-2.93,6.68c.58,4.05-.17,8.14-3.61,10.85,1.43,3.73-.33,6.86-3.7,8.76-.61,2.81-1.82,5.27-3.73,7.34-.29,2.83-1.81,5.01-4.05,6.7l-1.28,4.61c-.47,1.71-1.3,3.4-2.43,4.89-.69,7.39-.08,14.92-1.47,22.3l-3.98,14.94,3.95,11.79c1.81,5.41,2.56,12.11,7.77,10.38,4.07-1.35,7.73.82,8.51,4.97.64,3.38,5,3.64,5.89,6.95.46,1.73-.27,3.73-1.03,5.35l-.79,1.69c-.44.93,2.8.88,4.48,6.09l2.51,3.86c1.4,2.16,3.3,3.9,3.66,6.47l1.35,9.49c2.09.6,3.15,2.06,3.31,4.27.24,3.25-.86,5.44-3.52,6.59l-2.66,10.38c-.73,2.85-3.3,4.86-4.73,7.09-1.94,3.03-3.32,6.03-6.53,7.96-3.66,2.2-7.63,3.45-12.37,4.2ZM868.29,3.87c-2.53-1.28-4.88-.08-5.98,2.25-1.17,2.48-2.07,4.82.15,7.73,3.4-4,2.16-8.32,5.83-9.99ZM833.51,53.62l-1.98-5.9c-.84-2.5,1.06-4.29,2.2-5.76l4.57-5.85c-1.3-.17-3.85-.94-5.27-1.82l-4.55-2.81c5.8-1.36,8.58,6.43,16.29-.23l-3.1-.47c-.61-.09-.57-2.03-1.01-2.52-3.52-3.92-7.55,4.35-10.72,1.77l7.64-5.26c1.72-1.18,4.12.61,4.97,2.13l1.74,3.14c.61-2.51-.45-4.22-1.98-5.59-1.03-.92-3.91-1.59-5.09-.76l-7.28,5.1c2.1-3.22,4.23-5.21,7.04-7.73,1.56-1.39,5.27-1.02,7.22.13,3.16,1.87,6.67,5.77,5.75,9.46-.76,3.07-1.89,5.32-1.83,8.43,4.07.08,6.45-.07,10.25-.73l-2.09-8.08c.22-5.16,5.77-10.3,11.26-9.16,4.53.94,8.16,8.34,6.38,7.23-2.56-1.61-4.97-5.57-8.21-4.57-4.37,1.35-6.02,5.88-6.31,10.12l8.55,1.14,4.86-3.39c.28-.2,2.14-.04,2.01.28-.09.22-.23.61-.41.75l-.87.68c-1.84,1.99-3.83,3.69-5.9,4.59,3.92.23,2.48,4.66,6.42,7.36.55-6.89,7.29-5.6,5.65-9.48l-2.87-6.8c-.93-2.2-.72-6.16-3.1-7.56l-6.1-3.59c-2.89-1.7-6.49-2.58-9.55-3.17l1.63-10.04c-.34-1.14-3.77-1.1-3.98.12-.55,3.29.37,5.8,1.34,9.01h-3.92c.58-2.99.83-5.92.62-8.91-.66-.49-2.39-.44-2.99.06-.51.43-1.1,2.17-.84,2.81l2.21,5.44c-1.69,1.01-3.82,1.48-5.61.97,1.45-3.9,2.02-7.69-.36-10.42-1.04.12-2.57,1.02-2.79,1.8-.89,3.21,2.07,5.43,2.3,8.9-6.42,1.81-11.77,3.56-16.94,7.51-2.86,2.18.89,5.77-2.97,9.61-.99.98-1.81,3.08-1.62,4.44.47,3.33,5.17,3.99,6.5,8.79,1.14,4.1-3.95,4.72-3.92,5.71.07,2.2,2.9,3.42,1.62,7.39-.65,2.03-.27,4.47,1.2,5.84l4.29.35,2.05,5.16c1.58-.77,2.34-3.15,1.62-4.73-.47-1.02-2.41-1.61-3.64-1.9-6.35-1.51-1.94-6.17-5.02-12.61l4.57,4.24.08-.66ZM816.47,50.26l-1.79,1.29c-.27.19.5,1.42.84,1.59,2.17,1.15,6.51.14,7.41-3.02l1.62-1.1c.37-.25.03-1.72-.14-2.19l-2.9-8.12c-1.03-2.9,2.67-6.31,2.74-9.11.09-3.99.39-7.05,4.36-9.15,1.02-.54,2.14-2.77,1.97-3.9-.49-3.21-1.74-3.32-2.93-5.28-.18-.29,1.52-.28,1.78-.05l4.81,4.4c-.08-2.59-1.44-4.47-3.68-5.95,3.95-.29,4.43,2.72,6.99,5.96l.5-4.93,2.86,4.13c2.25-3.2.73-6.7-.31-9.8-.59-.24-2.19-.28-2.67.16s-.83,1.87-.82,2.52l.47,2.86-4.68-4.05c-.53-.46-2.5-.86-2.83-.36l-1.37,2.11c-1.89-.22-5.02-.67-6.61.39-2.29,1.52-2.83,5.36-2.03,6.92l3.37-1.08c-1.91,3.87-2.25,5.52-.85,8.68,1.03,2.32,1,5.53-1.32,7-.26-2.81-.36-4.69-1.58-6.73-2.03,2.43-3.36,4.32-4.07,6.63-1.11,3.61.85,6.83,3.56,8.97,2.28,1.8,3.86,5.16.84,7.16l-2.4-3.49c.17-1.26.28-2.32-.12-2.78-.33-.39-1.46-.86-2.08-1-2.12,5.34,1.92,7.59,1.07,11.33ZM884.63,61.59l2.32-4.36-.05-5.78c-.02-1.83-.57-3.43-.05-5.52.4-1.61-.92-3.23-2.22-4.2.82-1.9,2.33-4.16,2.18-6.1-.32-4-4.53-5.91-4.57-6.68l-.1-2.07-1.77.44c-.29.07-.3-1-.11-1.25l.65-.87c.79-1.06,1.97-2.44,2.16-3.43.16-.88-.71-2.78-1.26-3.6-2.37-3.53-1.49-6.21-3.66-5.71-.47.11-1.09,1.58-.91,2.03l1.71,4.42-7.25-3.89,6.55-4.44c.86-.58.78-2.82.18-3.63-2.19-2.93-7.38-1.51-10.53,1.05-1.91,1.55-2.25,4.36-1.17,5.86,2.8-4.88,7.02-6.93,7.73-4.78.19.57.08,1.88-.24,2.2-1.25.06-2.84.01-3.62.35s-1.83,2.48-1.43,3.23c.78,1.44,3.28,2.71,4.96,3.23,3.29,1.02,5.54,4.6,4.46,7.87-2.58,7.86,7.19,9.67,3.32,18.87l-3.02,2.57.74,7.02-1.55-1.16c-.22-.16-1.12,1.12-1.05,1.41l2.21,9.49,3.3,2.68c.53-2.84-.11-5.02-.71-8.73l2.83,3.51ZM784.66,55.33c.95.3,1.89,2.04,1.54,3.16-1.02,3.3-4.04-.59-5.2,1.01-.35.48-.13,2.29.38,2.56,2.97,1.56,6.86.63,7.54,3.43.24.98-.7,2.67-1.58,4.18,1.8.16,3.01-1.51,3.59-3.44,1.8-6.03-3.99-8.57-4.14-10.4-.02-.22.65-.53.83-.4l.97.71c.93.69,2.55,1.56,3.61,1.54,1.78-3.48,1.17-7.1-1.47-9.87l2.85.75-1.39-5.08c1.95-.42,3.26-2.26,2.91-4.04l-1.68-8.53c-.51-2.59-2.41-4.72-4.75-5.13-2.64-.46-4.94.87-6.31,3.45-1.78,3.35-3-1.35-7.15-1.46-.46,2.82,3.54,2.58,3.29,5.14l-3.42-1.98c-.71-.41-2.38.98-2.92,1.8-1.51,2.28-.34,6.83,2.48,7.25l5.39.82c1.04.16,2.7,1.57,2.75,2.53.16,3.36-3.71,4.28-3.71,7.37,2.69-.37,5.64-1.98,6.34-4.71.5-1.95.14-4.76-1.01-6.27-.83-1.09-2.93-1.81-4.83-2.46.57-.84,2.9-1.54,3.93-.85,2.61,1.77,4.49,4.06,4.82,6.5.38,2.89-.12,6.38-2.42,8.19-1.84,1.45-4.02,1.44-6.7,2.46l5.46,1.75ZM910.5,76.78c2.4-.82,4.2-2.15,6.18-1.27-.89,4.5-6.57,4.62-6.69,9.44-.05,1.93.88,3.8,3.09,4.03-.6-1.35-1.73-3.59-1.18-4.53,1.23-2.09,4.77-2.29,6.33-3.34,2.91-1.96,2.66-6.4,2.88-9.46-.91.71-2.59,2.42-3.61,2.54l-6.12.73c-.41.05-1.26-.85-1.24-1.26.02-.27.35-1.37.6-1.47l4.44-1.91c2.36-1.02,5.12-2.1,5.74-4.78l1.59-6.87c-2.43-.07-4.86,1.77-5.14,5.04-.86-.09-2.15-.5-2.39-1.1-1.19-3.04,2.12-6.32,6.56-7.89.42-2.24.9-4.33,1.81-6.78l-2.18,1.72-.33-5.27c-.05-.86,1.7-2.81,2.47-2.43l2.85,1.4c3.48-.51,5.34-4.94,3.75-7.93l-2.71,2.24.5-4.38-2.87,2.66c.72-2.75-.11-5.21-2.61-6.45-3.15-1.57-6.96-1.38-10.35.72-2.26,1.4-3.99,4.71-4.97,7.92l-5.74-.68,1.13-2.17-6.09,3.15c-2.92,1.51-5.56,5.02-6.15,8.46-.78,4.49,4.35,9.32,4.49,7.4l.11-1.49c0-.62.11-1.87.64-2.06l2.11-.78c3.93.76,7.1-1.83,7.05-5.7l1-4.76c2.36.97.11,4,2.6,6.6l2.54-2.63c-.69,5.85-6.12,10.18-4.78,13.75.47,1.25,3.92,1.64,4.31.72.12-2.19.34-4.76,1.52-6.25.84-1.06,3.5-1.54,5.11-1.9.76-.37,1.71-2.07,2.44-3.3,2.02,2.71.27,5.94-2.46,7.52l-5.09,2.94.8,4.54c.16.89.97,2.76,1.85,2.8l4.4.22c-.51,1.49-2.17,3.2-3.82,3.44-1.22.17-3.29-1.27-4.53-2.13-4.33.99-3.54,10.83.17,11.01ZM803.94,33.86c-2.31-2.46-3.79-3.1-6.51-3.37l-.1,3.59,6.61-.21ZM813.24,39.5c-1.21-3.52-2.73-7.22-7.23-8.03,1.36,2.8,2.94,4.94,5.27,6.62l1.96,1.41ZM803.94,61.84c2.15-.75,3.76-1.92,3.78-3.66.03-1.93-1.29-3.79-2.53-4.29-2.4-.98,1.6-5.51,6.7,6.91.36-1.63-.08-3.49.04-5.47l.36-5.95.13-7.51c-3.65-4.12-9.2-6.22-14.46-5.69l-1.51,5.74c2.25,5.73,7.28,1.47,9.53,4.12.74.87,1.23,3.3.78,3.79-4.88.56-9.05-1.03-10.24-5.17l-.73,6.88c1.79,2.62,4.55,4.1,7.49,5.4,1.48.65,1.25,3.42.66,4.92ZM833.8,54.69c1.57,3.09,4.21,3.76,7.15,2.73,4.64-1.62,8.22-3.83,11.46-8.04l2.94,3.52c2.69,3.22,6.8,4.67,11,4.05,3.64-.54,5.86-3.57,9-6.71-3.56,6.83-1.49,12.43-8.15,13.57l1,5.35,2.34-5.19c1.67-.31,3.35-.69,4.14-1.29,2.06-1.56-.6-6.34,1.12-9.66.48-.93,1.2-2.75.8-3.47s-1.62-1.32-2.49-1.64c-1.25,3.59-3.87,5.59-7.47,6.07-5.1.68-11.14-1.41-13.61-6.54,3.91,2.55,6.68,4.33,11.08,4.08,2.12-.12,4.37-.25,5.9-1.57s2.72-3.27,1.24-5.69c-1.95,4.36-5.34,6.15-9.56,5.19-2.21-.5-5.3-.75-5.54-3.73,3.78,3.12,8.09,3.93,11.57.88,2.19-1.92,1.82-5.74-.49-7.19-.15,1.35-.5,3.94-1.41,4.73-2.03,1.75-5.89,2.49-8.17.56,2.42-.26,4.57-.35,5.72-1.54,1.3-1.34,1.4-4.1.6-5.16-.23-.31-1.84-.56-1.87-.18l-.1,1.31c-.22,2.84-1.79,3.92-3.92,5.02-3.95,2.03-6.81,2.25-10.51-.13-1.3-.74-4.54.06-5.48-2.38.12,3.06,2.77,3.8,5.45,4.59-1.32.43-4.79.82-6.04-.23-1.82-1.53-2.81-3.81-4.16-5.73-1.53,3.95,2.01,7.77,5.88,7.49l5.47-.4c-2.14,2.38-5.48,3.15-8.79,2.38-3.12-.72-6.2-7.66-6.19-5.25.02,3.7,3.71,6.6,6.45,6.89,4.14.44,6.89-2.04,10.93-3.46-2.37,4.1-7.88,5.8-12.41,5.45-1.51-.12-3.75-1.82-5.1-2.47.83,3.49,4.02,3.89,7.03,4.28-2.3,2.47-5.35,1.27-6.59-.82l-.23.33ZM770.51,66.3l-4.61-2.63c4.17,3.76,3.05,6.74,6.24,8.77,1.54.98,2.6,3.01,2.48,4.65-.08,1.24-2.11,3.08-3.5,3.27-3.1.41-4.66,1.37-6.75,3.44l-3.02,2.99,4.33-.69c-.93,1.73-2,3.72-1.39,4.86.47.88,3.33.67,4.02-.05.63-.65,1.02-1.96,1.56-3.44l1.25,2.06c.52-1.6.97-3.34,1.75-4.13s2.82-1.18,4.46-1.44c-.59-3.72-.56-7.49,1.62-10.61-1.61-3.62-1.91-7.63-.65-11.34,1.03-1.16,1.45-3.51.69-4.5l-2.48-3.26c-1.74-2.28-5.29-2.4-8.62-3.28,3.96-2.58,9.6-1.61,9.99-4.75.31-2.52-5.16-2.48-9.74-6.98-4,5.17-11.49,4.36-13.01,9.15-.57,1.78.21,5.77-.96,7.08-3.06,3.42-5.45,6.1-7.4,9.97l3.14,3.19c4.77-.39.88-6.29,8.09-8.51l1.82-6.57-3.02,1.48c-1.38-2.26-.76-6.79,1.92-7.85,3.62-1.43,7.45,1.87,8.48,5.43-2.53.39-5.87,1.09-6.45,3.45-.16.67.61,2.51.24,3.08-1.33,2.02-5.97,2.95-5.14,6.37l5.9-4.84c1.67-.59,5.06-.59,7.1-.08l1.62.4c.31.08-.59.99-.96,1.42.5.3,3.14,1.07,3.83.4l2.69-2.61c-.03,2.97-2.77,5.42-5.5,6.08ZM945.84,81.2c.38-3.8-.13-3.82-.7-7.14l3.85,3.82c.24-2.4-1.28-3.72-3.56-5.16l1.31-1.63,4.88,5.33c1.47-3.1-.68-6.29-4.11-6.86-.61-.1-1.52-1.31-1.35-1.88s1.91-1.37,2.47-1.06c1.61.9,2.91,2.76,4.14,4.86l3.63-2.64c-1.14-3.83-3.16-5.75-5.92-8.31-3.66-3.4.97-13.12-7.43-14.45-3.28-.52-6.41-1.45-9.45-3.04-3.68-1.92-3.08,3.84-8.65,4.58-1.36,2.19.28,6.73,2.18,7.03.77.12,2.12-.38,3.41-.83,1.04-.36,2.91,1.13,3.96,1.91l1.8,1.34c.37.28-.53,1.48-1.1,1.97-2.82-2.43-8.48-3.04-10.83-.08l.42,9.27c3.48,1.18,6.54-1.6,7.23-1.09l1.15.84c1.48-1.1,4.05-1.8,5.59-.31,2.14,2.07,3.57,4.73,4.45,7.31l-1.56,1.98,4.15,4.26ZM894.2,62.92c.25-3.51,1.74-3.73,3.84-3.89l4.73-.35,2.71-9.33-4.18,3.99c-1.43,1.37-4.25.36-5.34-.35-.86,4.44-4.42,4.44-3.91,7.49.21,1.28,1.13,2.21,2.15,2.44ZM825.9,55.41l-1.49,5.94-1.6-7.93c-1.47,2.74-3.59,3.95-7.24,3.92-.52,4.81,3.65,6.4,5.63,11.05,4.86-.21,6.2-7.99,4.7-12.98ZM894.15,94.29l-.81,1.12-3.98,4.7c-3.06-6.79,4.92-7.92,3.27-14.61l-3.72,3.85-2.09,2.72c-.73-2.6-.14-4.9,1.42-6.39,2.3-2.21,2.4-4.36,2.54-7.36l.15-3.23c-4.08,1.8-4.68,5.48-5.32,9.57-2.92-4.07.26-7.86,2.56-10.89l1.42-6.24-2.82,1.43,2.3-3.65c-1.99-5.19,4.03-8.42.35-10l-2.5,10.19c-.34,1.4-1.79,3.37-2.65,4.87l-.54,5.7c-2.12,2.39-1.11,4.59-.46,6.91l1.67,5.98c.48,1.71-.06,4.4-.74,6.56,6.16,4.41,2.18,8.97,4.67,13.68,1.34,2.53,1.33,4.99.12,7.53l2.1,3.27c.39-4.68-.07-8.39,3.22-11.11,2.29-1.9,3.77-5.29,1.76-7.59-2.27,4.51-5.02,3.78-4.29,9.66-1.23-1.85-1.83-4.79-1.77-7.21,6.87-6.51,4.78-10.3,4.17-9.46ZM802.88,70.82c.91-.21,2.54-.96,3.22-1.77s.6-3.71-.34-3.84c-2.44-.35-3.75-2.38-4.16-4.3-1.79-.88-3.97-2.15-5.1-4.14l-.99,4.68c-.17.78-.05,2.99.68,3.19l2.64.74c1.03.29,2.49.93,3.43,1.65.7.53.85,2.06.63,3.79ZM856.16,64.71c-.52.49-1.85,1.11-2.4.87s-1.05-1.58-1.01-1.94c1.62.01,2.82-.12,3.4-.81.69-.83,1.29-2.08,1.38-2.89l-5.59-2.18c-1.42,1.01-2.47,1.31-4.29,1.84-1.38.4-1.82,2.76-1.16,4.24.42.95,1.82,2.12,3.11,2.56,4.48,1.52,9.79.32,10.4-5.3l-3.82,3.62ZM857.12,74.74c2.19.21,6.03-.73,7.47-2.55,1.9-2.4,1.02-6.03.46-8.64l-.44-3.87-2.43,3.83c-2.3,3.63-4.86,6.37-9.08,6.2s-6.58-2.24-8.98-5.7l-2.93-4.23-1.62,7.55c-.42,1.94-.26,3.91.91,5.52,2.4,3.32,7.72,1.05,16.64,1.89ZM903.88,76.26l-.16-5.45c-2.76,1.68-6.18,2.2-7.94.78-.63-.51.1-2.76.77-2.93,2.7-.71,6.56.48,11.63-4.42-2.15-.55-3.66-1.78-4.97-3.2l-5.83,2.22-3.22,3.31c-1.79,1.84-.49,6.61,1.33,6.55l2.9-.1c.08.81-.88,2.7-1.81,3.66-1.83,1.87-.93,5.11,1.37,6.02l.15-3.43c.05-1.17,5.85-.63,5.78-3.01ZM755.27,74.36c-.26.43.34,1.82.58,1.51,1.26-1.63,1.93-5.81,8.55-11.58l2.17-1.89c-5.03.55-7.34,3.36-11.19,4.75-2.34.84-4.3,3.14-4.62,5.69,1.62-1.58,2.97-2.8,4.93-3.48l-3.09,5.84,4.25-4.6c-.21,1.27-1.03,2.81-1.59,3.76ZM788.18,93.53c2.66-1.74,2.98-6.68,1.08-8.23-.78-.63-3.66-.63-2.9-2.29.8-.14,3.12-.72,3.57-1.6.9-1.76.87-5.91-.48-7.04-2.25-1.6-3.89-3.27-3.33-6.29-3.36,1.17-4.74-1.31-6.44-3.83.9,9.6,13.4,12.19,6.76,17.48-1.28-2.55-3.25-4.52-5.98-6.12-1.34,9.64,11.33,10.41,4,17.77.2.93,2.3,1.08,3.73.14ZM787.99,121.21c1.71.77,1.92,2.51,1.69,4.1-.15,1.07-2.34,2.61-3.25,1.96-1.13-1.73-2.27-3.36-4.04-4-2.68,8.7,8.16,8.55,7.48,12.29-.16.9-1.4,2.04-2.53,3.17,1.02-.04,2.89-.74,4.04-1.92.86-.89.69-3.99-.24-5-.77-.83-2.37-1.79-3.96-2.87,2.43-.54,4.88-1.17,5.61-2.75,1.13-2.45.2-4.55-1.5-6.26l-.76-.76c-.15-.15-.15-.78.06-.72l1.59.39c1.05.26,2.75-.86,3.39-1.98.55-.96.31-3.42-.41-4.21l-3.6-3.95c2.39-.13,4.8-.14,5.85-1.29,2.36-2.58.8-6.2-1.99-7.74-.85-.47-1.71-2.42-1.5-2.9,1.75,1.04,3.14,1.66,4.57,1.25s2.28-2.19,2.41-3.84c.16-2.09-.44-3.36-2.14-4.99,2.46-.1,4.68-.86,5.39-3.33.52-1.81,0-4.11-1.77-5.04,2.05-.57,3.69-1.49,4.39-2.72.54-.95-.26-3.3-.98-4.04-2.69-.18-4.14-1.14-5.37-3.15-2.66-1.11-5.03-2.97-6.41-5.52l-2.71,8.08,2.1,6.26c1.73,5.14,6.9,4.21,7.11,5.74l.36,2.78-4.07-1.3c-2.09-.67-3.26-2.06-4.79-4.16-.57,1.27-.63,3-.32,4.52,1.23,6.01,8.05,4.36,4.72,9.59l-4.28-3.81-3.19,4.96c.78,3.49,8.38,5.95,4.84,8.8-1.1.88-3.52-1.17-4.01-3l-3.63,3.57,5.41,4.58c.97.82,1.11,4.35-.06,4.8-1.8.61-3.76-1.2-5.28-1.95-1.02.56-1.58,2.74-1.11,3.74.44.93,1.44,1.98,2.89,2.63ZM873.68,76.04l-3.37-.87,3.43,4.06c.75.89-.76,3.75-1.52,4.65,3.01,1.2,3.56-2.81,4.99-3.82,3.76-2.66,6.61-5.71,5.73-10.7l-5.3-3.25c.6,1.76.71,1.64,1.87,3.03l-2.48.89c2.34,1.68,2.37,5.73-.26,7.23.66-2.81.42-5.25-1.76-6.46l-1.16,3.22c-.16.46-.1,2.05-.17,2.01ZM758.79,74.56c-2.22,2.29-.78,4.43,1.18,6.01-2.2.94-2.61-1.25-3.58-2.56-.9,2.44,3.04,4.35,2.68,5.09l-.86,1.77c4.83.79,6.02-5.34,11.12-6.72,1.01.68,1.26.92,1.64.65.31-.21,1.06-1.92.87-2.24l-5.17-8.57c-.31-.51-1.85-1.2-2.42-1.25s-1.36,1.13-1.55,1.72l3.14,1.16c.98,3.43,5.74,5.92,3.02,7.65l-5.33,3.4c0-1.98,2.69-3.19,2.07-3.78l-1.14-1.07c-1.15-1.09-.42,2.71-.81,2.65l-1.64-.29-.67,2.76-2.55-6.37ZM830.42,77.37l2.96-1.11c.46-.17.39-1.77.3-2.31l-2.56,1.55-.97-4.74-1.94,3.63-2.55-7.92-3.57,6.27-4.27-5.46c-1.06,2.98,1.02,5.77,4,7.33,3.45,1.8.46,6.72,6.01,8.33.2-2,.98-4.97,2.6-5.57ZM936.88,91.95c-1.91-2.6-2.37-4.04-1.11-7.17-4.42,1.69-8.48,1.26-10.14-2.68-.62-1.45.05-3.88,1.33-4.01,2.46-.26,2.99-1.28,3.45-3.32l1.35-6.07c-2.2,2.82-5.25,4.7-8.68,3.98,1.76,5.39-.11,9.43,1.06,13.43,2.66.46,4.59,1.05,6.15,2.55l1.05,4.39c1.42,1.79,5.62.88,5.55-1.09ZM934.41,72.96l2.19-3.89c-3.3,1.29-5.05,4.6-4.17,8.34l1.98-4.45ZM800.11,110.77c-2.06,4.19,1.67,4.65,1.62,7.5-.02.95-1.33,2.56-2.03,3.24,1.14.98,1.96,2.21,2.41,3.63l.36,1.13c.07.23.99-.03.93-.26l-.34-1.12c-.89-2.95-.96-6,1.32-8.25-1.74-2.95-.98-6.32,1.21-8.89-.66-3.24.62-6.21,3.13-8.28-.68-3.72-.06-7.28,3.14-9.33-.68-3.06,1.05-5.24,2.51-7.34-1.8-5.23,1.45-7.1-1.26-8.93l-.45,3.82-4.02-6.18c-.46-.07-1.36,1.96-1.08,2.83l1.49,4.68c.85,2.67,2.99,5,1.28,8.42l-2.66-4.71c-.6.18-1.9.73-1.76,1.12l.52,1.36c1.35,3.56,2.32,7.09,1.09,11.21-1.09-2.63-1.67-5.03-2.05-7.6l-1.96,3.38c.54,1.32.54,2.41.7,3.93l.71,6.85c-.36.08-1.8-.01-1.89-.49l-.46-2.45-1.59,1.3,1.85,9.33c.1.48-1.02,1.46-1.35,1.2l-1.39-1.1ZM940.55,79.54l-2.86,3.61.06-1.95c0-.28-.31-.66-.58-.55l-1.53.64-.22-2.17c-.04-.35-1.16-.73-1.34-.42l-.82,1.4c-.26.45-1.84,1.26-1.95.73l-.43-2.07c.68-1.01.48-1.39-.48-.64-.72.85-1.55,2.36-1.15,3.01,1.28,2.05,5.27.07,7.81,4.41.74,1.27,2.45,2.92,3.2,3.33,1.34-3.05,3.73-2.64,3.97-4.92.05-.52-1.39-1.44-1.7-1.03l-1.24,1.61c-.26.34-.95.87-1.3,1.11-.23.16-.68-1.04-.47-1.23l.98-.85c.51-.44,1.35-1.61,1.61-2.21s-1.37-2.08-1.56-1.82ZM841.58,81.85c-1.2,1.17-1.7,1.68-1.89,1.36l-.87-1.46-1.57.97-1.14-2.94c-1.28-.1-2.12-.37-3.27-.92-.74-.34-2.2,1.17-2.3,2.01-.34,2.99,3.12,2.64,4.34,6.11.89,2.55,3.16,3.82,5.52,3.38-.77-3.19-.03-5.06,1.97-7.58.16-.54-.63-1.4-.81-.92ZM863.21,83.88c.57.87,1.71,2.83,1.22,3.71l-2.07,3.67c1.72-.14,4.13-.59,5.65-1.36,2.79-1.4,2.99-4.57,1.92-6.96.56-.7,1.39-1.88.94-2.29l-1.68-1.5-1.1,3.34-1.6-2.14-.95,3.31-1.78-1.38c-.33-.26-.78,1.26-.55,1.6ZM915.69,101.23l-4.55,3.25c-1.22.87-2.01,2.26-2.67,4.27-.14.43-2.51-.81-2.47-1.63.33-6.21,7.59-5.48,6.37-11.4-3.44,2.57-6.25.67-8.81,3.71-.69-.66-.52-4.18.72-4.69l5.27-2.14-2.21-3.68-3.37.96c-.86.24-1.71.33-1.96.76l-1.07,1.86c-.59-.31-.67-3.04-.18-4.11,1.08-2.4,5.36-1.86,6.88-5.17.48-1.04.08-2.82-.77-3.87l-6.24,1.91c.65,1.04,1,2.6.42,3.06l-2.73,2.18c-1.3,1.04-.25,4.41,1.09,5.66,2.53,2.35-.09,5.46,3.82,8.09-1.09,4.46,1.58,8.07,5.33,10.29,1.31,6.66,6,4.97,7.04,8.63.21-1.89,1.19-3.6,2.45-4.87l4.63-4.66-3.14-2.72c-2.74,2.46-4.11,4.52-4.6,8.11-.62.13-2.24-.15-2.81-.7-1.68-1.64-.61-4.87,2.66-7.54.89-.73,2.05-1.92,1.97-2.77-.06-.73-.78-2.38-1.05-2.77ZM847.04,82.91l-1.84,2.44-1.02-2.71c-.77.94-1.77,2.21-2.07,3.04-.41,1.14,2.25,5.56,4.94,5.73,2,.13,3.91-.33,4.68-1.37l-2.72-1.29c-.13-.06-2.08-3.56-1.98-5.84ZM859.65,90.83c1.2-.34,2.7-2.99,2.27-4.08l-1.59-4-1.86,2.81c-.9-1.36-1.35-2.4-2.01-2.44l-2.34-.12c1.28,1.76,2.06,4.04,1.54,5.3l-3.73,1.3c2.22,1.48,5.25,1.93,7.72,1.22ZM921.98,95.98l-2.58,2.6c-1.34-1.09-3.09-4.05-2.31-5.33l3.94-6.46c-2.86-.43-4.35,1.14-5.47,3.63-.87,1.94-1.36,5.12.04,6.66,1.65,1.82,3.57,1.94,6.62,1.93l-2.03,2.06c.26,2.44,3.25,5.95,5.78,5.03l-3.1-2.76c-1.73-1.54,2.32-5.99-.89-7.37ZM774.96,130.6c.81.03,2.75-.85,2.81-1.44.13-1.28-.84-3.97-1.39-5.12,1.62-.26,3.46-.66,4.32-1.59.7-.76.37-3.13-.33-3.97l-4.19-5.03c2.44.78,3.61,1.37,5.89,1.66,1.11.14,2.76-2.25,2.7-3.37-.22-3.98-4.11-3.45-4.14-6.44,2.25-.22,4.49-.87,5.39-2.14.98-1.39,1.18-4.59-.38-5.47-3.6-2.02-5.45-3.86-4.46-6.9.26-.8.8.98,2.43,1.05-.72-1.74-2.03-3.35-3.87-4.34-1.52,3.1-2.62,6.85-.23,9.21l3.55,3.5c.5.49.51,2.24.24,2.89s-2.38,1.17-2.79.61l-1.47-2.04c-.41-.57-1.65-1.36-2.34-1.48s-1.25,2.32-.8,2.95l4.23,5.95c.41.57.98,2.59.31,2.81l-2.41.77c-.56.18-.99-1.48-1.32-1.98l-3.2-4.39c-3.3,7.93,6.96,12.13,4.28,15.61-.62.81-2.71,1.43-3.36,1.25.31-2.8-1.24-4.71-3.07-6.1-3.69,6.44,5.35,8.84,4.61,10.81l-1.03,2.74ZM820.59,100.59c1.06-3.52,4.92-1.68,6.77-5.44.57-1.16.07-3.33-.52-4.52l-3.75,2.58c-1.09.75-3.34,2.01-3.42,3.21-.08,1.32.55,3.63.92,4.18ZM835.62,101.2l5.42-6.77-5.4-.15c-1.9,4.69-6.64,6.6-5.14,9.89.49,1.08,2.01,2.29,3.1,2.87.06-2.96.47-3.91,2.01-5.83ZM874.96,102.48c.01-.88-1.23-2.56-2.03-2.74-5.82-1.3-5.78-8.46-9.1-4.53,3.1,8.04,9.05,4.2,8.93,10.19.11.37,2.15.45,2.16-.13l.04-2.79ZM849.36,96.12h-4.72c-4.17,3.24-6.65,7.59-6.78,12.96-.04,1.53,2.42,3,2.99,2.11-.26-1.51-.61-3.47-.11-4.24,1.23-1.91,7.15-1.31,8.62-10.83ZM862.19,111.2c2,.76,3.56-1.12,3.7-3.07.16-2.18-.85-2.87-2.55-4.43-1.85-1.69-2.73-4.61-4.03-7.32l-5.74-.44,2.54,5.24c1.66,3.43,7.52,4.41,7.01,6.39l-.93,3.63ZM815.95,102.99c1.16-.85.98-3.27-.32-4.09-2.41,2.05-3.75,4.34-3.86,7.14l4.18-3.05ZM878,109.06c.82.5,3.57-.46,3.8-1.62.63-3.14-2.52-6.92-3.47-6.49l-2.85,1.29c1.58,1.2,2.59,1.81,2.91,2.59s-.16,2.7-.39,4.22ZM820.73,110.28l5.02-3.62-.65-4.27c-3.03,1.68-5.83,4.21-7.11,7.6-.73,1.92.28,4.26,1.93,4.92-.36-1.28-.4-3.75.8-4.62ZM848.21,112.02c.95,1.52,2.25,4.44,3.98,5.18l6.6,2.83c.38.16,1.1,1.51.89,1.84l-1.24,1.98c.53.95,3.5.77,4.37-.24,1.1-1.28,1.1-4.11-.14-4.43l-2.88-.74c-.81-.21.26-4.83-3.56-6.23-3.21-1.18-4.43-3.71-4.94-6.78l-.75,4.48c-.15.93-2.36,1.4-3.36,1.77l-5.72,2.14c.17,1.46.39,3.07-.25,3.62-.84.73-1.99,1.22-3.53,1.84-2.04.82-1.89,6.94-.32,7.82.71.4,2.85.06,2.9-.36-4.15-6.4,7.03-6.59,7.55-11.22l.39-3.5ZM875.58,118.54c2.1.12,4.24-2.3,3.69-3.72l-5.44-5.93-3.2-3.3.15,6.59,3.71,1.93c.57.29,1.56,1.4,1.47,1.98l-.37,2.45ZM813.72,113.77c.39-.81.35-3.08.2-4.17-2.71,2.3-4.06,6.23-2.72,9.4l2.52-5.23ZM906.26,114.82l-3.53,7.53c-1.61-1.05-2.69-2.51-2.95-4.2-.44-2.84,4.07-5.11,3.39-6.29l-1.48-2.57-3.09,4.5c-2.21,3.22-.2,7.28,3.15,8.84.68,4.09.67,8.17,3.96,8.88l-1.82-3.28c-1.12-2.01,6.04-7.99,2.37-13.41ZM830.91,127.17c-1.2-1.32-2.04-2.25-1.87-3.34.48-3.16,6.42-3.17,5.79-6.23l-1.28-6.19-4.31,5.03c-2.2,2.56-3.26,4.84-2.14,8.3.51,1.57,2.19,2.91,3.82,2.42ZM928.63,119.67c-1.83,1.04-4.1,3.55-5.13,5.24-.26.43-1.94.26-2.05-.23s-.33-2.12-.01-2.54l4.46-5.95c1.04-1.38.92-3.49.04-4.67l-5.28,6.52-2.67,3.29,1.72,3.66,2.88,1.72c.08,2.06.4,3.53,1.57,4.63.9.84,2.88,1.02,3.61.1-1.43-.48-3.14-.97-3.46-1.83-1.27-3.37,7.66-4.44,4.31-9.94ZM875.08,127.99c1.62.09,2.58-.99,2.58-2.18v-3.85c-1.19-.29-2.52-1.05-3.1-1.82l-5.55-7.41c.7,2.94,1.35,4.21,1.34,6.5-.01,3.78,5.65,3.74,5.31,5.6l-.58,3.15ZM820.03,127.89l.52-5.05c2.93-1.2,4.16-3.47,2.88-7.16l-4.37,4.34c-2.28,2.26-2.04,6.43.97,7.87ZM907.67,134.1c.57,2.9,2,5.19,4.54,5.25-1.27-1.62-2.41-3.14-2.81-4.62-.85-3.17,6.74-8.45,2.58-13.94-.56,5.42-4.75,6.12-3.49,10.33-.18.14-1.3.55-1.23.91l.41,2.07ZM887.56,127.66c-1.67,1.62-.39,1.65.4,1.25,1.74-2.07.85-4.74-1.2-6.31-.53-.41-2-1.21-2.56-.88s-1.4,1.47-1.64,1.88l5,4.06ZM870.93,141.29c4.44.56,5.84,2.97,6.3,6.63.96-1.1,1.28-3.47.55-4.55-.56-.84-1.93-1.86-3.39-3.02,2.56-1.38,4.5-2.84,4.47-5.46-.02-2.38-1.8-4.03-4.17-4.82l-1.54-3.15c-1.69-1.54-2.68-2.77-3.99-4.68-.05-.15-.93.98-.65,1.26l1.13,1.12c1.34,1.33,1.19,4.75,2.26,6.51s4.2,3.22,4.58,5.55c.15.9-1.27,2.3-2.1,2.7l-4.9-7.08c1.21,3.73,2.22,5.9,1.45,8.99ZM859.88,141.69c.3.93-.43,2.76-.88,3.67,3.12-.55,4.39-4.68,3.13-6.71-3.48.05-5.47-1.82-5.89-5.16-2.23-1.13-5.29-2.47-6.84-4.24-1.93-2.2-1.83-4.11-.95-6.9-2.2,1.94-3.9,2.49-6.33,2.29,1.34,6.13-4.39,5.59-4.56,9.82-.09,2.18.07,4.92,2.81,5.68.12-2.44.6-5.26,2.41-6.4,2.27-1.42,2.8-2.16,2.96-5.57,2.09,1.9,3.12,3.6,4.66,6.04,1.96,3.11,8.01,2.98,9.48,7.47ZM905.42,139.78l-1.46-4.52-5.59,7.63c-1.58-.94-2.82-2.8-2.45-3.73l4.71-7.31c.54-.84-.62-6.62-2.7-8.41l-2.87,4.31.27-5.14c-2.21,2.03-.14,4.15-1.21,9.26l3.57-5.81c1.89,2.34-.44,4.44-1.51,6.77-1.53,3.35-2.11,8.43-.21,9.57.82.49,2.38.92,3.86,1.34-.25,2.63.54,6.61,3.39,6.24-1.36-1.45-2.63-4.37-1.89-5.86l4.09-4.36ZM814.06,131.06l.59-4.78c-3.74,2.05-4.88,5.84-5,10.01,1.43-2.34,2.13-3.47,4.41-5.23ZM771.1,138.72c.69.26,2.57.49,3.45.24s1.72-2.71,1.22-3.47l-3.09-4.72c-.81-1.25-.13-3.56-3.11-3.41.53,4.4,6.32,7.24,4.58,10.05-.37.6-2.08,1.06-3.05,1.31ZM828.29,139.86c.66-3.91,8.12-3.6,7.04-6.14l-2.28-5.36c-1.08,2.47-1.34,3.36-2.76,4.8-2.6,2.62-3.94,6.25-1.99,6.71ZM922.22,139.69c2.7-1.99,2.36-5.25.29-6.96-.49,3.11-1.41,5.06-2.74,7.54l-2.17,4.03c-7-4.9,2.84-9.83-.19-15.67l-3.71,6.14c-.83,1.38-.56,9.26,5.02,10.63.38.76,1.14,2.13,1.79,2.19s2.17-.54,2.75-.94c-.98-.36-2.7-.82-3.09-1.48-.84-1.4.67-4.43,2.07-5.46ZM823.38,144.54c.76-.89.85-4.05-.21-4.44l-2.74-1c-1.52-.56,4.36-5.21,2.26-9.92-3.7,3.79-5.22,9.73-3.37,10.58l2.99,1.37c-2.04,2.48-3.01,5.17-2.68,7.81l3.75-4.41ZM797.12,143.52c5.22-.17,3.17-7.51,4.04-7.39l1.16.16c1.4-1.01,1.37-3.61.17-4.66l-2.03,4.31-4.88-1.76c-1.43,2.75,3.99,2.56,3.54,6.03-.14,1.05-1.12,2.4-2,3.31ZM781.3,150.87l-2.33,2.26c1.07.33,3.14-.42,3.57-1.48.31-.78.14-2.25.02-3.56.15-1.27,3.12-2.73,4.43-2.26.73-3.59-1.92-5.7-3.71-8.27l-3.06-5.11c-1.59,4.41.86,7.8,4.18,9.65.46.83.66,3.03.07,3.58-2.18,2.02-5.54-.34-8.37-3.94-1.02,4.34,7.38,7.02,5.2,9.14ZM900.47,230.75l-.62-6.88,5.44,11.26c.68,1.41,2.77,2.1,4.08,1.52-2.53-2-4.12-4.33-4.19-7.45,1.06,1.74,1.86,3.21,3.9,4.43l-2.82-9.57c-.45-3.42-1.15-5.89-2.17-9.33-.82-2.76-.58-7.28.2-10.11,5.66-20.43.36-33.63-.99-31.68l-.71,1.03.02,17.23c-.4,7.43-1.2,14.56-3.27,21.55l1.01-26.34c.22-5.68-2.08-10.93-3.94-16.34-3.04-.85-4.47-3.14-4.77-6.47-3.21.37-4.59-2.31-4.67-5.1-.09-3.02,2.01-4.23,4.12-4.99-.03-2.85,1.15-5.95,3.42-7.84l-8.61-8.85,1.53,7.4c.07.56.03,1.79.47,1.94l1.9.65-4.71,7.1c.27,1.92.81,4.57-.29,6.55,1.52,6.01,2.45,12.17,1.55,18.49l-2.29,16.16c-1.16,8.17.59,15.93,5.24,22.67,2.86,4.15,1.13,11.62,6.39,19.15-.3,2.72.7,4.81,2.35,6.49,1.27,3.52,5.13,8.16,7.48,7.7.17-3.3.84-5.55,2.09-8.19,2.99,2.95.45,9.78,1.69,8.27l.81-1c.45-.55,2.1-1.4,2.53-.85l1.4,1.81-3.09-.18c.39,1.18,2.73,1.34,3.68.63.7-.52.94-2.82.16-3.18-7.48-3.42-3.12-9.12-7.46-10.01-3.56-.73-6.51-3.76-6.86-7.67ZM804.21,147.05c.61-3.23.17-4.93-2.02-7.07l.85,4.78-.06,1.92c-.01.33,1.44.5,1.23.37ZM817.41,142.9c.32-.6-1.21-2.47-1.7-2.02-1.6,1.62-2.6,4.51-1.8,6.72,1.35-1.5,2.79-3.36,3.5-4.7ZM795.21,152.09c2.59-1.16,2.48-4.49.93-5.96l-4.23-4.35-2.15.81,3.74,3.76c1.73,1.35,2.15,3.25,1.7,5.75ZM906.3,152.36c1.49-5.12,6.23-7.02,3.02-10.36l-5.02,8.02c-1.67,2.67,2.05,7.36,4.9,7.16-1.04-.77-3.48-2.81-2.9-4.82ZM858.55,153.38c-.58-.5-.67-1.75-.51-3.27l-6.92-7.1-5.18,2.79c-.86,5.06-5.54,6.03-3.27,8.65.49.57,1.7,1.2,2.77,1.51-2.12-7.17,3.09-7.01,6.15-11.23l1.55,2.14c.32.45,1.56,1.2,1.42,1.73l-.66,2.42,4.46,2.76.2-.41ZM838.39,151.33l-4.93,2.88c-.7.41-2.87-.78-2.57-1.49.88-2.06,2.56-3.46,4.48-4.59l.75-4.72c-2.82.76-2.72,4.53-6.42,7.38-.59.7-.43,3.86.49,3.97l4.53.17-2.93,3.88c-.38.51-.5,2.22-.33,2.82s1.48,1.16,2.02,1.19c-1.15-5.36,4.72-4.68,4.91-11.52ZM869.07,157.64l2.14-1.05c.64-2.76-.51-5.19-2.78-6.56.29-1.35.45-3.16-.14-4.25-.46-.84-1.89-1.68-3.17-2.05l2.43,5.1c-2.96,4.03,2.78,4.4,1.52,8.81ZM910.03,161.7l-4.95.61c-.77.84-1.86,1.78-2.59,1.84s-2.01-1.22-2.28-1.99c-1.24-3.54,3.4-3.83,2.32-6.91l-3.02,2.89c-1.48.24-3.48-1.37-3.85-3.04-.39-1.75.49-3.32,2.31-4.51l-.53-4.11-2.13,5.33c-.81,2.04-1.26,5.2.97,6.59.42.27,2.11-.04,2.13.46l.08,2.09c.04,1.16.99,3.4,2,3.8s3.28.04,4.99-.32c-.15,1.4-.58,4.07.22,5.04.88,1.06,3.26,1.68,4.14,1.42l-2.87-1.59c-.66-.37.22-2.43.61-3.14l2.44-4.45ZM913.81,160.83c-4.15-5.58,1.01-7.23,3.01-12.77l-1.89-1.03c-.3-.16-.4,1.27-.66,1.67l-2.9,4.44-1.12,4.56c.99,1.36,2.04,2.61,3.56,3.13ZM798.27,156.05c.87.14,3.38-.64,3.89-1.58,1.26-2.32,1.49-5.52-1.46-7.1l.15,4.06c.07,1.95-.89,3.41-2.58,4.61ZM789.62,158.85c3.14.21,4.35-3.58,3.19-5.4l-3.1-3.44c-.26-.29-1.49.1-1.38.49.08.29.63,1.15.93,1.4,1.89,1.55,2.35,4.7.36,6.95ZM824.07,158.5l-1.91-1.28c-.42-.28-.64-1.94-.42-2.42l2.51-5.36-3.66,3.13c-.83.71-.36,3.36.13,4.31.58,1.13,1.95,1.96,3.34,1.62ZM816.84,151.54c.08-.45-.96-1.21-1.56-1.33-1.2,2.08-1.31,4.46.69,6.31l.88-4.98ZM782.42,243.17c-.42,2.26-.54,3.27.21,5.83l2.04-4.93c1.4,1.77.82,3.9-.15,6.33,5.45-2.19,6.75-6.4,12.32-4.45l2.59-4.79-2.11,1.75c-.48.4-2.49.01-2.6-.21,2.26-2.11,3.52-3.73,4.48-6.2l3.11-8.06c1.83-4.73,1.54-9.89,3.75-14.22.04,2.01-.08,3.56.4,5.24l6.01-16.05,2.07-9.82-4.47-19.7c-.94-4.13.9-8.73.99-12.96-5.38-4.73-1.82-9.28-5.22-9.81.55,4.56-1.81,7.42-5.34,9.3-.4.97-1.2,3.44-2.17,3.72l-4.47,1.29,1.3,15.47-.08,15.41c-.02,4.79-7.43,20.76-6.41,30.84l2.59-6.84c.87,5.08-3.46,13.77-1.33,12.63,2.75-1.47,3.1-6.08,3.62-10.18.68,3.09.37,6.11-.81,9.73.97-.07,2.83-1.19,3.16-2.08l2-5.37c-.06,3.91-1.16,7.98-3.15,11.1s-5.91,2.19-8.91-.04c-.61.78-1.19,2.94-.96,4.12.17.84,1.15,1.74,2.3,3.02l-4.75-.08ZM843.67,165.64c-.82-5.59,4.66-5.79,6.64-11.99-3.04,0-.97,4.57-7.92,5.44-1.15.59-1.6,3.41-1.24,5.06.19.86,1.8,1.68,2.52,1.49ZM859.09,153.71l-.4.34c.72.79,1.51,2.34,1.42,3.52-.08,1.01-1.48,2.67-2.19,3-1.72-2.68-2.73-3.88-5.51-5.39-.66,2.97-.08,5.95,1.97,8.2l4.45.49c0,.65-.39,2.18-.72,2.75l-.62,1.08c-.12.22.77.48.91.28l.69-.97c.49-.7,1.23-2.86.5-3.28-1.71-.73-4.69-2.22-4.18-4.14,1.89,1.11,4,1.92,5.71.99,1.31-.71,1.78-3.12,1.7-5.27l-3.72-1.6ZM787.37,161.88l-1.06-5.27c-.07-.35-1.33-.71-1.65-.54-.21.11-.44.62-.3.82l.72.99c.44.6.93,2.21.75,2.94-.15.63-.94,1.2-2.27,2.3l2.13.67c.56.18,1.82-1.26,1.68-1.91ZM870.89,242.04c-.43-1.87,3.22-1.99,2.48-4.47-.33-1.13-2.29-1.49-2.68-.77l-2.45,4.56c-1.99-3.47-1.18-5.89-.66-9.21,1.35-8.53-3.29-15.44-.26-19.08l2.85,12.97,1.14,8.38c2.4-.25,3.65.84,4.37,2.86l2.36,6.6-.11,3.3c.55-.48,1.73-1.56,1.83-1.16l.58,2.22c.29.41.72-.21.54-.93l.59-2.59c.12-.54,1.81-.55,2.11-.08s.53,1.57.53,2.2v2.4c2.15-2.69.26-5.74-2.19-6.86l-2.57,1.92.59-4.44c.68-5.15-4.53-3.8-5.37-7.43-.19-.81.85-2.5,1.41-3.27,1.1-8.78-4.46-19.55-3.94-25.38.74-8.23,4.4-15.5,5.86-23.59.73-4.08.12-8.71.03-12.95-.06-2.65-1.4-5.48-2.86-7.32l-5.83,6.17-5.43,1.17c1.85,10.79,2.7,21.16,1.02,31.82l-3.91,16.98c-1.02,4.43-2,9.03.4,13.49l1.67-13.24,3.65-15.35c2.44,9.34-2.99,15.62-2.73,19.32l.59,8.36c.19,2.68-.21,5.27.85,7.54.21.45.18,1.47-.02,1.84-.15.27-.99.13-1.24-.05l-1.44-1.02c-.27-.1-.63,1.54-.32,1.9l1.17,1.35c-.94,1.33-2.21,3.33-2.06,4.56l.52,4.55c3.81-.87-.86-3.51,1.05-5.91.41-.52,2.63-.35,2.68.3l.36,4.7c1.88-1.51,1.1-4.28.01-6.99,3.69-.11,4.36,4.35,4.75,7.02.24.22,1.86.51,1.7.17l-.79-1.63c-.41-.86-.76-2.51-.52-3.4.22-.84,2.49-1.42,3.07-.77,1.31,1.46.74,3.51.58,5.97,1.48-1.65,1.54-5.17-.26-6.94-.62-.61-2.3-.09-3.74.19ZM815.47,184.02l.55-9.84c.75-3.94.86-7.6-.23-12.01-4.55,4.48-2.13,15.07-.31,21.84ZM830.43,228.76l1.6-8.78,2.46,6.67c1.03-2.28,1.28-4.45.9-6.77l-1.3-8.09,1.89,1.6c.01-5.81-3.3-11.11-3.74-17.02-.43-5.71.13-11.03,1.34-16.71l3.33,16.08,1.01,11.42,2.46-12.84.53-16.2.8-8.69-2.83-2.65c-1.17-1.09-3.46,1.17-3.62,2.64l-.62,5.49c-1.55-3.21-2.01-5.9-4.06-7.79l-4.11-3.8-7.21-.36c-1.12,5.31-1.29,10.05-.57,15.23l2.8,20.24.24,30.19c-.85-.33-1.17-.63-2.25-1.73l-1.95,5.16c5.05.05,5.75-3.18,7-8.03,1,3.3-.53,8.36-3.14,9.96-.65.4-3.37-.17-3.52.55l-.7,3.32,3.29.52-.88,6.64-2.1-3.88c-.4-.73-2.98-.49-3.49.2-1.05,1.43-1.43,5.13-1.07,6.93.3.48,2.69-.06,2.46-.63l-.93-2.23c-.3-.71.05-2.42.63-2.92.5-.43,1.96-.56,2.42-.08,1.58,1.68-.29,5.35.47,5.37l2.77.07c.55.01.22-1.41.21-2,.99-2.83,1.68-5.24,1.94-8.19.23-2.58,1.7-4.41,3.28-6.25,2.78-3.25,1.07-7.22,1.93-11.17l2.34,8.56ZM855.3,233.6c3.45-7.15,3.17-16.85,1.41-24.93l-2.1-9.68-.23-19.1c-.03-2.84-2.5-4.93-4.31-6.94-2.33-2.58,1.34-7.36,1.27-8.11-.06-.6-.83-1.55-1.52-2.27l-2.81,7.24c-4.6,3.8-4.93,8.91-3.9,14.38,2.12,11.27.08,22.39-2.49,33.44-.65,2.79.63,5.86.74,8.74.08,2.25-.82,5.39-.1,7.32,1.16,3.11,1.43,5.42,1.21,8.58l1.89,5.59,12.58-.04c.95-5.22-4.74-7.77-1.63-14.22ZM876.22,208.79c3.55-9.6,5.25-19.68,6.22-30.03.48-5.04.1-9.95-1.29-14.4l-2.3,17.24c-1.32,9.05-2.65,17.67-2.63,27.19ZM792.51,181.68c.29-4.91.14-10-3.05-14.55-1.05,9.67-.7,18.65,2.28,27.74l.77-13.19ZM860.28,201.51c2.54-5.74,4.22-11.58,3.19-17.56l-2.2-12.86-4.78,1.44,1.5,22.18,2.3,6.81ZM815.15,230.2c2.07-.3,3.91-4.1,3.65-6.18l-1-8c-.5-3.96-1.52-8.18-.46-12.04.51-1.87,1.37-3.24-.96-4.55l-.61,7.9-1.3,7.27c-.63,3.52-.86,7.37-1.94,10.81l-2.13,6.77c1.42-1.44,2.04-1.59,4.76-1.98ZM884.35,233.34l-.14-9.95-2.83-14.15c-1.17,3.75-2.57,7.52-2.28,11.08l.9,11.05c.79.93,2.61,1.69,4.34,1.97ZM830.75,235.8l.79,4.64c.89,2.65.86,4.73.11,7.54,3.08-.02.87-6.44,3.12-7.09l3.6-1.04-1.17-2.12-3.13,2.28,1.3-4.74-2.66.41c1.38-3.27,1.24-4.89-.99-7.1l-1.27,5.97-3.01-1.17c-.6-.23-2.26.9-2.41,1.62l-1.9,9.72c-.34,1.75.46,3.54,1.71,3.44-.43-1.95-.77-3.72.16-4.92.65-.84,3.6-.13,3.6.81v3.9c1.89-1.03,1.68-5.25-.17-6.02l-2.15-.9,4.48-5.24ZM772.25,246.01l-1.15,3.53c-.12.36-.45,1.12-.76,1.08l-1.51-.19c0,.56,1.32,2.02,2.17,2.25.75.2,2.16-1.74,1.96-2.63-.85-3.74.92-7.32,3.27-10.19l1.11-7.01c-2.39-.39-1.85,2.43-3.88,8.03l-.77,2.14c-.13.37-1.85-.08-2.2.12-1.34.75-2.61,4.16-.71,5.86l.37-4.18,2.1,1.2ZM811.45,248.88l.18-5.41c.07-2.1,1.44-3.88,2.5-5.63l2.68-4.41c-1.34-.14-3.13-.04-3.61.55-1.64,2.05-.46,4.97-1.67,6.11-.44.41-1.62.74-2.47.9-1.77.33-3.12,1.91-2.64,3.11.82-1.1,2.15-2.12,3.13-1.98,2.81.4-.32,5.37,1.9,6.75ZM777.07,249.33c-.13.51-.3,1.98-.3,2.32,5.14-1.93.42-6.84,5.81-9.4-.99-2.76-.17-4.86,2.08-6.92-2.11-1.06-4.02-.52-5.18.85-2.59,3.07.56,5.82-.58,8.59l-3.89-1.15-.05,4.92,1.32-3.35c.13-.13,1.56,1.19,1.41,1.76l-.62,2.38ZM803.53,244.98c.87-3.28,2.71-5.36,6.33-6.18v-4.27c-1.02,1.95-2.27,3.18-3.68,2.84l-2.64-.65-.02,8.27ZM891.08,250.09l-.26-5.86-2.91-1.16-1.76-2.69-.71-3.29c-.09-.41-.99-1.12-1.42-1.16-.32-.03-.98.44-.91.75.83,3.51,4.4,5.94,3.46,12.48.62.15,2.06.42,1.92.12l-.71-1.55c-.24-.53-.67-1.95-.31-2.38s1.35-.96,1.88-1.19c-.02,2.54-.25,4.06,1.72,5.93ZM925.14,252.24l-.14-3.77c-.03-.79,2.99-.87,3.01-.09l.07,3.44c.56-.29,1.13-2.22.94-3.16-.18-.86-1.68-2.2-2.55-2.44-6.55-1.8-2.55-8.5-5.49-9.79-1.23-.54-3.24-.44-4.7,0,3.54,3.12,3.15,6.35,6.6,10.3,2.41,2.76.72,4.41.94,7.01.02.26,1.39.23,1.38-.03l-.05-1.46ZM919.12,251.98c-.91-3.94-1.27-7.97-1.15-11.89-1-1.44-3.6-2.33-5.97-2.66-1.06,3.67,1.13,7.04,4.63,8.46.92.78,1.09,3.49,1.15,4.69l.1,1.93c.02.37,1.64-.44,1.23-.54ZM882.3,283.03c0-17.62-14.29-31.91-31.92-31.91s-31.92,14.29-31.92,31.91,14.29,31.91,31.92,31.91,31.92-14.29,31.92-31.91ZM907.56,285.49l-1.69-3.91c1.34-3.62,4.98-4.57,2.86-8.54l3.02-.47c.34-.05.62,1.12.38,1.37l-.74.78c1.02,3.14-2.39,4.94-.99,6.15.4.35,1.7.92,2.23.99l5.76.76v-7.5s.04-7.88.04-7.88c-1.38.52-2.95,1-2.92.46l.13-2.19-3.47-2.16c-.25.12-1.82.98-1.9.52l-.44-2.47-10.15-.89,2.53,7.42-2.88,1.31,1.24-2.76c.23-.52-1.02-1.45-1.65-1.77.23-2-.4-4.51-2.71-5.16.21,1.29.65,3.53.15,4.39-.82,1.42-4.07,1.8-5.23,1.01-1.84-2.69-.02-6.1,2.47-7.07-.06-3.82-4.17-6.22-7.52-5.68l3.9,4.19,3.22.84-3.5,1.16c-2.63,2.09-1.57,5.45-.48,7.92-4.5,3.72-.49,7.48-1.29,7.81l-1.93.79c2.13.18,3.4,1.33,3.27,3.99l-4.5-.59c.57.54,2.14,1.44,2.9,1.41s1.84-.77,2.83-1.45l2.64.32c-2.72,3.22-6.51,1.97-4.89,4.18l3.48-.76-4.03,3.3,4.65-.36-4.88,3.48c1.26.76,2.53.05,3.96-1.25-.04,1.4-1.26,2.54-3.36,3.65-.09-.06,1.01.63,1.41.88.32.2,1.06-.83,1.36-1.09l4.28-3.76.46.51-6.57,6.58c-.24.49,1.43,1.96,2.01,1.55l2.7-1.91c1.09,1.28-2.27,2.19-2.07,4.22.05.5,1.4,1.26,1.75.88l1.45-1.56.24,2.15.68.13c1.35,2.99,3.31,5.9,2.58,9.18l-2.48-3.66-1.62,1.25c-.22.17-1.09-.79-.88-.98l1.17-1.03.54-4.26-.31-.07-3.92.61-.3,5.69c-1.21,1.19-1.69,2.1-1.85,3.38l-3.97,4.79,4.89-.39,1.42-3.3,3.3-4.19-1.53,5.06c1.38-.86,2.04-2.31,2.92-4.9,1.21,2.01,1.74,4.61-.25,7.3.33.29,2.58.5,3.61.26.88-.21,1.66-2.19,1.56-3.29-.52-6.11,3.6-7.74,1.15-13.74,2.26-3.22,4.55-6.51,4.27-11.17-.26-.46.5-.49,1.12-.13l.4-.28ZM807.99,284.76c2.23,1.92,6.69.54,7.41-2.56.34-1.45.74-2.64,1.32-3.89l-1.29-.52c-.33-.13,2.12-2.24,1.65-2.8l-1.12-1.34,2.17-2.48-1.48.26c-.25.04-.67-.63-.45-.75l1.23-.7,1.56-1.12c.88-.63-2.86-2.47-2.04-2.87l1.23-.59c.89-.43,2.35-1.62,2.47-2.52s-.57-2.59-1.21-3.34c-.97,2.91-1.74,3.98-4.13,5.77-1.52,1.14-3.7,4.22-4.01,6.29-.47,3.15,3.02,11.26-2.09,11.49-5.15.23-8.4-3.87-11.57-1.68-1.68,1.16-3.38,0-4.9-.4-.83-.19-3.2.66-3.02-.74l1.85-1.16c.37-.23.19-1.46.14-1.65l-2.49,1.41,2.11-4.44-2.75.74,2.11-3.86-2.03.11c-.21.01-.36-.54-.29-.74l.61-1.79c.5-.04-.53.04-1.81.14l1.46-3.86-2.81.9,1.47-4.23c-1.15-.1-2.01-.05-2.03-.48l-.11-2.31-1.9,1.7-1-2.36c-.18-.44-1.54-.6-2.07-.69-3.33-.57-6.13.97-6.78,4.3l-.91,4.64c1.32,3.24-2.98,6.33-.72,8.04.61.47,2.09,1.6,2.05,1.57l1.85-4.54c.57-1.4-.42-4.18-.88-6.34,2.52,2.39,1.59,6,1.32,9.35l-.78,9.65,2.74.08c-3.81,3.29-4.6,9.06-1.6,11.37-.13.29-1.42,1.25-2.08,1.56l-4.14,1.95-.07,6.8c0,.98,1,2.8,1.82,3.21l5.22,2.62c-.28-1.88-1.06-3.77-1.95-5.22l-1.39,1.14c-.24.2-.72-1.13-.75-1.48l-.5-6c.73-.42,2.25-.57,3.28-.6,4.71-.13,7.01-5.28,5.94-10.08l6.79,6.18c.6.54,1.78,1.57,2.43,1.36.54-.17,1.44-.9,2-1.35l1.56-1.26c.4-.32,2.76,3.32,9.62,4.62,5.97,1.13,10.86,5.26,12.8,10.59l-1.64,2.78h5.09c.1-3.74-2.06-6.96-5.38-8.11l.77-3.21-3.77-1.05c-2.05-2.02-4.31-4.89-5.19-7.69l-1.78-5.6,2.83-2.19ZM809.83,281.14l.16-10.34c0-.43,1.35-1.85.96-1.9l-1.69-.19-1.63-.25c-.23-.03.23-.86.46-.85l1.12.07c1.06.06,2.62-.31,3.66-1.19.71-.6.91-2.07.81-3.11,2.3.69,4.53-2.06,3.62-4.17l-10.32-.73-18.71,1.21,1.93,1.07c.22.12.04.61-.12,1.18.15,2.63.23,6.61,1.56,8.75.95,1.52,1.52,2.05,1.64,3.87.09,1.32.53,2.51,1.4,3.59.64.79,2.26.34,3.22.54l11.93,2.47ZM887.29,265.33l-1.26-.15c-.17-.02-.26-.31-.23-.45.32-.48,1.14-1.83.76-2.19l-1.49-1.43,2.46-1.91-12.83-.12,2.05,1.21c.36.21.08,1.19.11,1.95.07,1.47,2.83,3.57,3.31,4.97l3.12,9.23,2.38-3.57c-.34-3.01.41-5.2,1.61-7.53ZM934.76,273.49l-.51-3.25-.12-1.71-1.48-1.11c-.24-.18.6-1.61.37-1.97l-1.04-1.67c.1-.22.52-1.28.23-1.16-.19.08-1.56.39-1.54.6l1,17.19.54,26.57,2.78-15.77c.57-3.23.52-6.53.3-9.74l-.53-7.98ZM907.68,286.37c.23.97.68,3.22.37,4.21l-2.42,7.75c3.7,1.54,7.14-.05,10.32-2.49-1.38,5.22-7.11,6.65-11.6,4.28l-.71,4.5-1.91,4.92,2.99-.38-2.86,3.26,1.8-.14c.19-.01.17.57.14.86-1.04.31-1.32.75.43,1.36l4.14-4.85c.58-.68.78-2.48.66-3.53l1.19-1.62c.23-.32-.1-1.42-.17-1.88l5.27-2.92-4.16,6.86-3.57,7.29,4.42.1,1.95-4.86c.71-1.76,1.49-3.14,2.51-4.75l2.61-4.11,2.49-3.98c1.38-2.21.64-4.29-.48-7.34,2.35,1.69,2.99,4.25,1.93,7.14l-1.73,4.73,1.36,6.11.8-8.84.62-.34.98,12.18c1.24-4.4,1.05-7.87,1.47-12.45,3.08,2.24-.66,7.77,1.73,11.41l1.96-17.09c.4-3.47.25-7.76-.11-11.17l-1.35-12.65c-.11-1.06-.57-2.16-1.57-2.78l-.31,10.22c-2.9-5.05.55-11.87-3.98-11.48l.53,13.89c-2.72-3.2-.71-6.6-2.82-10.11-1.43,5.74-2,13.9-.21,19.21-2.22-2.41-7.05-3.75-10.19-1.99l-2.17,1.21c-.23.17-.39.29-.34.26ZM759.92,298.86c6.34-9.66,5.79-20.98-.07-29.88l.07,29.88ZM772.2,294.84l1.37-5.93c-2.72,1.45-2.76,2.23-4.37,4.52l3,1.41ZM798.04,313.11l-4.4,2.82,4.12,2.59c-.1-1.97-.24-2.81.21-3.41.51-.69.88-1.44,1.18-2.65-.25-.03.65.07,1.05.11s1.1,1.25.77,1.5l-1.77,1.34c.57,1.32,2.28,3.08,3.63,3.06-.48-1.25-1.55-2.9-.96-3.26l2.02-1.23c.05,2,.21,3.53,1.06,4.26.61.52,2.53.76,2.76.33-.71-1.21-1.87-2.68-1.36-3.1l1.79-1.47-1.6-.98c.05.03.28-1.75,1.93-4.1l.92-1.31c.11-.15-.6-.1-.79-.08l-1.12.11c.26-1.43.44-2.12-.54-3.11-.49-.5-1.51-.26-2.43.2-.46-.92-1.95-2.29-3.13-2.55l-4.97-1.09-.02-1.55c-.01-1.08-7.28.54-13.64-1.74l-1.8,2.99-2.07-.4c-.39-.08-.73,3.91-1.95,3.36l-2.12-.96c-.42-.19-.78,1.19-.57,1.6l.73,1.41,3.35-1.15-.37,5.1c.94-.33,2.78-.98,2.88-.42l.55,3.11,4.97.37-1.67,2.11,2.21,2.68.77-4.25c.08-.65,1.03-.83,1.68-.02l1.8-.54c.37-.11,1.17.55,1.73,1.03l-4.84,1.13c1.59,1.82,2.91,2.99,5.33,3.32l-1.2-2.69c1.42-1.33,3.6-2.62,5.88-2.49ZM808.79,313.12c3.01.43,6-2.13,5.97-4.49-2.17-4.28-6.1-7.62-11.05-8.44l6.51,4.57c1.07.97,1.69,3.31,1.06,4.69-.57,1.25-1.68,2.63-2.49,3.67ZM919.36,313.64c.93.89,2.01,2.31,2.5,3.07.16.25,1.25-.51,1.09-.79-1.39-2.51-2.5-2.16-2.27-5.54l.5-7.24-3.1,2.06.56,4.14c-2.51,2.85-2.07,7.21,1.14,9.02-.47-1.9-.96-2.74-.43-4.72ZM833.73,315.79c-1.12-.23-2.59.24-3.72,1.26-.97.87-.13,3.16.96,3.33l2.76-4.59ZM874.35,318.6c-.36-1.78-2.55-3.47-3.86-2.8l2.44,4.33c.17.44,1.55-.91,1.43-1.53ZM813.92,320.83c1.13-1.32,1.56-2.57,1.97-4.46-1.45.33-3.16,1.04-4.35,2.31-.55.59,1.81,2.83,2.38,2.15ZM888.92,318.39l-3.52-2.22c.14,1.82.47,3.67,1.02,4.79,1.67.45,3.28-2.08,2.51-2.57ZM840.52,318.68l.95-2.01c-1.97.36-3.05.96-4.26,2.24.54.85,1.62,1.87,2.06,1.52.35-.28,1.01-1.21,1.26-1.75ZM858.87,321.36c1.48-.62,2.61-1.25,2.75-1.92.11-.55-.34-1.79-.79-2.14s-1.76-.35-2.21-.24l.25,4.29ZM846.83,320.76c1.78.57,2.97-.04,3.22-.91.15-.54-.11-1.85-.61-2.11-.55-.29-2.02.32-2.51.71-.62.49-.76,2.1-.1,2.32ZM852.74,329.14l.41-1.44c.61-2.11,1.73,3.04,4.1,2.56.84-.17,2.03-1.33,2.42-2,1.26,1.14,3.16,2.14,4.44,2.18l1.23-2.46c1,1.36,2.19,2.62,2.96,2.29.68-.29,1.37-1.79,1.9-2.89l1.35,2.49c.31.56,2.1.68,2.36.09l1.16-2.71c1.06,1.9,2.1,3.42,4.41,3.41l1.3-4.59c-15.97.76-31.93.57-48.22.11l-12.26-.35,1.2,4.36,2.89-.29c.53-.05.19-1.67.04-2.76l1.59-.12c.64,1.62,1.13,2.82,1.9,3.08.82.28,2.47.41,2.82.24l.67-2.58c.57-2.19,2.32,2.05,3.86,2.35.88.17,2.2-.89,2.97-1.99l1.61,2.17c.32.42,2.26.79,2.44.29l.71-2.05c.15-.42,1-1.65,1.13-1.27l.6,1.72c.25.71,1.05,1.89,1.79,2.07,1.51.36,2.41-4.61,2.85-3.08l.39,1.35c.14.5,1,1.4,1.52,1.51s1.31-1.18,1.46-1.71Z"/>
  <path class="cls-1" d="M801.7,217.49l1.7-9.4,2.03-9.99,3.03-17.71.14,16.23c.03,2.87-.94,5.36-1.84,8-1.53,4.51-2.74,8.73-5.06,12.87Z"/>
  <path class="cls-1" d="M865.33,27.56l-2.38,4.73c-.2.39-1.7.31-2.15.03.62-2.2,2-4.91,3.67-5.99,3.06-1.99,6.02.12,7.62,2.62l.9,1.41c.19.3-.61.8-.95.82-2.19.1-2.72-3.4-6.71-3.61Z"/>
  <path class="cls-1" d="M942.1,67.8c-.02-1.28.66-3.58.02-4.18l-2.88-2.69c2.89-.34,6.14-2.61,6.59-4.5.26-1.11-1.49-3.4-2.13-2.7-1.98,2.13-3.12,3.66-5.17,5.2.55-4.09,2.24-6.91,5.16-9.24.84-.67,3.3.44,3.78,1.38.64,1.23.32,2.86-.05,4.26l-.97,3.57c-.24.89-.07,2.58.13,3.71l-4.49-1.77,3.67,4.27c.58.67.15,2.51-.38,3.15-.61.72-3.25.56-3.26-.45Z"/>
  <path class="cls-1" d="M802.96,78.9c-.58,1.5-6.77,0-7.63-1.48-1.11-1.9-1.6-3.82-2.09-6.26,3.46,4.73,10.63,5.38,9.72,7.74Z"/>
  <path class="cls-1" d="M824.91,17.95l1.48-2.92c.26-.63-2.07-1.35-2.69-1.44.44-1.44,2.42-1.5,3.97-.58,1.17.7,1.5,2.85.68,4.26l-3.45.68Z"/>
  <g>
    <path class="cls-1" d="M895.31,284.91c-.38.77-1.75,1.66-2.42,1.61l.71-2.99c-.47-2.08-.02-3.29,1.64-4.83l-1.56-1.52c5.42-.7,6.38-2.69,7.18-7.4l1.81,1.18c.46.3,1.75-.42,1.84-.98l.27-1.54c.07-.39,1.26.5,1.26.89,0,.3-.34,1.18-.1,1.37l1.73,1.41c-3.27-.19-4.79,2.54-7.14,4.28l-5.17,3.82,2.34-.1-2.39,4.8Z"/>
    <path class="cls-1" d="M845.56,311.28c-10.45-.97-17.72-7.81-21.44-17.03-3-7.44-3.38-14.87-.15-22.24,2.36-5.39,5.2-9.87,10.45-12.93,2.86-1.67,5.77-3.7,9.25-4.47,7.79-1.72,16.46.21,23.04,4.68,8.95,6.07,13.58,16.21,11.85,26.69-.98,5.93-1.96,12.13-6.32,16.26-5.05,4.78-11.02,8.25-17.83,9.61-2.65.53-5.96-.29-8.85-.56ZM850.23,255.66c-1.67.6-2.35,1.01-2.81.81l-2.02-.87,3.5,17.92,1.33-17.86ZM856.29,256.37l-2.67.64-1.75-1.4-.69,7.68.07,12.1,5.03-19.02ZM847.76,276.38l-1.25-5.87-1.53-6.44-1.77-8.02c-.55.98-1.02,2.33-1.57,2.24l-3.22-.48,3.7,8.34,5.64,10.23ZM863.25,258.96c-.58-.13-2.01-.18-3.18-.16l-1.97-2.45-4.62,18.3,9.77-15.69ZM845.02,275.66l-2.93-5.96-2.83-5.47-2.5-5.36c-.8,1.17-1.04,1.87-1.48,2l-2.85.89,5.48,6.2c2.41,2.73,4.2,5.65,7.11,7.7ZM864.03,267.37l5.24-4.38-2.74-.78c-.36-.1-.36-1.24-.43-1.76-.06-.43-1.37-1.02-1.57-.63l-.68,1.38-6.8,11.08c-.93,1.52-2.15,2.64-2.27,4.32l5.27-5.52,3.98-3.71ZM837.93,276.29c-3.25-2.39-7.12-3.95-9.27-7.67,6.36,2.11,10.35,6.29,15.78,9.79l-3.51-3.95-4.24-4.73-5.72-6.66-.24,2.64s-3.22-.24-4.54,6.59l-.74,1.42,6.42,2.59,10.33,3.13-4.28-3.15ZM867.79,271.11l5.73-2.72-2.14-1.5c-.3-.21-.26-1.2-.27-2.15.09,0-1,.06-1.31.08l-14.72,12.97c3.36.27,5.34-2.46,7.78-3.86l4.93-2.82ZM876.21,274.84l-2.07-1.87c-.29-.26,1-3.17.12-3.01-.31.06-1.03.26-1.33.43l-7.86,4.55-6.43,3.72,17.57-3.83ZM841.22,281.08l-6.35-1.69-10.02-3.5c-.3,2.62-.8,3.68-2.02,6.01l18.16.07,1.35.56c.23.09.47-1.08.23-1.13l-1.35-.32ZM856.74,283.02c0-3.55-2.87-6.42-6.42-6.42s-6.42,2.87-6.42,6.42,2.87,6.42,6.42,6.42,6.42-2.87,6.42-6.42ZM876.21,278.69l1.01-1.94-13.31,2.97c-1.97.44-4.35.29-6.18,1.6,6.78-.31,12.82-.03,19.51,1.04.73-1.82-1.71-2.37-1.03-3.68ZM876.93,289.14c-.61-1.85-.94-2.7-.59-3.3.44-.75.85-1.62,1.1-2.36l-20.05-.47c2.78,2.26,5.47,2.78,8.11,3.72l3.92.36,7.51,2.05ZM824.02,289.49l18.69-5.34-19.76-.72,1.44,3.09-.37,2.97ZM876.61,291.1l-10.2-2.98c-2.7-.79-5.12-2.68-8.48-2.05l16.44,9.62c.48-2.19.78-2.77,2.24-4.6ZM833.39,292.71l10.18-6.33c-6.89.45-12.9,2.62-18.89,4.59.98,1.8,1.36,2.94,1.84,4.94l6.86-3.2ZM831.34,302.29l4.05-4.66,3.42-3.66c2.07-2.22,4.3-3.63,5.79-6.55l-17.46,10.04,2.75,2.4,1.45,2.42ZM873.8,297.13c-5.92-3.86-10.36-6.91-16.64-9.7,3.96,5.94,9.51,8.75,14.55,13.31l2.1-3.61ZM865.35,306.49l4.81-3.54-14.54-14.7c-.31,3.5,2.79,4.94,4.03,7.32l5.7,10.92ZM836.74,306.89l9.23-16.59-.84-.87-12.9,14.3,4.51,3.15ZM851.75,311.18l5.4-1-2.02-12.64,3.03,9.62c.3.96,2.38,1.76,3.15,1.42.65-.3,1.67-1.1,2.36-1.8l-11.31-15.93c-1.64,1.19-3.13,2.58-3.54,4.1l-4.18,15.47,5.55.39.45-14.34.84.39.27,14.33ZM843.11,309.56l4.65-17.93-9.86,15.98,5.21,1.96Z"/>
    <circle class="cls-1" cx="850.32" cy="282.97" r="2.65"/>
  </g>
</svg>