<?xml version="1.0" encoding="UTF-8"?>
<svg id="Layer_1" data-name="Layer 1" xmlns="http://www.w3.org/2000/svg" viewBox="0 0 1700.15 820.95">
  <defs>
    <style>
      .cls-1 {
        fill: #fff;
      }
    </style>
  </defs>
  <path class="cls-1" d="M1132.57,802.5c-7.8,11.57-19.63,18.47-33.71,18.28-19.2-.26-32.46-11.22-39.06-28.81-2.89-5.79-4.06-11.64-5.1-18.04-2.34-14.45-2.19-28.67.45-43.11,1.12-6.1,3.13-11.66,5.54-17.44,2.48-5.96,6.43-11.07,10.9-15.71,7.42-7.71,17.39-10.6,27.97-10.33,8.19.21,15.56,1.7,22.36,6.74,12.46,9.25,19.25,25.54,21.23,41.07,2.78,21.76,1.69,49.15-10.58,67.35ZM1101.69,807.36c15.99-1.81,23.03-21.47,24.61-37.13,1.01-10,1.04-19.92.31-29.89-.66-8.99-2.62-17.21-6.35-25.31-6.01-13.03-20.03-18.95-32.25-11.78-20.81,12.2-21.53,61.91-12.14,85.7,4.6,11.65,13.7,19.79,25.83,18.41Z"/>
  <path class="cls-1" d="M709,802.52c10.89,3.7,21.53,5.57,32.47,3.2,11.49-2.49,21.09-11.09,25.35-21.78,2.67-6.7,5.85-19.37,3.43-21-.57-.39-2.45-.64-3.15-.32-12.15,5.5-33.32,7.92-44.47,2.31-17.31-8.71-23.01-24.62-20.56-43.62,2.58-20.03,19.66-34,39.66-33.89,7.17.04,14.17.11,20.58,3.22,13.16,6.38,20.74,18.55,23.76,32.49,3.92,18.11,3.84,35.7-.94,53.7-5.99,22.57-20.44,40.72-44.38,43.63-11.28,1.37-26.21-1.69-36.82-6.79-.9-2.82,2.08-9.66,5.06-11.14ZM767.93,749.34c3.58-2.01,4.31-3.9,3.99-7.94-.76-9.75-2.05-19.1-6.51-27.93-3.79-7.5-10.5-13.38-19.41-13.63-6.35-.18-13.14,2.22-17.87,6.38-9.19,8.1-11.36,20.87-8.03,32.2s12.58,17,23.78,16.74c8.59-.19,16.33-1.5,24.05-5.83Z"/>
  <path class="cls-1" d="M595.46,813.35c-2.11-1.29,2.18-8.98,3.96-10.26,1.12-.8,3.67.2,5.03.74,5.01,1.99,10.2,2.21,15.55,2.76,17.57,1.8,33.04-7.96,39.17-24.8l3.64-15.09c.2-.82-.24-2.87-.67-3.5-.52-.75-2.72-1.03-3.66-.63-12.57,5.38-25.96,6.67-39.28,4.38-11.08-3.96-19.9-11.09-23.79-22.6-3.43-10.16-3.48-22.66.56-32.6,6.78-16.68,22.84-24.75,39.88-24.53,11.55.15,21.42,3.42,29.54,11.96,4.94,5.19,8.69,11.31,10.72,18.75,6.19,22.69,5.62,53.86-5.58,74.64-4.71,8.74-11.02,16.35-19.45,21.55-8.43,5.2-21.06,7.73-30.74,6.31-8.63-1.26-17.2-2.38-24.89-7.1ZM636.33,755.2c10.09-.6,19.25-2.38,26.95-8.81.94-21.4-8.16-50.89-31.04-46.21-16.49,3.37-23.48,16.92-21.76,33.34,1.42,13.59,11.91,22.51,25.84,21.68Z"/>
  <path class="cls-1" d="M491.22,802.3c10.77,3.94,21.21,5.42,32.22,3.8,3.79-.56,7.1-2.22,10.29-4.09,7.96-4.66,13.61-11.24,16.84-20.04,2.24-6.1,4.65-17.05,2.29-19-2.66-2.21-16.89,7.72-38.83,4.44-10.01-1.5-19.52-7.99-24.52-17.11-7.08-12.92-7.28-29.51-.26-42.39,4.03-7.38,10.22-13.52,17.88-16.72,11.09-4.64,24.3-5.51,35.76-1.29,9.96,3.67,18.31,12.43,22.31,21.84,3.54,8.35,5.33,16.56,5.77,25.36.95,18.73.28,35.12-7.42,52.23-9.4,20.86-28.27,33.75-51.19,31.14-9.1-1.04-17.91-2.57-25.94-7.48.09-3.93,1.73-7.16,4.79-10.69ZM554.28,746.81l-.38-13.31c-.26-9.02-3.45-17.77-8.78-24.93-6.87-9.24-18-10.89-28.23-6.15-10.5,4.86-15.85,15.87-15.48,27.5.3,9.6,4.19,17.72,12.7,22.61,9.22,5.3,30.25,2.41,40.18-5.72Z"/>
  <path class="cls-1" d="M951.66,818.61c-3,0-6.38-9.36-4.77-10.89l35.11-33.37c8.77-8.34,16.23-17.44,22.61-27.74,5.17-8.35,6.9-18.45,5.52-28.09-1.18-8.27-7.66-14.56-15.53-16.09-10.94-2.13-21.33-.78-31.52,3.44l-7.98,2.41c-3.16-2.63-5.27-6.43-5.89-10.39,3.44-2.89,7.56-4.33,11.56-6.04,11.3-4.82,27.49-5.56,39.76-3.25,11.46,2.16,22.19,10.2,25.62,21.52,4.38,14.45.61,28.56-7.09,40.67-5.63,8.84-11.26,16.6-18.74,23.88l-27.01,26.27c-.64.62-1.3,2.55-.88,3.26s2.16,1.07,3.32,1.05l50.31-.99c2.66-.05,4.25,1.66,4.17,4.11l-.23,7.42c-.04,1.37-1.48,2.8-3.14,2.8l-75.18.02Z"/>
  <path class="cls-1" d="M464.08,814.99c0,2.14-1.55,3.63-3.86,3.63h-75.36c-3.16-2.93-4.43-6.73-3.89-10.91l33-31.15c7.01-6.61,12.84-13.43,18.76-20.96,7.34-9.35,12.32-20,12.31-32.06,0-13.04-9.4-21.49-22.12-22.1-10.65-.51-20.95,1.83-30.87,6.44-4.51,2.1-8.75-7.08-8.18-9.5.64-2.76,4.34-3.47,6.42-4.53,9.35-4.76,19.15-6.48,29.66-6.42,6.41.04,12.51.25,18.79,2.16,7.96,2.42,15.02,7.81,19.29,15.19,5.12,8.84,4.9,19.41,2.71,29.14-1.09,4.83-2.93,8.65-5.28,12.81-5.95,10.55-12.77,19.76-21.45,28.22l-27.27,26.68-.47,2.68c-.1.57,1.6.92,2.23.98l30.12-.22,22.29-.84c1.47-.06,3.19,1.99,3.19,3.18l-.03,7.58Z"/>
  <path class="cls-1" d="M819.98,803.02c8.18,3.45,15.58,4.31,24.06,4.55,13.66.39,26.38-8.45,28.34-22.35,1.8-12.75-6.87-24.29-19.59-26.61l-23.05-.94c-3.34-.14-4.05-8.81-1.03-12.08l16.18-.33c10-.21,19.12-5.7,23.28-14.86,2.62-5.76,2.75-12.73.41-18.49-2.7-6.63-9-9.4-15.78-10.27-17.13-2.19-27.96,7.49-30.95,6.26-.84-.35-2.35-1.87-2.7-2.74l-2.74-6.82c2.22-2.54,4.82-3.62,7.63-4.93,8.66-4.02,17.49-6.11,27.19-6,5.46.06,10.77.21,16.19,2.1,9.93,3.48,17.6,12.66,19.61,23.16,1.58,8.24-.85,16.12-4.63,23.3-6.05,11.5-18.21,12.08-18.39,15.19-.22,3.68,21.6,2.64,25.2,27.12,1.67,11.32-1.06,22.09-9.04,30.24-6.81,6.95-14.83,10.62-24.44,11.83-5.58.7-10.66.88-16.24.05-9.67-1.44-29.16-3.88-25.81-10.58l2.71-5.41c.41-.81,2.56-1.83,3.61-1.38Z"/>
  <path class="cls-1" d="M1263.6,818.7l-13.71-.23c-1.81-.03-1.77-4.34-.04-5.42l47.19-106.01-.46-3c-.09-.61-1.83-.6-2.63-.58l-50.94,1.11c-1.46.03-3.22-2.37-3.48-3.59l-1.65-7.85c-.14-.67-.02-2.19.34-2.66s1.81-1.02,2.5-1.02l74.81-.04c.9,0,2.82.52,2.98,1.24l.77,3.35-14.56,34.46-18.71,43.87-12.48,29.46-6.22,14.44c-.39.92-2.73,2.47-3.71,2.45Z"/>
  <path class="cls-1" d="M1192.69,813.66l.06-103.07c0-.84-.74-2.58-1.24-3.03s-2.14-.45-2.76-.15l-23.85,11.76c-1.15.57-3.27-.81-3.67-1.75l-2.87-6.75c-.87-2.04.47-3.65,2.35-4.55l36.53-17.55,8.84-.12c1.51-.02,3.26,1.47,3.27,3.4l.05,122.16c0,2.64-1.07,4.66-4.03,4.63l-9.24-.08c-2.94-.02-3.43-2.05-3.43-4.91Z"/>
  <circle class="cls-1" cx="921.94" cy="809.91" r="10.13"/>
  <circle class="cls-1" cx="921.94" cy="750.31" r="10.14"/>
  <path class="cls-1" d="M1106.4,443.09c-39.34,11.93-76.67,13.07-116.04.81-17.53-5.46-33.82-13.65-48.22-25.17-13.41-10.73-23.19-24.64-30.12-40.4-15.45-35.12-14.44-78.49-6.44-115.79,5.51-25.72,23.59-53.25,45.71-67.33,16.51-10.51,34.53-17.06,53.71-21.18,27.09-5.81,54.65-5.59,81.63.1,18.54,3.91,35.12,10.37,51.13,20.22,14.77,9.09,26.87,20.5,35.88,35.51,25.75,48.43,25.31,123.69-4.95,169.86-14.39,21.96-37.5,35.85-62.29,43.37ZM1076.12,376.81c7.85-4.76,12-13.6,13.49-22.44,2.6-15.47,2.72-30.49,2.89-46.21.16-14.5-.56-28.19-3.89-42.26-1.91-8.08-5.24-15.99-12.6-20.61-15.02-9.42-33.28-9.57-49.87-4.28-18.99,6.06-22.98,20.6-24.3,39.89-1.28,18.71-2.07,37.01-.53,55.69.77,9.27,2.61,18.04,5.64,26.65,8.45,24.05,47.55,26.69,69.17,13.57Z"/>
  <path class="cls-1" d="M852.53,436.2c-34.71,19.75-79.69,19.96-117.51,8.32-12.68-3.62-24.22-8.13-35.06-15.53l-2.75-.25c-.78-.07-1.98,1.98-1.97,2.81l.14,11.84c.01,1.23-1.29,2.9-2.58,2.9l-53.97.02c-2.13,0-3.54-1.47-3.54-3.63l-.02-92.71c0-2.09,1.5-3.61,3.57-3.61h46.78c2.04,0,4.49.52,5.55,2.28,5.11,8.54,11.18,15.78,19.54,21.65,26.24,18.42,60.11,23.68,90.72,14.38,3.45-1.05,5.76-3.8,6.46-6.58,2.28-8.98-15.69-13.51-26.52-16.78l-51.4-15.49-37.37-11.73c-13.12-4.12-24.38-12.27-34.56-21.39-10.79-9.66-18.83-21.54-22.49-35.81-6.4-24.91-.96-57.93,17.56-76.8,34.63-35.3,98.02-35.75,142.67-20.85,9.29,3.1,16.86,8.29,25.33,13.05,1.2.67,3.75-.53,3.75-1.9v-8.93c0-2.61,1.41-4.13,4.06-4.13l50.36.04c1.82,0,4.05.61,4.05,2.99l.06,85.26c0,2.59-.67,4.78-3.59,4.78l-50.53-.09c-1.63,0-3.5-1.48-4.42-2.74-9.28-12.75-21.48-21.71-36.15-27.25-11.2-4.54-22.77-7.83-34.85-8.81-14.2-1.15-32.65-3.04-37.48,9.48-1.13,2.92.74,6.92,3.08,8.79,4.77,3.81,10.06,5.52,15.98,7.24l93.54,27.21c8.69,2.53,15.93,7.24,23.23,12.04s13.98,10.85,19.91,17.54c12.88,14.51,19.65,31.7,19.94,51.23.43,29.16-13.89,56.58-39.52,71.16Z"/>
  <path class="cls-1" d="M615.15,446.27h-166.3c-2.29.01-4.26-.51-4.26-2.94l-.05-59.59c0-1.58,1.36-3.35,2.94-3.35l33.26.1c1.5,0,3.55-1.43,3.55-3.38v-134.33c-.01-2.66-2.6-3.63-4.55-3.61l-32.25.38c-1.36.02-3.04-2.06-3.04-3.38l.09-59.02c0-1,.26-2.58.64-3.21.46-.75,2.26-1.22,3.66-1.22h165.35c1.76,0,4.5.33,4.5,2.32l.1,58.65c0,1.48.31,3.85-.51,4.63-1,.95-3.11,1.21-4.66,1.2l-31.63-.19c-1.58,0-3.52,1.58-3.52,3.55l.04,134.79c0,2.74,3.32,2.83,5.08,2.83l31.88-.08c2.59,0,3.29,1.72,3.29,4.02l-.02,58.29c0,2.13-.65,3.54-3.59,3.54Z"/>
  <path class="cls-1" d="M881,122.37c-20.82,5.04-41.16,6.86-62.2,7.95-1.56.08-3.77.89-4.51,1.79-2.35,2.84-.27,7.27-1.89,9.48-1.26,1.72-7.29,2-9.57.13-2.32-1.9.16-7.37-2.2-10.01-.82-.91-3.14-1.59-4.81-1.65-21.3-.79-41.99-2.77-62.8-7.47-2.19-.49-4.84-.37-5.87,1.79l-6.74,14.07c-1.85,3.86-4.47,5.64-9.01,4.86l-2.64-.46c-.75-.13-1.25-2.39-.88-3.19l7.15-15.28c.71-1.53.78-5.25-.9-5.84l-25.18-8.78-21.03-7.79c-2.39-.89-4.68-.81-6.64,1.29-10.38,11.21-19.43,23.22-27.97,35.92-3.96,5.9-10.91,4.87-12.6,3.28-.5-.47-.2-1.86.06-2.8,9.01-14.84,19.03-28.42,30.36-41.58.3-.91.71-2.46.61-3.16-.12-.84-1.59-1.68-2.57-2.21l-11.3-6.1-12.67-7.42c-1.11-.65-2.9-1.92-3.94-1.82-1.17.12-3.19,1.28-4.44,2.29-19.01,15.28-35.52,32.99-50.63,52.12l-8.35,10.56c-2.48.64-7.22,1.04-9.15-.1-2.71-1.6.1-3.82,1.12-5.31,30.15-44.26,71-80.16,119.28-103.64,17.35-8.44,34.47-15.76,53.14-20.26l29.61-7.15c34.41-6.37,73.91-5.94,108.42-.42l25.22,5.59,8.58,2.28c13.91,3.69,27.28,8.05,40.17,14.54l27.79,13.98,28.12,18.05c29.47,21.6,54.9,47.49,75.56,77.54.83,1.21,1.62,2.9,1.19,3.79-1.24,2.54-10.28,1.22-11.5-.52-10.27-14.57-21.12-27.84-33.87-40.27l-23.97-21.32c-3.57-3.18-5.94-2.47-9.93-.17l-23.24,13.42c-1.45.84-1.78,4.12-.77,5.29l6.07,7.09,5.94,7.03,18.52,26.87c.35.75.84,2.78.33,3.34-1.35,1.49-8.51,3.12-12.82-3.24-9.07-13.36-18.49-26.13-29.92-37.69-1.57-1.59-4.48-.19-6.19.45l-28.34,10.6-15.37,4.83c-.95.3-2.66,1.45-3.13,2.24s-.51,2.94-.1,3.85l6.57,14.63c.43.96.55,3.2.1,4.31-2.83,1.21-7.3,1.3-10.07-.16l-8.69-17.34c-.89-1.77-2.89-2.77-5.48-2.14ZM839.16,36.77c11.81-3.07,21.65-7.13,31.24-13.91l1.03-2.89c.24-.67-1.38-1.71-2.14-2.09-20.84-4.3-41.32-6.56-62.76-6.19-21.45-.41-41.85,2.01-62.69,6.27-.88.71-1.91,1.8-1.99,2.58-.07.65.87,2.03,1.41,2.44,24.95,18.71,65.63,21.91,95.89,13.78ZM657.4,84.77c2.61,1.47,5.01,1.03,7-.89,20.05-19.38,41.92-36.18,65.72-50.68,1.97-1.2,1.93-3.9.31-5.3-7.38-6.36-9.49-3.95-19.07-.61-18.4,6.41-35.86,13.83-52.82,23.42-8.67,4.9-16.82,9.6-24.67,15.73-1.85,1.44-.63,4.73,1.18,5.75l22.33,12.58ZM978.31,71.33c.93-.54,2.29-1.89,2.24-2.66s-.7-2.11-1.25-3.06c-11.82-8.28-23.64-15.22-36.49-21.86-15.48-8.3-31.67-14.09-48.42-19.23-7.28-2.24-11.74,3.02-11.61,5.37.06,1.14,1.54,2.73,2.85,3.49,23.54,13.68,44.59,30.5,63.95,49.6,2.06,2.03,4.7,2.29,7.02.94l21.73-12.6ZM937.58,92.51c.98-.39,2.17-2.02,2.09-2.82-.07-.66-.71-2.25-1.33-2.81l-17.33-15.54-22.42-17.14-20.92-12.93-9.21-4.26-15.37,6.66c-2.56,1.11-1.11,4.05-.03,5.64l19.56,28.67,16.67,27.17c1.44,2.35,3.84,2.8,6.38,2.06l19.53-5.71,22.37-8.99ZM724.4,105.79c8.47-15.04,16.49-29.86,26.83-43.63l9.32-12.42c1.04-1.39,1.81-4.79-.07-5.66l-10.54-4.84c-1.45-.67-5.14-2.03-6.6-1.14l-23.92,14.59c-15.32,10.21-28.88,22.01-42.49,34.39-.9.81-1.9,2.38-2,3.29s1.26,2.7,2.22,3.11c14.15,6.08,28.03,10.75,43.04,14.7,1.31.34,3.58-1.26,4.22-2.41ZM798.3,119.12c1.59-.06,3-2,3.32-3.28v-59.58c0-2.87-1.84-4.2-4.33-4.52l-19.05-2.46c-2.11-.27-4.37.7-5.71,2.5-8.63,11.54-17.44,22.46-24.77,34.9l-12.24,20.78c-3.38,5.74,10.83,6.98,20.09,8.33,14.3,2.08,27.84,3.9,42.7,3.34ZM875.21,111.97c1.16-.3,2.92-1.91,2.72-2.87-.18-.85-.86-2.49-1.38-3.37l-14.83-24.76-17.72-24.73c-1.78-2.48-3.65-5.05-6.32-6.72-1.9-1.19-5.48.56-7.42.81l-13.64,1.72c-1.77.22-3.48,2.21-3.47,4.34l.19,59.17c0,1.15,1.21,3.22,2.18,3.48.83.23,2.68.28,3.83.24,19.04-.73,37.4-2.6,55.87-7.31Z"/>
  <path class="cls-1" d="M882.18,496.2c3.64.72,5.79.31,7.42-2.93l7.93-15.7c2.73-1.98,7.53-2.06,9.69-.54.68.48.81,2.6.41,3.52l-6.88,15.98c-.33.77-.44,2.38-.07,2.92s1.59,1.21,2.41,1.5l33.01,11.67,13.63,5.27c1.29.5,4.04.05,4.97-1.13l23.22-29.33c2.71-3.42,4.2-7.55,7.76-10.41,1.84-1.48,6.8-1.42,8.83-.55,2.42,1.03.96,3.64-.05,5.16-8.74,13.16-17.23,25.9-27.96,37.53-1.42,1.54-3.8,4.86-.91,6.51l27.42,15.68c2.42,1.38,5.17.17,7.19-1.48,16.42-13.44,31.1-28.26,44.08-45.07l13.58-17.58c2.08-1.34,7.51-1.71,9.34-.21,2.17,1.77-.23,4.01-1.33,5.65-31.94,47.48-76.18,85.29-128.59,108.79-57.33,25.7-119.54,32.97-181.45,23.07l-23.76-5.33c-25.67-6.65-50.06-15.83-73.44-28.72-44.32-24.43-82-59.37-110.14-101.26-.75-1.12.75-3.3,1.73-3.25l7.99.35c3.9,3.29,5.87,7.02,8.8,10.98,15.08,20.35,32.46,38.31,52.33,54.02,1.87,1.48,4.76,1.5,6.7.36l23.62-13.85c1.16-.68,2.52-1.94,2.84-2.9s-.32-3.27-.85-4.36c-11.28-12.94-21.31-26.21-30.44-40.74-.24-.82-.61-2.78.01-3.14,2.76-1.59,9.09-1.89,12.12,2.52l10.25,14.94,18.79,22.87c2.15,2.62,5.3,1.53,7.86.48l10.73-4.39,36.42-12.57c1.46-1.74.42-4.44-.47-6.35l-6.64-14.14c-.32-.68-.13-2.71.4-3.2,2.24-2.08,9.13-.96,9.93.56l8.73,16.73c.66,1.26,2.92,2.32,4.45,2.11l37.37-5.3,27.97-2.38c7.1-.6,2.6-8.62,4.86-11.26,1.53-1.8,7.67-1.58,9.42.1,2.07,1.98-.02,6.15,1.49,9.05.49.93,2.41,1.65,3.92,1.76,21.35,1.47,42.1,3.82,63.34,8.05ZM784.33,569.82l15.49-2.17c2.05-.29,3.63-2.01,3.63-4.12v-60.03c0-2.15-2.01-4.19-4.04-4.03l-34.33,2.72-12.93,2.19-11.34,2.25c-.8.16-2.41,1.17-2.8,1.86s-.3,2.5.12,3.22l14.66,25.09,21.49,30.19c2.63,3.7,5.54,3.46,10.04,2.83ZM844.26,567.45c10.09-13.65,19.97-27.17,28.45-41.9l7.97-13.86c.42-.72.65-2.64.21-3.31s-2.09-1.55-3-1.7l-28.17-4.88-31.02-2.26c-1.87-.14-4.18,1.75-4.17,3.8l.26,60.29c.01,2.51,1.87,3.93,3.99,4.23l17.83,2.55c3.02.43,5.74-.38,7.64-2.95ZM747.48,581.98l16.31-6.9c.39-.87.23-3.03-.14-3.75l-20.89-30.28-15.56-26.18c-1.1-1.84-3.09-4.3-5.6-3.69-15.6,3.86-30.49,9.15-44.79,16.34-2.58,1.3.19,4.96,1.44,6.07,12.91,11.46,25.16,22.92,39.7,32.22l21.6,13.82c1.9,1.22,5.4,3.42,7.93,2.35ZM868.64,581.38c1.12.48,4.01.13,5.15-.07l27.66-17.11c13.8-9.98,26.46-20.6,38.67-32.5,1.02-1,1.95-4.27.56-4.94-14.35-7.03-28.77-11.98-44.41-15.32-1.32-.28-3.57,1.11-4.26,2.37-8.12,14.84-16.6,28.86-26.41,42.6l-10.6,14.84c-.77,1.08-.79,3.93.54,4.49l13.11,5.63ZM677.73,578.35c15.02,7.29,30.07,12.43,45.67,17.38,3.63,1.15,9.33-2.56,9.76-5.84.12-.95-1.09-2.69-2.18-3.33-24.4-14.31-46.21-31.69-66.14-51.87-2.4-.94-5.89.27-8.06,1.5l-19.37,11c-1.16.66-2.46,2.12-2.59,3.14-.11.88.69,3.11,1.57,3.68l17.7,11.56,23.63,12.76ZM942.41,577.22l20.15-10.92c7.02-3.8,14.21-8.49,20.23-13.31.82-.65,1.38-3.14.87-3.85-.43-.59-1.45-1.49-2.23-1.92l-11.2-6.17-11.01-6.17c-2.65-1.49-5.55-1.12-7.79.89l-26.54,23.83c-11.68,10.48-24.75,18.35-37.87,26.88-1.04.67-2.36,2.42-2.15,3.37.51,2.33,4.58,5.47,8.1,6.26,17.17-5.12,33.83-10.42,49.45-18.89ZM829.96,607.37l41.32-5.5c1.02-.14,2.92-1.73,2.78-2.65-.13-.79-.79-2.14-1.35-3.11-10.31-6.74-21.25-11.51-33.34-14.18-18.12-4.32-36.16-4.43-54.45-1.1-13.82,2.51-26.21,7.22-38.06,14.64-1.05.66-2.59,2.1-2.54,3.11.04.86,1.09,2.27,1.95,3.17l29.45,4.47c17.96,1.9,35.58,2.42,54.24,1.16Z"/>
</svg>