<?xml version="1.0" encoding="UTF-8"?>
<svg id="Layer_1" data-name="Layer 1" xmlns="http://www.w3.org/2000/svg" viewBox="0 0 20 20">
  <defs>
    <style>
      .cls-1 {
        fill: #153e90;
      }

      .cls-2 {
        fill: #54e346;
      }
    </style>
  </defs>
  <polygon class="cls-1" points="32.11 21.06 32.11 19.57 26.17 19.57 26.17 19.57 20.24 19.57 20.24 21.06 18.75 21.06 18.75 25.51 24.69 25.51 24.95 25.51 26.17 25.51 26.17 25.51 27.39 25.51 27.66 25.51 33.59 25.51 33.59 21.06 32.11 21.06"/>
  <g>
    <polygon class="cls-2" points="19.95 0 15.82 0 15.82 2.16 17.79 2.16 17.79 4.23 19.95 4.23 19.95 0"/>
    <path class="cls-1" d="M2.02,18.03V2.26H.05v17.74h17.74v-1.97H2.02Z"/>
    <rect class="cls-1" x="3.99" y="10.15" width="1.97" height="5.91"/>
    <polygon class="cls-2" points="11.87 4.23 11.87 8.96 11.87 11.33 11.87 13.69 11.87 16.06 13.85 16.06 13.85 13.69 13.85 11.33 13.85 8.96 13.85 4.23 11.87 4.23"/>
    <polygon class="cls-1" points="7.93 8.17 7.93 14.09 7.93 16.06 9.9 16.06 9.9 14.09 9.9 8.17 7.93 8.17"/>
  </g>
</svg>