<?xml version="1.0" encoding="UTF-8"?>
<svg id="Layer_1" data-name="Layer 1" xmlns="http://www.w3.org/2000/svg" viewBox="0 0 20 20">
  <defs>
    <style>
      .cls-1 {
        fill: #153e90;
      }

      .cls-2 {
        fill: #54e346;
      }
    </style>
  </defs>
  <path class="cls-2" d="M7.69,1.54v3.08h-3.08V1.54h3.08V0H3.08v6.15h6.15V1.54h-1.54Z"/>
  <path class="cls-1" d="M7.69,9.23v9.23h-3.08v-9.23h3.08v-1.54H3.08v12.31h6.15v-10.77h-1.54Z"/>
  <path class="cls-2" d="M15.38,15.38v3.08s-3.08,0-3.08,0v-3.08s3.08,0,3.08,0v-1.54h-4.62v6.15h6.15v-4.62h-1.54Z"/>
  <path class="cls-1" d="M15.38,1.54v9.23s-3.08,0-3.08,0V1.54s3.08,0,3.08,0V0h-4.62v12.31h6.15V1.54h-1.54Z"/>
</svg>