<?xml version="1.0" encoding="UTF-8"?>
<svg id="Layer_2" data-name="Layer 2" xmlns="http://www.w3.org/2000/svg" viewBox="0 0 24 19.87">
  <defs>
    <style>
      .cls-1 {
        fill: #fff;
      }
    </style>
  </defs>
  <g id="Layer_1-2" data-name="Layer 1">
    <g>
      <path class="cls-1" d="M12.39,15.44H.18c-.09,0-.14-.09-.18-.17V3.16h3.01s0-3.14,0-3.14L5.36,0h.76s2.45.01,2.45.01c-.05.12-.09.2-.06.32l3.8,14.96s.05.1.07.15M7.38,5.59c.29-.52.31-1.12.07-1.65-.21-.44-.59-.71-1.08-.78h-3.35v3.07s3.19,0,3.19,0c.49,0,.91-.22,1.16-.65M7.51,11.69c.41-.6.38-1.37-.03-1.94-.23-.3-.54-.48-.92-.52h-3.54v2.99h3.57c.37-.06.68-.23.91-.54"/>
      <path class="cls-1" d="M13.95,9.36l-1.31-5.16-.98-3.91-.09-.28h4.7c-.02.05-.05.1-.07.15l-2.26,9.2Z"/>
      <path class="cls-1" d="M21.66,9.4l-.75-2.89L19.33.25l-.07-.23h4.7c-.05.13-.09.22-.12.34l-2.19,9.04Z"/>
      <polygon class="cls-1" points="20.08 15.44 15.54 15.44 15.62 15.23 17.79 6.54 20.02 15.24 20.08 15.44"/>
      <path class="cls-1" d="M12.41,15.88c.13-.01.24-.01.37,0l-.34,2.93h-.54s-.32-2.59-.32-2.59l-.33,2.59h-.55s-.33-2.92-.33-2.92c.14,0,.24,0,.37,0l.25,2.6.37-2.6h.42s.36,2.58.36,2.58l.24-2.58Z"/>
      <path class="cls-1" d="M1.23,17.25c.35.1.31.94.24,1.23-.05.18-.18.33-.38.33H.07v-2.94h.99c.17,0,.29.12.35.26.1.3.15.92-.19,1.12M1.09,16.29c-.02-.1-.12-.17-.22-.17l-.44.02v.97s.52,0,.52,0c.22,0,.17-.65.14-.82M.96,17.39H.44s0,1.14,0,1.14h.55c.24,0,.22-1.14-.03-1.14"/>
      <path class="cls-1" d="M14.88,18.77c-.1.05-.23.04-.36.03v-1.35s-.7,0-.7,0v1.35h-.35v-2.93h.35s0,1.3,0,1.3h.69v-1.3s.36,0,.36,0v2.9Z"/>
      <path class="cls-1" d="M9.1,17.17l.63,1.62c-.12,0-.24.01-.38,0l-.51-1.24c-.05.08-.14.19-.14.26v.99c-.13,0-.25,0-.37-.01v-2.91s.37,0,.37,0v1.21s-.02.16-.02.16l.68-1.37h.38s-.63,1.3-.63,1.3Z"/>
      <path class="cls-1" d="M5.08,17.98h-.6s-.14.83-.14.83h-.37s.54-2.93.54-2.93h.52s.56,2.93.56,2.93h-.37s-.13-.83-.13-.83ZM5.04,17.69l-.26-1.53-.26,1.53h.52Z"/>
      <path class="cls-1" d="M6.87,18.55c.46.02.38-.63.39-.96h.36c0,.55-.04,1.25-.74,1.25-.34,0-.6-.2-.67-.55-.12-.61-.11-1.25,0-1.87.06-.36.33-.56.68-.57.32,0,.58.17.66.49.06.25.07.48.08.76h-.36c0-.28,0-.51-.07-.76-.05-.17-.23-.22-.38-.19-.15.03-.27.15-.28.34-.06.58-.07,1.16,0,1.73.03.19.17.32.33.33"/>
      <polygon class="cls-1" points="19.94 17.46 19.16 17.47 19.16 18.49 19.97 18.49 19.97 18.81 18.8 18.81 18.8 15.87 19.97 15.87 19.97 16.19 19.16 16.19 19.16 17.15 19.94 17.15 19.94 17.46"/>
      <polygon class="cls-1" points="17.62 16.26 17.62 18.8 17.26 18.8 17.26 16.19 16.75 16.18 16.75 15.87 18.13 15.87 18.13 16.18 17.52 16.19 17.62 16.26"/>
      <path class="cls-1" d="M2.53,18.49h.78s0,.32,0,.32h-1.1s0-2.94,0-2.94h.37s0,2.46,0,2.46c0,.04-.03.1-.05.16"/>
      <path class="cls-1" d="M23.16,18.85c.09-.13-.26-.13-.29-.21-.02-.04,0-.15.03-.18l.41-.45s.06-.18.05-.24c-.02-.05-.12-.11-.19-.12-.48-.06-.44.8-.86.78-.07,0-.17-.08-.2-.16-.09-.22-.11-.67.1-.65.28.03-.03.51.14.68.1.1.3-.32.33-.41.09-.24.31-.39.57-.36.23.03.37.23.3.46-.06.22-.2.38-.35.58l.17.09c.24-.22.42-.48.55-.77l.03-.05s.06,0,.06,0c0,.24-.4.71-.59.9.08.34.05.69-.18.95-.1.12-.28.21-.42.09-.22-.18.22-.78.35-.96M23.2,18.98c-.14.12-.45.65-.3.75.11.07.41-.53.3-.75"/>
      <path class="cls-1" d="M16.02,18.79c-.13.01-.23.01-.36,0v-2.93h.36s0,2.92,0,2.92Z"/>
      <path class="cls-1" d="M22.18,16.37l-.41,1.66c-.05.21-.13.74-.33.77-.19.03-.35-.3-.39-.48-.15-.59-.21-1.2-.15-1.81,0-.05.06-.12.1-.15.03-.03.15,0,.17.04.03.08,0,.21,0,.31,0,.34.03,1.7.3,1.96.16-.39.24-.74.32-1.13.13-.38.12-.81.4-1.17"/>
      <path class="cls-1" d="M22.1,17.25c.08-.04.19-.02.23.05.04.07.03.19-.05.24-.07.05-.18.04-.24-.05-.04-.06-.03-.2.05-.24"/>
    </g>
  </g>
</svg>