<?xml version="1.0" encoding="UTF-8"?>
<svg id="Layer_2" data-name="Layer 2" xmlns="http://www.w3.org/2000/svg" viewBox="0 0 210.05 229.12">
  <defs>
    <style>
      .cls-1 {
        fill: #fff;
      }
    </style>
  </defs>
  <g id="Layer_1-2" data-name="Layer 1">
    <g>
      <path class="cls-1" d="M163.7,115.3c-3.23-1.54-6.83-2.43-10.64-2.43-13.67,0-24.79,11.11-24.79,24.78,0,2.41.36,4.72,1,6.93-7.54,2.91-15.7,4.55-24.26,4.55-37.51,0-68.03-30.53-68.02-68.04,0-3.62.37-7.15.91-10.62,5.92,20.31,24.67,35.21,46.87,35.21,26.93,0,48.84-21.91,48.84-48.84,0-19.15-11.1-35.7-27.18-43.71,36.86.76,66.62,30.93,66.62,67.97,0,12.48-3.45,24.13-9.36,34.19M153.05,149.37c-6.46,0-11.72-5.26-11.72-11.72s5.26-11.72,11.72-11.72c6.46,0,11.72,5.26,11.72,11.72,0,6.46-5.26,11.72-11.72,11.72M84.78,21.08c19.72,0,35.77,16.05,35.77,35.77s-16.05,35.77-35.77,35.77-35.77-16.05-35.77-35.77,16.05-35.77,35.77-35.77M186.12,81.11C186.13,36.39,149.76,0,105.04,0,60.32,0,23.94,36.37,23.93,81.08c0,44.72,36.37,81.1,81.08,81.11,11.1,0,21.65-2.27,31.29-6.33,4.41,4.07,10.29,6.57,16.75,6.57,13.67,0,24.79-11.12,24.79-24.78,0-5.03-1.52-9.71-4.1-13.62,7.82-12.46,12.37-27.17,12.38-42.93"/>
      <path class="cls-1" d="M18.31,188.89c.67.34,1.18.6,1.53.78l-3.22,6.58c-.36-.21-.8-.38-1.31-.51-.16-.05-.45-.11-.86-.17-1.55,0-2.73.33-3.53.99-.81.65-1.21,1.52-1.21,2.61,0,.37.04.74.13,1.12.21.77.59,1.41,1.14,1.89.56.49,1.26.78,2.1.88,1.31,0,2.31-.22,3-.66.08-.05.16-.11.24-.17l.26-.17,3.98,5.21c-.86.75-1.53,1.26-2.01,1.55-2.33,1.45-4.76,2.18-7.26,2.18-1.75,0-3.4-.36-4.97-1.09-1.56-.73-2.87-1.75-3.94-3.08-1.06-1.32-1.77-2.89-2.12-4.68-.18-.99-.27-1.95-.27-2.9,0-1.68.29-3.23.86-4.65.57-1.42,1.39-2.66,2.46-3.72,1.07-1.07,2.34-1.89,3.81-2.47,1.47-.58,3.08-.87,4.84-.87.72,0,1.55.07,2.49.21,1.21.2,2.49.57,3.85,1.12"/>
      <path class="cls-1" d="M29.88,199.22c0,.82.13,1.52.4,2.09.26.57.64,1.02,1.12,1.35.64.37,1.21.55,1.71.55s1.07-.18,1.66-.55c.45-.28.82-.72,1.12-1.31.29-.59.43-1.26.43-2.04,0-.21-.03-.51-.08-.91-.18-1.17-.67-2.01-1.47-2.52-.57-.35-1.12-.53-1.66-.53s-1.1.17-1.71.53c-.47.29-.83.73-1.1,1.3-.27.57-.41,1.26-.41,2.04M33.1,210.97c-2.39,0-4.52-.49-6.38-1.47-1.86-.98-3.31-2.37-4.34-4.16-1.04-1.79-1.55-3.83-1.55-6.12,0-2.05.43-3.9,1.29-5.56.86-1.66,2.07-3.01,3.62-4.04,1.55-1.04,3.35-1.69,5.39-1.94.71-.08,1.4-.13,2.06-.13,1.79,0,3.44.28,4.93.85s2.78,1.36,3.85,2.4c1.07,1.04,1.9,2.27,2.48,3.71.59,1.43.88,3,.88,4.71s-.29,3.32-.86,4.74c-.58,1.43-1.42,2.67-2.54,3.74-1.11,1.07-2.41,1.88-3.88,2.44-1.47.56-3.12.83-4.95.83"/>
      <path class="cls-1" d="M56.2,199.15c0,.42.01.73.04.94.18.96.47,1.68.88,2.16.41.48.99.78,1.73.91.35.06.59.09.72.09.82,0,1.5-.28,2.06-.84.56-.56.92-1.34,1.06-2.32v-1.92c-.24-1.45-.87-2.41-1.88-2.86-.4-.18-.83-.27-1.29-.27-.77,0-1.46.27-2.07.81-.6.54-.99,1.26-1.17,2.18-.06.46-.09.83-.09,1.11M56.88,218.78h-9.67v-31.26h9.67v2.82c.32-.63,2.01-2.78,5.56-2.86.53-.01,2.69-.27,5.16,1.45.7.48,2.13,1.79,3.08,3.61.28.54.43,1.19.61,1.84.4,1.35.59,2.81.59,4.37,0,2.19-.32,4.14-.98,5.86-.65,1.72-1.54,3.1-2.68,4.15-1.14,1.04-2.43,1.72-3.87,2.05-.76.14-1.42.22-1.97.22-2.22,0-3.88-.81-4.99-2.44-.15-.19-.32-.53-.53-1.03v11.21Z"/>
      <path class="cls-1" d="M110.09,211.03h-9.67v-23.51h9.67v3.6c.06-.12.73-1.59,1.68-2.43,1.77-1.55,5.48-1.08,6.88-1.17v8.31c-2.13-.01-5.1-.1-6.54.77-.66.4-1.26.99-1.56,1.78-.3.8-.45,1.86-.45,3.18v9.46Z"/>
      <path class="cls-1" d="M130.6,211.03h-9.67v-23.48h9.67v3.27l.04-.05.48-.74c1.06-1.31,1.97-2.7,6.8-2.51,2.58.11,4.45.81,5.44,3.09.61,1.41.84,2.91.84,5.18v15.23h-9.67v-12.41c0-2.27-.6-3.4-1.79-3.4-.19,0-.43.05-.72.13-.51.16-.88.53-1.1,1.09-.22.56-.33,1.51-.33,2.83v11.76Z"/>
      <path class="cls-1" d="M175.85,188.89c.67.34,1.18.6,1.53.78l-3.22,6.59c-.37-.21-.8-.38-1.31-.51-.16-.06-.45-.11-.86-.17-1.55,0-2.73.33-3.53.99-.81.66-1.21,1.53-1.21,2.62,0,.37.04.74.13,1.12.21.77.59,1.41,1.14,1.9.56.49,1.26.78,2.1.88,1.31,0,2.31-.22,3-.66.08-.05.16-.11.24-.17.09-.06.18-.11.27-.17l3.98,5.21c-.86.75-1.53,1.26-2.01,1.55-2.33,1.45-4.76,2.18-7.26,2.18-1.75,0-3.41-.36-4.97-1.09-1.56-.73-2.87-1.76-3.94-3.08-1.06-1.33-1.77-2.89-2.12-4.68-.18-.99-.27-1.96-.27-2.91,0-1.68.29-3.23.86-4.65.57-1.42,1.39-2.66,2.46-3.73,1.07-1.07,2.34-1.89,3.81-2.47,1.47-.58,3.08-.87,4.84-.87.72,0,1.55.07,2.49.21,1.21.19,2.49.57,3.85,1.12"/>
      <path class="cls-1" d="M191.17,208.78c-.29-.17-.5-.29-.61-.38l2.41-6.5c.64.62,1.47,1.17,2.47,1.65,1.39.61,2.49.91,3.32.91.72,0,1.22-.19,1.51-.57.19-.22.29-.46.29-.7,0-.38-.26-.68-.77-.91-.29-.13-.56-.21-.81-.25l-.55-.13-.77-.17-.65-.15-.72-.17c-1.4-.37-2.51-1.1-3.34-2.18-.82-1.09-1.23-2.31-1.23-3.66,0-1.15.25-2.2.77-3.18.49-1.03,1.16-1.9,1.99-2.62.83-.71,1.86-1.26,3.08-1.65,1.22-.39,2.56-.58,4.04-.58,1.3,0,2.65.14,4.07.43.95.17,1.95.43,3,.78l.42.13.4.19-1.97,6.46c-.83-.54-1.7-.96-2.6-1.27-.96-.25-1.62-.38-1.97-.38-.59.04-.99.1-1.2.17-.54.13-.81.42-.81.87,0,.16.06.33.18.53.17.21.46.4.85.55.07.01.14.03.21.05.07.02.13.05.19.07l.46.08.9.19.48.08.94.17c.96.21,1.82.59,2.58,1.15.76.56,1.34,1.26,1.75,2.09s.62,1.77.62,2.78c0,.58-.08,1.21-.24,1.9-.29,1.26-.87,2.37-1.74,3.34-.87.96-2.01,1.72-3.41,2.26-1.41.54-3.03.82-4.87.82-.69,0-1.39-.05-2.12-.13-1.3-.18-2.43-.43-3.4-.74-.97-.31-2-.76-3.1-1.36"/>
      <path class="cls-1" d="M155.42,211.02c-.18-.85-.29-1.73-.29-2.63v-20.87h-8.21v20.87c0,.89.08,1.77.19,2.63h8.32Z"/>
      <path class="cls-1" d="M180.15,188.09v20.3c0,6.9-5.61,12.52-12.51,12.52-5.05,0-9.39-3.02-11.36-7.34h-8.69c2.31,8.93,10.41,15.55,20.05,15.55,11.43,0,20.73-9.3,20.73-20.73v-20.3h-8.21Z"/>
      <path class="cls-1" d="M82.89,196.75c0-.19.03-.42.09-.7.1-.51.28-.97.53-1.38.26-.41.56-.74.93-1,.54-.35,1.12-.53,1.75-.53.41,0,.81.08,1.2.25,1.01.44,1.63,1.32,1.88,2.65.03.18.05.42.05.7h-6.43ZM96.4,192.94c-1-1.76-2.35-3.1-4.07-4.04-1.71-.93-3.67-1.4-5.87-1.4-1.11,0-2.18.1-3.22.3-1.27.22-2.47.68-3.61,1.37-1.14.69-2.14,1.56-3,2.64s-1.52,2.27-1.99,3.6c-.54,1.44-.81,2.89-.81,4.36,0,2.07.52,3.96,1.56,5.67,1.04,1.71,2.49,3.06,4.34,4.05,1.85.99,3.93,1.48,6.24,1.48s4.47-.43,6.17-1.31c1.39-.72,2.54-1.63,3.48-2.73.93-1.1,1.6-2.3,1.99-3.6h-.05s-8.8,0-8.8,0c-.17.34-.4.64-.71.87-.47.35-1.04.53-1.69.53-.35,0-.62-.03-.81-.08-.63-.16-1.18-.49-1.65-.99-.48-.51-.78-1.15-.93-1.91-.03-.25-.04-.51-.04-.66h15.22v-1.9c-.18-2.4-.76-4.48-1.76-6.24"/>
    </g>
  </g>
</svg>