<?xml version="1.0" encoding="UTF-8"?>
<svg id="Layer_2" data-name="Layer 2" xmlns="http://www.w3.org/2000/svg" viewBox="0 0 418 480">
  <defs>
    <style>
      .cls-1 {
        fill: #fefefe;
      }
    </style>
  </defs>
  <g id="Layer_1-2" data-name="Layer 1">
    <g>
      <path class="cls-1" d="M316.84,284.39c-61.54,54.79-154.15,54.62-215.57.1l-7.55-7.03c-2.4-2.24-4.45-4.67-6.77-7.34-22.51-25.89-36.84-58.08-39.69-92.52l.09-29.68C53.92,70.72,116.61,8.37,193.8,1.45h30.41c77.18,6.92,139.91,69.3,146.45,146.48l.02,30.52c-3.06,34.35-17.49,66.47-40.09,92.19l-6.89,7.28c-2.12,2.24-4.2,4.09-6.86,6.47ZM176.59,226.67v49.54c2.06,1.86,4.91,1.87,6.92,0l.19-49.49,82.46-.61c13.68-.1,26.09-7.13,35.83-15.68,13.4-11.76,20.73-27.28,21.91-45.02v-24.56c-1.85-30.34-23.82-56.63-54.99-60.35-12.08-1.44-25.03-1.4-37.25-.06-29.28,3.21-50.53,27.07-54.94,55.56l-.26,83.55-60.12-.44c-9.05-.07-15.22-7.98-14.59-16.52v-111.69c.01-2.81-2.27-4.33-4.43-4.1-1.63.17-3.65,1.62-3.64,4.11l.43,114.32c.04,10.73,9.24,20.88,19.62,20.97l62.86.49ZM183.56,93.72c1.84-1.44,1.38-6.66-.21-6.66l-70.63-.35c-2.64-.01-4.54,1.28-4.54,3.6s1.88,3.59,4.54,3.58l70.84-.17ZM167.65,108.88c2.74.01,4.28-1.25,4.71-3.8.26-1.53-1.45-4.21-3.93-4.21h-43.56c-2.23,0-3.64,2.16-4.05,3.64s.81,4.16,3.03,4.17l43.8.21Z"/>
      <path class="cls-1" d="M236.42,411.4c-3.27,1.19-5.91.91-8.95.58l-.02-17.81h-19.92s-.02,17.88-.02,17.88l-7.99-.03v-43.68s7.99-.03,7.99-.03l.02,17.88h19.92s.02-17.9.02-17.9l8.99.03-.04,43.08Z"/>
      <path class="cls-1" d="M411.74,387.12c.53,2.47.42,4.55.12,7.05h-20.79s-.32,17.43-.32,17.43c-2.97.82-5.67.76-8.68.35v-43.73s32.78-.02,32.78-.02l.02,7.01h-23.77s-.02,11.97-.02,11.97l20.65-.07Z"/>
      <path class="cls-1" d="M99.69,412.2l-14.48-33.97-14.61,33.69c-2.71.39-5,.49-8.21-.08l18.73-43.41,8.02-.28,18.93,43.7-8.38.35Z"/>
      <path class="cls-1" d="M153.68,411.89l-9.03.14v-35.8s-13.4-.38-13.4-.38c-.82-2.55-.82-4.96-.38-7.62h35.63s.03,7.98.03,7.98l-12.9.05.06,35.65Z"/>
      <path class="cls-1" d="M32.65,404.54c1.83.48,1.69,5.63.99,7.52l-30.66.09v-43.8s8,0,8,0v35.74s21.67.45,21.67.45Z"/>
      <path class="cls-1" d="M280.38,411.77c-2.96.75-5.69.66-8.89-.22l-.19-43.22h9.03s.04,43.44.04,43.44Z"/>
      <path class="cls-1" d="M375.16,472.05c0,1.42-.78,2.63-1.61,2.92-1.01.35-2.53-.1-3.24-1.16l-11.96-17.85-.34,18.76c-.46.59-2.44.45-2.89-.14-.4-.52-1.01-1.24-1.01-2.54v-20.02c0-1.52.79-2.63,1.62-2.9,1.71-.55,2.92-.01,3.88,1.46l11.32,17.57.2-18.97c1.46-.21,2.51-.22,3.99.01l.05,22.85Z"/>
      <path class="cls-1" d="M58.83,474.57c-2.12-1.52.25-8.73-2.44-10.01s-6.36-.42-9.4-.42l-.31,10.59c-.26.59-2.43.47-2.84-.14-.35-.52-1.03-1.24-1.01-2.54l.33-22.63,13.54-.17c2.9-.04,4.97,2.84,5.74,4.8,1.08,2.74-.15,5.24-2.56,7.37l1.78,4.71c1.09,2.87.02,5.79,1.32,8.55-1.74.68-3.25.54-4.17-.11ZM55.83,459.93c1.65-.01,2.62-2.16,2.62-3.38s-.97-3.37-2.62-3.38l-8.83-.07v6.91s8.83-.07,8.83-.07Z"/>
      <path class="cls-1" d="M146.92,462.45c-.33,6.64-2.84,10.67-8.93,12.03-3.66.82-7.86.9-12.05.05l-.24-25.44,11.91.07c6.53.04,9.65,6.85,9.32,13.28ZM140.67,469.19c3.37-3.53,3.04-12.31-.67-15.17-2.79-2.15-7.06-.76-10.24-.82v17.65c3.3.1,7.97,1.43,10.91-1.65Z"/>
      <path class="cls-1" d="M315.42,473.09c-3.93-2.67-5.3-8.49-5-12.71.52-7.33,5.71-12.27,12.4-12.18s12.13,6.87,11.65,13.72c-.37,5.25-1.5,9.28-5.5,11.68-3.62,2.17-9.27,2.41-13.55-.5ZM327.12,453.53c-2.21-1.53-5.57-2.45-8.15-.66-5.44,3.77-6.14,12.27-1.61,16.8,2.74,2.74,6.6,2.48,9.15,1.16,5.27-2.73,5.14-14.16.61-17.3Z"/>
      <path class="cls-1" d="M94.32,475.31c-6.57.17-10.56-3.09-11.98-8.9-1.04-4.28-1.1-8.48,1.52-12.59,1.71-2.68,5.48-5.54,9.91-5.54s8.21,2.85,9.91,5.54c2.61,4.11,2.58,8.3,1.51,12.6-1.32,5.34-4.84,8.74-10.88,8.89ZM99.5,469.12c3.77-4.61,3.05-11.75-1.14-15.67-2.24-2.09-6.95-2.1-9.19,0-4.4,4.15-4.81,11.56-.93,15.94,2.97,3.36,8.15,3.52,11.25-.27Z"/>
      <path class="cls-1" d="M405.65,475.22c-5.98.49-9.36-1.64-11.2-6.97-.36-1.04.47-2.04,1.19-2.2,3.46-.78,2.78,7.02,9.92,5.66,2.59-.49,3.6-2.19,3.64-4.21.12-5.51-13.15-2.58-14.18-10.45-.7-5.34,4.02-8.59,8.57-8.84s9.31,3.47,9.52,8.6c-1.57.39-2.67.28-3.83.19-.27-3.62-2.48-4.48-4.93-4.99-2.18-.45-5.74,1.03-5.17,3.97.68,3.48,5.59,3.58,8.27,4.39,3.88,1.17,6.69,4.93,6.33,7.85-.54,4.38-3.5,6.62-8.15,7Z"/>
      <path class="cls-1" d="M342.38,394.14l-26.04.06v-8.02s31.79.01,31.79.01c.77,3.85-1.9,6.35-5.76,7.95Z"/>
      <path class="cls-1" d="M225.23,466.23c.48-2.04,4.25-1.52,4.15-.46-.57,6.43-5.94,10.2-11.91,9.39-2.87-.39-5.43-.33-7.29-3.01-4.1-5.93-4.62-15.25.47-20.68,2.7-2.88,7.41-3.81,10.72-3.03,3.57.84,6.72,3.67,7.78,8.01.22.92-1.44,1.83-2.21,1.72-1.37-.2-1.59-.99-2.17-2.53-1.37-3.62-6.3-4.53-9.12-3.02-3.72,1.99-4.46,5.21-4.35,9.48s.97,8.09,5.2,9.48c3.04,1,7.68-.91,8.73-5.34Z"/>
      <rect class="cls-1" x="316.39" y="368.22" width="32.64" height="7.02"/>
      <path class="cls-1" d="M348.33,412.12l-31.94.05v-7.03s32.56,0,32.56,0c.49,2.36.59,4.41-.62,6.97Z"/>
      <path class="cls-1" d="M183.78,449.64c.02-.99,2.39-.89,2.82-.14.3.54,1.02,1.16,1,2.56l-.23,14.69c-.09,5.47-4.74,8.28-9.73,8.49-5.89.25-10.54-2.65-10.7-8.74l-.37-14.44c-.04-1.37.6-1.99,1-2.55.67-.93,2.95-.72,2.97.3l.23,14.98c.06,4.17,1.54,6.63,5.54,7.04,3.36.34,6.97-1.78,7.08-6.04l.39-16.14Z"/>
      <path class="cls-1" d="M10.14,463.88l-.09,8.16c-.01,1.33-.64,1.95-1.03,2.53-.64.93-3,.72-3-.3l-.03-25.16,11.78.17c3.6.05,6.05,3.54,6.34,6.26.4,3.82-1.59,6.89-5.58,8.13-2.37.74-4.82.41-8.39.21ZM19.13,459.66c1.44-1.66,1.37-5.51-.36-6.15-2.86-1.06-5.8-.43-8.66-.37l-.03,6.82c3.06.15,5.66.42,9.06-.3Z"/>
      <path class="cls-1" d="M258.37,453.16l.02,21.02c0,1.02-1.83,1.13-2.39.81-.51-.29-1.52-.9-1.54-2.07l-.31-20.07c-2.45.37-3.57.21-5.05.08-1.15-.1-2.43-2.21-1.47-3.75h18.43c.6.5.46,2.47-.13,2.92-.53.41-1.19,1-2.57,1.01l-5,.05Z"/>
      <path class="cls-1" d="M290.36,472.04c0,1.91-1.12,3.06-2.54,3.06s-2.54-1.15-2.54-3.06v-20.01c0-1.91,1.12-3.06,2.54-3.06s2.54,1.15,2.54,3.06v20.01Z"/>
      <path class="cls-1" d="M261.72,219.2l-23.13.05c-27.79-1.49-51.07-22.66-54.07-50.48-.99-9.13-1.73-17.64-.3-26.5-.75-27.73,26.58-55.05,51.53-55.02l29.36.03c26.46,2.83,47.66,23.05,50.61,49.78,1.17,10.64,1.13,21.64,0,32.2-3.04,28.12-26.2,48-53.98,49.94ZM229.44,176.75c14.18,11.79,32.47,9.87,44.26-2.78,6.04-6.48,8.35-14.22,7.76-23.53-1.06-16.88-15.76-29.54-32.49-28.83-15.95.68-29.74,13.02-30.35,30.22-.32,9.08,3.75,19.03,10.83,24.92Z"/>
      <path class="cls-1" d="M209.84,218.9l-26.12.49.66-25.99c6.75,11.33,14,18.46,25.46,25.51Z"/>
      <path class="cls-1" d="M274.04,150.59c1.04,8.46-3.07,16.14-9.55,21.39-11.44,9.28-29.37,4.71-35.65-8.12s.12-29.3,14.46-33.73c13.77-4.26,28.77,4.47,30.74,20.46Z"/>
    </g>
  </g>
</svg>