<?xml version="1.0" encoding="UTF-8"?>
<svg id="Layer_2" data-name="Layer 2" xmlns="http://www.w3.org/2000/svg" viewBox="0 0 172.96 73.17">
  <defs>
    <style>
      .cls-1, .cls-2 {
        fill: #fff;
      }

      .cls-2 {
        font-family: Zekton-Regular, 'Zekton Regular';
        font-size: 8.59px;
      }
    </style>
  </defs>
  <g id="Layer_1-2" data-name="Layer 1">
    <g>
      <path class="cls-1" d="M61.2,50.61c2.92,1.72,6.3,2.72,9.9,2.75h-22.56v-25.64c0-8.3-6.76-15.06-15.06-15.06H12.66v40.69H0V12.66h12.57V0h58.71c-7.13,0-13.4,3.78-16.96,9.46-1.97,3.14-3.11,6.86-3.11,10.85v12.75c0,7.48,4.02,14.04,10,17.55ZM172.96,15.04v23.28c0,.78-.06,1.55-.18,2.31h-12.56V12.74h-40.04v27.88h-42.54l9.64-5.44c6.28-3.56,13.27-7.52,20.16-11.5,1.36-.78,2.71-1.57,4.05-2.35,2.85-1.66,4.62-4.75,4.62-8.07v-3.94c0-2.46-.95-4.71-2.5-6.38-1.68-1.81-4.07-2.94-6.71-2.94h14.49v.05c.4-.03.79-.05,1.19-.05h35.25c8.35,0,15.13,6.75,15.13,15.04ZM160.22,40.62v12.55c-.78.12-1.58.19-2.39.19h-35.25c-.19,0-.37,0-.56-.02v.02h-1.85v-12.74h40.04ZM71.27,10.29c-5.46,0-9.9,4.49-9.9,10.01v17.82l6.08-3.48c4.29-2.45,9-5.13,14.82-8.42,4.69-2.65,9.54-5.4,14.46-8.23l11.1-6.35,2.37-1.35h-38.93Z"/>
      <text class="cls-2" transform="translate(0 71.02)"><tspan x="0" y="0">DIGITALHUB</tspan></text>
    </g>
  </g>
</svg>