<?xml version="1.0" encoding="UTF-8"?>
<svg id="Layer_1" data-name="Layer 1" xmlns="http://www.w3.org/2000/svg" viewBox="0 0 100 100">
  <defs>
    <style>
      .cls-1 {
        fill: #fff;
      }

      .cls-2 {
        fill: #54e346;
      }
    </style>
  </defs>
  <polygon class="cls-2" points="87.5 25 81.25 25 81.25 31.25 87.5 31.25 87.5 37.5 81.25 37.5 81.25 43.75 81.25 50 87.5 50 87.5 43.75 93.75 43.75 93.75 37.5 93.75 37.5 93.75 31.25 93.75 25 87.5 25"/>
  <polygon class="cls-1" points="25 18.75 18.75 18.75 18.75 25 12.5 25 12.5 31.25 6.25 31.25 6.25 37.5 6.25 43.75 12.5 43.75 12.5 50 18.75 50 18.75 56.25 25 56.25 31.25 56.25 31.25 50 31.25 43.75 31.25 37.5 31.25 31.25 31.25 25 31.25 18.75 25 18.75"/>
  <polygon class="cls-2" points="31.25 18.75 31.25 25 31.25 31.25 31.25 37.5 31.25 43.75 31.25 50 31.25 56.25 37.5 56.25 37.5 50 37.5 43.75 37.5 37.5 37.5 31.25 37.5 25 37.5 18.75 31.25 18.75"/>
  <polygon class="cls-1" points="31.25 62.5 25 62.5 25 68.75 25 75 25 81.25 25 87.5 25 93.75 31.25 93.75 37.5 93.75 37.5 87.5 37.5 81.25 37.5 75 37.5 68.75 37.5 62.5 31.25 62.5"/>
  <polygon class="cls-2" points="31.25 93.75 25 93.75 25 100 31.25 100 37.5 100 37.5 93.75 31.25 93.75"/>
  <polygon class="cls-1" points="75 0 75 6.25 68.75 6.25 62.5 6.25 62.5 12.5 56.25 12.5 50 12.5 43.75 12.5 37.5 12.5 37.5 18.75 37.5 25 37.5 31.25 37.5 37.5 37.5 43.75 37.5 50 37.5 56.25 37.5 62.5 43.75 62.5 50 62.5 56.25 62.5 62.5 62.5 62.5 68.75 68.75 68.75 75 68.75 75 75 81.25 75 81.25 68.75 81.25 62.5 81.25 56.25 81.25 50 81.25 43.75 81.25 37.5 81.25 31.25 81.25 25 81.25 18.75 81.25 12.5 81.25 6.25 81.25 0 75 0"/>
</svg>