<?xml version="1.0" encoding="UTF-8"?>
<svg id="Layer_1" data-name="Layer 1" xmlns="http://www.w3.org/2000/svg" viewBox="0 0 100 100">
  <defs>
    <style>
      .cls-1 {
        fill: #fff;
      }

      .cls-2 {
        fill: #54e346;
      }
    </style>
  </defs>
  <g>
    <polygon class="cls-1" points="95 20 95 100 5 100 5 10.01 85 10.01 85 20 95 20"/>
    <g>
      <polygon class="cls-2" points="81.46 44.52 60.49 44.52 60.49 55.49 70.49 55.49 70.49 65.49 81.46 65.49 81.46 44.52"/>
      <polygon class="cls-2" points="39.51 44.52 18.54 44.52 18.54 55.49 28.54 55.49 28.54 65.49 39.51 65.49 39.51 44.52"/>
    </g>
    <g>
      <rect class="cls-2" x="35" y="70" width="10" height="10"/>
      <rect class="cls-2" x="45" y="50.01" width="10" height="19.99"/>
      <polygon class="cls-2" points="65 30.01 65 40.01 55 40.01 55 50 45 50 45 40 55 40 55 30.01 65 30.01"/>
    </g>
  </g>
  <polygon class="cls-2" points="85 10.01 85 5 85 5 85 2 85 0 85 0 85 0 45 0 5 0 5 0 5 0 5 2.5 5 5 5 5 5 10.01 85 10.01"/>
</svg>