<?xml version="1.0" encoding="UTF-8"?>
<svg id="Layer_1" data-name="Layer 1" xmlns="http://www.w3.org/2000/svg" viewBox="0 0 100 100">
  <defs>
    <style>
      .cls-1 {
        fill: #e0e0e0;
      }

      .cls-2 {
        fill: #50d142;
      }

      .cls-3 {
        fill: #fff;
      }

      .cls-4 {
        fill: #bcbcbc;
      }

      .cls-5 {
        fill: #5df64e;
      }
    </style>
  </defs>
  <path class="cls-1" d="M49.6,5.02L12.66,26.31l.02,20.08c.1,6.14.03,12.32.05,18.47.01,3.06.15,6.2.05,9.28,0,.09.05.19-.1.17l-3.39-1.99-.06-.23c.01-10.37-.04-20.74-.1-31.1-.01-1.9.07-3.85,0-5.75,0-.09.05-.19-.1-.17v-2.01c.16.05.14-.3,0-.24v-.1c.15.03.14-.13,0-.1v-.14c.13-.05.13-.14,0-.19v-.77c.14.03.09-.07.1-.17.05-1.25,0-2.55,0-3.81v-3.3L46.1,3.06l.25.06c.96.68,2.35,1.17,3.25,1.89Z"/>
  <path class="cls-1" d="M54.24,7.74l-4.54,2.63c0-1.28,0-2.57,0-3.86,0-.09.05-.18.05-.21.28-.09.83-.59,1.11-.52l3.38,1.95Z"/>
  <path class="cls-3" d="M8.21,71.7c-.1,1.06-.04,2.71,0,3.8,0,.09,0,.18.05.26l-.14-.05v-4.07l.14-.05s-.05.07-.05.1Z"/>
  <rect class="cls-3" x="86.65" y="77.68" width=".05" height=".72"/>
  <path class="cls-3" d="M86.65,22.25l-4.55,2.58.03.1c1.13.62,2.25,1.28,3.37,1.93.05.03.12.02.14.03.02,0,.06.1.13.14.31.18.63.33.93.53v4.07h-.05l-.07-4.02-36.84,21.32L8.21,24.93l.3-.25L49.73,1.01l36.84,21.15.08.09ZM78.47,26.89s.12.01.19-.03c1.12-.65,2.24-1.3,3.36-1.96l-.05-.09L49.88,6.36l-.16-.04-.12.03L17.45,24.83l.03.1c1.12.62,2.23,1.28,3.34,1.92.06.04.15.02.18.04.01,0,.04.09.1.12,9.55,5.54,19.11,11.06,28.68,16.57,9.55-5.54,19.12-11.05,28.66-16.59.04-.03.03-.09.03-.1Z"/>
  <path class="cls-4" d="M8.21,24.93l41.52,24,36.84-21.32.07,4.02-36.53,21.2-.39.18c-13.83-8.01-27.7-16-41.5-24.06l-.02-4.02Z"/>
  <path class="cls-4" d="M86.65,22.25v4.03s-1.01.61-1.01.61c-.02-.01-.09,0-.14-.03-1.12-.65-2.24-1.31-3.37-1.93l-.03-.1,4.55-2.58Z"/>
  <path class="cls-4" d="M78.47,26.89l-28.01-16.13-.72-.38-.3.14-28.44,16.37s-.11,0-.18-.04c-1.11-.64-2.21-1.3-3.34-1.92l-.03-.1L49.61,6.35l.12-.03.16.04,32.08,18.45.05.09c-1.11.66-2.24,1.31-3.36,1.96-.07.04-.16.02-.19.03Z"/>
  <path class="cls-3" d="M49.6,48.8c-.08.38-.06.83-.05,1.22.02.74,0,1.45,0,2.17h-.05v-3.4h.1Z"/>
  <path class="cls-3" d="M90.18,29.52c0,.38,0,.75,0,1.13,0,.09.05.15.05.16,0,.03-.05.12-.05.21,0,1.28,0,2.57,0,3.85l4.55-2.63h.05c0,10.47-.06,20.94-.1,31.41-.01,3.71.03,7.42-.02,11.13l-41.22,24c-.06.03-.12.07-.19.07l-.12-47.99c12.28-7.1,24.59-14.14,36.89-21.2.07-.04.07-.13.08-.14.01-.01.07.01.1,0ZM86.64,36.98c-.09.05-.32.09-.41.18-9.21,5.53-18.75,10.52-27.94,16.08-.18.11-.36.21-.52.34.01,11.07.06,22.14.07,33.2,0,1.16-.14,2.92,0,4,0,.07-.03.08.07.07l32.17-18.67c.03-1.46,0-2.92,0-4.37.07-9.08.05-18.25.1-27.32.01-1.86-.01-3.72,0-5.58-.07-.02-.11.02-.17.04-1.15.55-2.28,1.38-3.37,2.01Z"/>
  <path class="cls-1" d="M90.09,29.52s0,.1-.08.14c-12.3,7.06-24.61,14.1-36.89,21.2l.12,47.99c-.06,0-.12,0-.18-.04l-3.29-1.93-.08-.11c-.07-13.49-.05-26.98-.09-40.48,0-1.36-.06-2.73-.05-4.09,0-.72.02-1.44,0-2.17-.01-.39-.03-.84.05-1.22l36.99-21.24.24.07,3.25,1.89Z"/>
  <path class="cls-5" d="M94.77,32.25c0-1.77,0-3.54,0-5.31l-3.54,2.01c-.31.2-.64.35-.96.53-.14.03-.09-.07-.1-.17-.07-1.8.06-3.65,0-5.46l.05-.19,9.57-5.52.04,11.16c-.03.09-.29.22-.39.28-1.53.93-3.13,1.76-4.67,2.67Z"/>
  <path class="cls-2" d="M99.8,18.13l-9.57,5.52-.05.19c.06,1.81-.07,3.66,0,5.46,0,.09-.05.19.1.17-.03.02-.06.03-.1.05-.02.01-.08-.01-.1,0l-3.25-1.89-.24-.07c.05-.08.05-.17.05-.26.06-1.83-.05-3.67,0-5.51l.07-.17,9.58-5.49.14.03c1.1.69,2.29,1.25,3.36,1.97Z"/>
  <path class="cls-1" d="M86.64,36.98c1.09-.63,2.22-1.46,3.37-2.01.06-.03.1-.06.17-.04,0,1.86.01,3.72,0,5.58-.05,9.07-.03,18.24-.1,27.32-.01,1.46.02,2.92,0,4.37l-32.17,18.67c-.1.01-.06,0-.07-.07-.14-1.08,0-2.84,0-4l28.75-16.66c.05-8.15-.03-16.31,0-24.47,0-.15.05-.28.05-.43.01-2.75-.01-5.5,0-8.26Z"/>
  <path class="cls-2" d="M91.23,28.94l3.54-2.01c0,1.77,0,3.54,0,5.31h-.05l-3.49-2.01v-1.29Z"/>
  <path class="cls-1" d="M94.73,32.25l-4.55,2.63c0-1.28,0-2.57,0-3.85,0-.09.05-.18.05-.21l1-.57,3.49,2.01Z"/>
  <path class="cls-3" d="M46.36,56.25l-1.21-.69-3.26-1.85c-.06-.02-.06-.12-.07-.14-.01,0-.12.03-.1-.07v-5.29l-.05-.03-24.33-14.01-4.67-2.69-3.5-2.02-.93-.53-3.49-2.01-.09.08c-.05.25.04.51.05.75.14,6.23-.02,12.57-.01,18.81.01,6.57.05,13.15.1,19.72.01,1.41.05,2.9,0,4.31,0,.09.05.19-.1.16.06.05.1.14.1.22v3.9l-4.54-2.63s-.05.07-.06.11c-.11.95.09,2.1.01,3.07.11.7-.01,1.42.07,2.13,1.38.76,2.71,1.65,4.1,2.4.15.08.25.15.42.18v-5.21l3.54,2.05,37.88,22.02h.09v-.05c-.13-3.9-.01-7.84,0-11.75.04-10.31.02-20.62.05-30.94ZM41.72,59.68c-.04,9.06-.07,18.14-.09,27.2-.01,1.16.14,2.91,0,4-.01.06.02.08-.08.07l-28.65-16.63-.11-.06h0s-3.32-1.93-3.32-1.93c-.05-.02-.02-.07-.03-.09-.03-.06-.05-.07-.05-.17-.1-1.2.01-2.64,0-3.88-.08-8.43-.06-16.89-.1-25.31-.01-2.63.01-5.25,0-7.88.1,0,.17.04.25.07,1.02.48,2.13,1.26,3.13,1.85.06.03.11.06.16.09,1.5.86,3,1.73,4.51,2.59,6.55,3.76,13.13,7.51,19.68,11.28,1.19.68,2.38,1.36,3.57,2.05.32.18.64.37.96.55l.15.14c.02,1.31.03,2.62.03,3.93,0,.71-.01,1.42-.01,2.13Z"/>
  <polygon class="cls-3" points="49.9 57.73 49.85 57.73 49.85 54.29 49.85 54.19 49.9 54.19 49.9 57.73"/>
  <path class="cls-1" d="M45.16,46.2l-3.44,2.01L4.75,26.91l3.35-1.94.2-.02c11.82,6.83,23.69,13.55,35.51,20.37.4.23.83.46,1.21.7.07.05.15.05.14.17Z"/>
  <path class="cls-4" d="M45.26,46.25v5.28s2.25,1.37,2.25,1.37c-.09,0-.34.08-.46.09-1.75.17-3.49.36-5.23.58,0,0-.12.03-.1-.07v-5.29s3.45-2.01,3.45-2.01c.02,0,.03,0,.05,0l.05.05Z"/>
  <path class="cls-4" d="M49.85,54.19v.1l-3.49,1.96-4.47-2.54c-.07-.02-.06-.12-.08-.14,1.74-.22,3.49-.41,5.23-.58.12-.01.37-.09.46-.09.35,0,1.9,1.12,2.34,1.29Z"/>
  <path class="cls-4" d="M8.33,76.97c-.04.23.07,1.09-.05,1.22l-3.4,1.96c-.05.04-.08-.02-.09-.03v-5.22s3.54,2.06,3.54,2.06Z"/>
  <path class="cls-1" d="M4.7,70.75c.05.05.09.14.1.21v3.9s-4.55-2.63-4.55-2.63l3.43-2c.06-.02.1,0,.15.02s.83.47.86.5Z"/>
  <path class="cls-1" d="M45.26,46.25l-.05-.05s.05,0,.05.05Z"/>
  <path class="cls-4" d="M49.85,54.29v3.45c0,13.04-.04,26.08-.1,39.12l-.05.09-3.4,1.99c-.13-3.9,0-7.84,0-11.75.03-10.31.01-20.63.05-30.94l3.49-1.96Z"/>
  <path class="cls-4" d="M15.18,71.57l-2.36.28-3.38.39c-.03-.06-.05-.07-.05-.17-.1-1.2.01-2.64,0-3.88-.08-8.43-.06-16.89-.1-25.31-.01-2.63.01-5.25,0-7.88.1,0,.17.04.25.07,1.02.48,2.13,1.26,3.13,1.85.06.03.11.06.16.09.02,3.41,0,6.82,0,10.22,0,.15.05.28.05.43.03,7.5-.02,15,0,22.49l.05.1c.76.42,1.5.88,2.25,1.32Z"/>
  <path class="cls-4" d="M41.63,90.88c-.01.06.02.08-.08.07l-28.65-16.63-.11-.06h0s-3.32-1.93-3.32-1.93c-.05-.02-.02-.07-.03-.09l3.38-.39,2.36-.28c.41.24.82.48,1.23.71,8.39,4.89,16.83,9.71,25.22,14.6-.01,1.16.14,2.91,0,4Z"/>
</svg>