<?xml version="1.0" encoding="UTF-8"?>
<svg id="Layer_1" data-name="Layer 1" xmlns="http://www.w3.org/2000/svg" viewBox="0 0 20 20">
  <defs>
    <style>
      .cls-1 {
        fill: #fff;
      }

      .cls-2 {
        fill: #54e346;
      }
    </style>
  </defs>
  <path class="cls-1" d="M16.22,3.78v12.62s-12.62,0-12.62,0V3.78s12.62,0,12.62,0v-1.8H1.8v16.22h16.22V3.78h-1.8Z"/>
  <rect class="cls-2" x="0" y="18.2" width="1.8" height="1.8"/>
  <g>
    <polygon class="cls-1" points="14.42 14.59 14.42 10.99 13.52 10.99 13.52 10.09 9.91 10.09 9.91 10.09 6.31 10.09 6.31 10.99 5.41 10.99 5.41 14.59 14.42 14.59"/>
    <g>
      <polygon class="cls-2" points="10.36 6.48 11.71 6.48 11.71 5.58 10.56 5.58 10.56 5.58 8.11 5.58 8.11 6.48 10.36 6.48 10.36 6.48"/>
      <polygon class="cls-2" points="10.52 9.19 12.62 9.19 12.62 6.48 11.71 6.48 11.71 8.29 10.52 8.29 10.36 8.29 8.11 8.29 8.11 6.48 7.21 6.48 7.21 9.19 10.36 9.19 10.52 9.19"/>
    </g>
  </g>
  <polygon class="cls-2" points="20 0 16.22 0 16.22 1.98 18.02 1.98 18.02 3.78 20 3.78 20 0"/>
</svg>