<?xml version="1.0" encoding="UTF-8"?>
<svg id="Layer_1" data-name="Layer 1" xmlns="http://www.w3.org/2000/svg" viewBox="0 0 20 20">
  <defs>
    <style>
      .cls-1 {
        fill: #fff;
      }

      .cls-2 {
        fill: #54e346;
      }
    </style>
  </defs>
  <g>
    <polygon class="cls-1" points="12.61 10.64 12.61 9.98 9.99 9.98 9.99 9.98 7.37 9.98 7.37 10.64 6.72 10.64 6.72 12.6 9.34 12.6 9.45 12.6 9.99 12.6 9.99 12.6 10.53 12.6 10.65 12.6 13.27 12.6 13.27 10.64 12.61 10.64"/>
    <g>
      <polygon class="cls-2" points="10.32 7.36 11.3 7.36 11.3 6.71 10.46 6.71 10.46 6.71 8.68 6.71 8.68 7.36 10.32 7.36 10.32 7.36"/>
      <polygon class="cls-2" points="10.44 9.33 11.96 9.33 11.96 7.36 11.3 7.36 11.3 8.67 10.44 8.67 10.32 8.67 8.68 8.67 8.68 7.36 8.03 7.36 8.03 9.33 10.32 9.33 10.44 9.33"/>
    </g>
    <g>
      <rect class="cls-2" x="12.25" y="6.67" width="1.32" height=".66"/>
      <polygon class="cls-2" points="14.23 7.33 14.23 9.3 12.25 9.3 12.25 8.64 13.57 8.64 13.57 7.33 14.23 7.33"/>
    </g>
    <rect class="cls-1" x="13.27" y="9.98" width="1.63" height=".66"/>
    <rect class="cls-1" x="14.24" y="11.29" width="1.96" height=".66" transform="translate(3.6 26.84) rotate(-90)"/>
    <g>
      <rect class="cls-2" x="6.43" y="6.67" width="1.32" height=".66"/>
      <polygon class="cls-2" points="5.77 7.33 5.77 9.3 7.75 9.3 7.75 8.64 6.43 8.64 6.43 7.33 5.77 7.33"/>
    </g>
    <rect class="cls-1" x="5.11" y="9.98" width="1.63" height=".66" transform="translate(11.84 20.62) rotate(180)"/>
    <rect class="cls-1" x="3.8" y="11.29" width="1.96" height=".66" transform="translate(-6.84 16.4) rotate(-90)"/>
  </g>
  <path class="cls-1" d="M17.78,2.22v15.56s-15.56,0-15.56,0V2.22s15.56,0,15.56,0V0H0v20h20V2.22h-2.22Z"/>
</svg>