<?xml version="1.0" encoding="UTF-8"?>
<svg id="Layer_1" data-name="Layer 1" xmlns="http://www.w3.org/2000/svg" viewBox="0 0 20 20">
  <defs>
    <style>
      .cls-1 {
        fill: #153e90;
      }

      .cls-2 {
        fill: #fff;
      }

      .cls-3 {
        fill: #54e346;
      }
    </style>
  </defs>
  <g>
    <rect class="cls-2" x="0" y="16.44" width="1.8" height="1.8"/>
    <polygon class="cls-3" points="20 1.76 16.22 1.76 16.22 3.73 18.02 3.73 18.02 5.63 20 5.63 20 1.76"/>
    <rect class="cls-2" x="5.41" y="7.43" width="8.56" height="1.8"/>
    <rect class="cls-2" x="5.41" y="11.03" width="8.56" height="1.8"/>
    <path class="cls-2" d="M16.22,5.63v9.01s-12.62,0-12.62,0V5.63s12.62,0,12.62,0v-1.8H1.8v12.62h16.22V5.63h-1.8Z"/>
  </g>
  <polygon class="cls-1" points="32.11 21.06 32.11 19.57 26.17 19.57 26.17 19.57 20.24 19.57 20.24 21.06 18.75 21.06 18.75 25.51 24.69 25.51 24.95 25.51 26.17 25.51 26.17 25.51 27.39 25.51 27.66 25.51 33.59 25.51 33.59 21.06 32.11 21.06"/>
</svg>