<?xml version="1.0" encoding="UTF-8"?>
<svg id="Layer_1" data-name="Layer 1" xmlns="http://www.w3.org/2000/svg" viewBox="0 0 20 20">
  <defs>
    <style>
      .cls-1 {
        fill: #153e90;
      }

      .cls-2 {
        fill: #fff;
      }

      .cls-3 {
        fill: #54e346;
      }
    </style>
  </defs>
  <g>
    <g>
      <polygon class="cls-2" points="13.35 12.27 13.35 10.79 7.42 10.79 7.42 10.79 1.48 10.79 1.48 12.27 0 12.27 0 16.72 5.93 16.72 6.2 16.72 7.42 16.72 7.42 16.72 8.64 16.72 8.9 16.72 14.84 16.72 14.84 12.27 13.35 12.27"/>
      <g>
        <polygon class="cls-3" points="8.16 4.85 10.39 4.85 10.39 3.37 8.49 3.37 8.49 3.37 4.45 3.37 4.45 4.85 8.16 4.85 8.16 4.85"/>
        <polygon class="cls-3" points="8.43 9.3 11.87 9.3 11.87 4.85 10.39 4.85 10.39 7.82 8.43 7.82 8.16 7.82 4.45 7.82 4.45 4.85 2.97 4.85 2.97 9.3 8.16 9.3 8.43 9.3"/>
      </g>
    </g>
    <g>
      <rect class="cls-3" x="12.54" y="3.28" width="2.99" height="1.49"/>
      <polygon class="cls-3" points="17.02 4.77 17.02 9.25 12.54 9.25 12.54 7.76 15.53 7.76 15.53 4.77 17.02 4.77"/>
    </g>
    <rect class="cls-2" x="14.84" y="10.79" width="3.68" height="1.49"/>
    <rect class="cls-2" x="17.04" y="13.76" width="4.44" height="1.48" transform="translate(4.76 33.76) rotate(-90)"/>
  </g>
  <polygon class="cls-1" points="32.11 21.06 32.11 19.57 26.17 19.57 26.17 19.57 20.24 19.57 20.24 21.06 18.75 21.06 18.75 25.51 24.69 25.51 24.95 25.51 26.17 25.51 26.17 25.51 27.39 25.51 27.66 25.51 33.59 25.51 33.59 21.06 32.11 21.06"/>
</svg>